SplineFontDB: 3.2
FontName: NewCMSans10-Oblique
FullName: NewComputerModernSans10-Oblique
FamilyName: NewComputerModernSans10
Weight: Normal
Copyright: (C) 2019 Antonis Tsolomitis. This work is released under the GUST Font License --  see http://tug.org/fonts/licenses/GUST-FONT-LICENSE.txt for details.
Version: 3.93
ItalicAngle: -12
UnderlinePosition: -146
UnderlineWidth: 40
Ascent: 806
Descent: 194
InvalidEm: 0
LayerCount: 2
Layer: 0 0 "Back" 1
Layer: 1 0 "Fore" 0
XUID: [1021 210 1223046955 13887901]
StyleMap: 0x0001
FSType: 12
OS2Version: 3
OS2_WeightWidthSlopeOnly: 0
OS2_UseTypoMetrics: 0
CreationTime: 1254996028
ModificationTime: 1633794075
PfmFamily: 81
TTFWeight: 400
TTFWidth: 5
LineGap: 0
VLineGap: 0
Panose: 0 0 5 0 0 0 0 0 0 0
OS2TypoAscent: 806
OS2TypoAOffset: 0
OS2TypoDescent: -194
OS2TypoDOffset: 0
OS2TypoLinegap: 200
OS2WinAscent: 1154
OS2WinAOffset: 0
OS2WinDescent: 309
OS2WinDOffset: 0
HheadAscent: 1154
HheadAOffset: 0
HheadDescent: -309
HheadDOffset: 0
OS2SubXSize: 650
OS2SubYSize: 600
OS2SubXOff: -16
OS2SubYOff: 75
OS2SupXSize: 650
OS2SupYSize: 600
OS2SupXOff: 74
OS2SupYOff: 350
OS2StrikeYSize: 40
OS2StrikeYPos: 266
OS2CapHeight: 694
OS2XHeight: 444
OS2Vendor: 'UKWN'
OS2CodePages: 20000193.00000000
OS2UnicodeRanges: 20000007.00000000.00000000.00000000
Lookup: 1 0 0 "'aalt' Access All Alternates lookup 0" { "'aalt' Access All Alternates lookup 0 subtable"  } ['aalt' ('DFLT' <'dflt' > 'cyrl' <'dflt' > 'latn' <'AZE ' 'CRT ' 'MOL ' 'NLD ' 'PLK ' 'ROM ' 'TRK ' 'dflt' > ) ]
Lookup: 3 0 0 "'aalt' Access All Alternates lookup 1" { "'aalt' Access All Alternates lookup 1 subtable"  } ['aalt' ('DFLT' <'dflt' > 'cyrl' <'dflt' > 'latn' <'AZE ' 'CRT ' 'MOL ' 'NLD ' 'PLK ' 'ROM ' 'TRK ' 'dflt' > ) ]
Lookup: 1 0 0 "'locl' Localized Forms in Latin lookup 2" { "'locl' Localized Forms in Latin lookup 2 subtable"  } ['locl' ('latn' <'MOL ' 'ROM ' > ) ]

StartChar: acute.dup
Encoding: 1114113 -1 1
Width: 500
Flags: MW
HStem: 527 21G<292 353 292 292> 674 20G<461 539 539 539>
LayerCount: 2
Fore
SplineSet
539 694 m 1
 353 527 l 1
 292 527 l 1
 461 694 l 1
 539 694 l 1
EndSplineSet
Validated: 1
EndChar

StartChar: AE.dup
Encoding: 1114114 -1 2
Width: 861
Flags: MW
HStem: 0 70<522 692 692 698 522 818> 222 56<276 466 241 478> 330 61<590 847 577 860> 629 65<779 785 785 938>
VStem: 553 88<630 630>
LayerCount: 2
Fore
SplineSet
818 0 m 1
 419 0 l 1
 466 222 l 1
 241 222 l 1
 103 0 l 1
 28 0 l 1
 460 694 l 1
 952 694 l 1
 938 629 l 1
 785 629 l 2
 773 629 761 630 749 630 c 2
 641 630 l 1
 590 391 l 1
 860 391 l 1
 847 330 l 1
 577 330 l 1
 522 70 l 1
 692 70 l 2
 704 70 716 71 728 71 c 2
 833 71 l 1
 818 0 l 1
478 278 m 1
 553 630 l 1
 495 630 l 1
 276 278 l 1
 478 278 l 1
EndSplineSet
Validated: 1
EndChar

StartChar: ae.dup
Encoding: 1114115 -1 3
Width: 722
Flags: MW
HStem: -11 61<111 229.5 528.5 565> 66 61 219 55<463 692 463 740 447 692> 400 61<598 628.5> 402 59<300 342.5>
VStem: 71 72<114 114> 375 72<219 247> 463 78 541 72 625 72
LayerCount: 2
Fore
SplineSet
740 219 m 1xeec0
 447 219 l 1
 429 112 484 50 555 50 c 0
 583 50 641 57 705 106 c 1
 697 41 l 1
 645 5 589 -11 541 -11 c 0
 516 -11 442 -8 394 66 c 1
 331 -8 187 -11 159 -11 c 0
 63 -11 64 81 71 114 c 0
 97 234 317 244 375 247 c 1
 383 288 l 2
 399 364 365 402 320 402 c 0
 263 402 213 386 158 352 c 1
 166 418 l 1
 219 445 268 461 332 461 c 0
 389 461 437 432 457 384 c 1
 508 434 571 461 625 461 c 0
 791 461 747 254 740 219 c 1xeec0
692 274 m 1
 701 384 644 400 613 400 c 0xf480
 559 400 497 351 463 274 c 1x21
 692 274 l 1
354 127 m 0
 357 139 363 184 364 191 c 1
 323 191 158 183 143 115 c 0
 136 78 168 50 222 50 c 0
 237 50 338 50 354 127 c 0
EndSplineSet
Validated: 33
EndChar

StartChar: cedilla.dup
Encoding: 1114116 -1 4
Width: 444
Flags: MW
HStem: -192 21G<104 173 104 104> -44 20G<214 275 275 275>
LayerCount: 2
Fore
SplineSet
275 -24 m 1
 173 -192 l 1
 104 -192 l 1
 214 -24 l 1
 275 -24 l 1
EndSplineSet
Validated: 1
EndChar

StartChar: circumflex.dup
Encoding: 1114117 -1 5
Width: 500
Flags: MW
HStem: 525 21G<207 266 207 207 458 517 458 458> 677 20G<368 428 428 428>
LayerCount: 2
Fore
SplineSet
517 525 m 1
 458 525 l 1
 388 648 l 1
 266 525 l 1
 207 525 l 1
 368 697 l 1
 428 697 l 1
 517 525 l 1
EndSplineSet
Validated: 1
EndChar

StartChar: dieresis.dup
Encoding: 1114118 -1 6
Width: 500
Flags: MW
HStem: 571 80<275 338 258 355 275 404 421 484>
VStem: 258 80<571 571> 275 80<651 651> 404 80<571 571> 421 80<651 651>
LayerCount: 2
Fore
SplineSet
338 571 m 1xa0
 258 571 l 1xc8
 275 651 l 1
 355 651 l 1
 338 571 l 1xa0
484 571 m 1
 404 571 l 1x90
 421 651 l 1
 501 651 l 1
 484 571 l 1
EndSplineSet
Validated: 1
EndChar

StartChar: Gcedilla
Encoding: 1114119 -1 7
Width: 667
Flags: MW
HStem: -266 21G<239 276 239 239> -154 75<279 285 263 353> -11 64<366.5 421.5 366.5 422.5> 239 61<452 571 439 662> 642 64<494.5 541>
LayerCount: 2
Fore
SplineSet
606 38 m 1
 534 6 459 -11 386 -11 c 0
 299 -11 225 29 180 94 c 0
 133 163 120 254 140 347 c 0
 160 440 211 531 288 601 c 0
 361 666 451 706 538 706 c 0
 573 706 607 703 640 695 c 0
 672 686 702 673 729 656 c 1
 697 574 l 1
 676 596 651 615 620 626 c 0
 591 638 558 642 524 642 c 0
 459 642 393 607 341 556 c 0
 283 497 245 422 229 347 c 0
 213 272 219 198 253 139 c 0
 283 88 334 53 399 53 c 0
 444 53 491 60 536 74 c 1
 571 239 l 1
 439 239 l 1
 452 300 l 1
 662 300 l 1
 606 38 l 1
337 -153 m 1
 276 -266 l 1
 239 -266 l 1
 285 -154 l 1
 263 -154 l 1
 279 -79 l 1
 353 -79 l 1
 337 -153 l 1
EndSplineSet
Validated: 33
EndChar

StartChar: gcedilla
Encoding: 1114120 -1 8
Width: 500
Flags: MW
HStem: -206 57<177.5 259 177.5 266.5> -3 72<136 280 192 265> 129 57<242.5 282.5 242.5 293> 398 57<287.5 327.5> 540 75<361 367 293 383> 707 20G<370 407 407 407>
VStem: 13 70<4.29497e+09 4.29497e+09> 124 70<292 292> 248 70 373 70<292 292> 386 70
LayerCount: 2
Fore
SplineSet
367 540 m 1xffa0
 293 540 l 1
 309 614 l 1
 370 727 l 1
 407 727 l 1
 361 615 l 1
 383 615 l 1
 367 540 l 1xffa0
568 392 m 1
 568 392 528 395 510 395 c 0
 486 395 457 391 435 391 c 1
 431 392 l 1
 439 377 453 340 443 292 c 0xf340
 424 203 338 129 248 129 c 0
 211 129 181 143 164 158 c 1
 155 149 147 133 145 122 c 0
 134 69 179 69 192 69 c 2
 280 69 l 2
 319 69 486 69 456 -70 c 0
 440 -147 328 -206 205 -206 c 0
 83 -206 -3 -146 13 -71 c 0
 18 -45 40 1 99 32 c 1
 86 53 83 82 89 108 c 0
 90 113 98 152 136 193 c 1
 122 219 116 255 124 292 c 0
 143 383 232 455 318 455 c 0
 358 455 389 440 406 423 c 1
 439 436 501 455 571 455 c 1
 568 392 l 1
373 292 m 0
 390 370 349 398 306 398 c 0
 269 398 212 375 194 292 c 0
 176 209 224 186 261 186 c 0
 304 186 356 214 373 292 c 0
386 -72 m 0
 400 -3 287 -3 265 -3 c 2
 175 -3 l 2
 97 -3 84 -68 83 -71 c 0
 73 -118 137 -149 218 -149 c 0
 300 -149 376 -116 386 -72 c 0
EndSplineSet
Validated: 33
EndChar

StartChar: germandbls.dup
Encoding: 1114121 -1 9
Width: 481
Flags: MW
HStem: -11 61<281 313.5 281 321.5> 383 61<294 307> 644 61<378.5 418.5>
VStem: 82 75<0 0> 199 75<551 552> 389 77 413 77<179 179> 415 75 466 77<559 559>
LayerCount: 2
Fore
SplineSet
490 179 m 0x01
 467 70 369 -11 274 -11 c 0
 231 -11 188 4 189 9 c 2
 195 20 l 1
 222 65 l 1
 248 52 276 50 286 50 c 0
 341 50 396 97 413 179 c 0x8a
 435 284 397 380 294 383 c 1
 307 444 l 1
 401 445 454 505 466 559 c 0
 476 607 448 644 389 644 c 0x64
 368 644 293 638 274 551 c 2
 157 0 l 1
 82 0 l 1
 199 552 l 2
 221 654 323 705 403 705 c 0
 496 705 560 641 543 558 c 0x3880
 532 506 489 448 415 411 c 1
 493 356 507 258 490 179 c 0x01
EndSplineSet
Validated: 33
EndChar

StartChar: hyphen.dup
Encoding: 1114122 -1 10
Width: 333
Flags: MW
HStem: 193 58<64 317 52 329>
VStem: 52 265<193 193> 64 265<251 251>
LayerCount: 2
Fore
SplineSet
317 193 m 1xa0
 52 193 l 1xc0
 64 251 l 1
 329 251 l 1
 317 193 l 1xa0
EndSplineSet
Validated: 1
EndChar

StartChar: Kcedilla
Encoding: 1114123 -1 11
Width: 694
Flags: MW
HStem: -266 21G<253 290 253 253> -154 75<293 299 277 367> 0 21G<96 181 96 96 559 651 559 559> 674 20G<244 329 329 329 692 785 785 785>
VStem: 96 85<0 0> 244 85<694 694>
LayerCount: 2
Fore
SplineSet
651 0 m 1
 559 0 l 1
 391 364 l 1
 229 227 l 1
 181 0 l 1
 96 0 l 1
 244 694 l 1
 329 694 l 1
 250 323 l 1
 692 694 l 1
 785 694 l 1
 458 420 l 1
 651 0 l 1
351 -153 m 1
 290 -266 l 1
 253 -266 l 1
 299 -154 l 1
 277 -154 l 1
 293 -79 l 1
 367 -79 l 1
 351 -153 l 1
EndSplineSet
Validated: 1
EndChar

StartChar: kcedilla
Encoding: 1114124 -1 12
Width: 489
Flags: MW
HStem: -266 21G<150 187 150 150> -154 75<190 196 174 264> 0 21G<84 153 84 84 389 471 389 389> 674 20G<232 304 304 304>
VStem: 232 72<694 694> 471 72
LayerCount: 2
Fore
SplineSet
471 0 m 1
 389 0 l 1
 281 224 l 1
 183 141 l 1
 153 0 l 1
 84 0 l 1
 232 694 l 1
 304 694 l 1
 206 236 l 1
 453 444 l 1
 543 444 l 1
 339 272 l 1
 471 0 l 1
248 -153 m 1
 187 -266 l 1
 150 -266 l 1
 196 -154 l 1
 174 -154 l 1
 190 -79 l 1
 264 -79 l 1
 248 -153 l 1
EndSplineSet
Validated: 1
EndChar

StartChar: Lcedilla
Encoding: 1114125 -1 13
Width: 542
Flags: MW
HStem: -266 21G<177 214 177 177> -154 75<217 223 201 291> 0 64<197 246 197 499> 674 20G<242 331 331 331>
VStem: 242 89<694 694>
LayerCount: 2
Fore
SplineSet
499 0 m 1
 94 0 l 1
 242 694 l 1
 331 694 l 1
 197 64 l 1
 246 64 l 1
 513 66 l 1
 499 0 l 1
275 -153 m 1
 214 -266 l 1
 177 -266 l 1
 223 -154 l 1
 201 -154 l 1
 217 -79 l 1
 291 -79 l 1
 275 -153 l 1
EndSplineSet
Validated: 1
EndChar

StartChar: lcedilla
Encoding: 1114126 -1 14
Width: 239
Flags: MW
HStem: -266 21G<25 62 25 25> -154 75<65 71 49 139> 0 21G<81 156 81 81> 674 20G<229 304 304 304>
VStem: 81 75<0 0> 229 75<694 694>
LayerCount: 2
Fore
SplineSet
156 0 m 1
 81 0 l 1
 229 694 l 1
 304 694 l 1
 156 0 l 1
123 -153 m 1
 62 -266 l 1
 25 -266 l 1
 71 -154 l 1
 49 -154 l 1
 65 -79 l 1
 139 -79 l 1
 123 -153 l 1
EndSplineSet
Validated: 1
EndChar

StartChar: macron.dup
Encoding: 1114127 -1 15
Width: 500
Flags: MW
HStem: 579 64<207 554 193 568>
LayerCount: 2
Fore
SplineSet
554 579 m 1
 193 579 l 1
 207 643 l 1
 568 643 l 1
 554 579 l 1
EndSplineSet
Validated: 1
EndChar

StartChar: Ncedilla
Encoding: 1114128 -1 16
Width: 708
Flags: MW
HStem: -266 21G<260 297 260 260> -154 75<300 306 284 374> 0 21G<96 174 96 96 487 611 487 487> 674 20G<244 368 368 368 681 759 759 759>
VStem: 96 78<0 0> 681 78<694 694>
LayerCount: 2
Fore
SplineSet
611 0 m 1
 487 0 l 1
 345 486 l 1
 307 623 l 1
 306 623 l 1
 174 0 l 1
 96 0 l 1
 244 694 l 1
 368 694 l 1
 509 208 l 1
 547 71 l 1
 548 71 l 1
 681 694 l 1
 759 694 l 1
 611 0 l 1
358 -153 m 1
 297 -266 l 1
 260 -266 l 1
 306 -154 l 1
 284 -154 l 1
 300 -79 l 1
 374 -79 l 1
 358 -153 l 1
EndSplineSet
Validated: 1
EndChar

StartChar: ncedilla
Encoding: 1114129 -1 17
Width: 517
Flags: MW
HStem: -266 21G<164 201 164 164> -154 75<204 210 188 278> 0 21G<81 159 81 81 357 435 357 357> 394 61<350 392>
VStem: 81 78<0 0> 357 78<0 0>
LayerCount: 2
Fore
SplineSet
435 0 m 1
 357 0 l 1
 419 291 l 2
 426 323 440 394 344 394 c 0
 268 394 225 311 211 245 c 2
 159 0 l 1
 81 0 l 1
 177 450 l 1
 249 450 l 1
 234 379 l 1
 241 387 305 455 395 455 c 0
 517 455 512 364 498 298 c 2
 435 0 l 1
262 -153 m 1
 201 -266 l 1
 164 -266 l 1
 210 -154 l 1
 188 -154 l 1
 204 -79 l 1
 278 -79 l 1
 262 -153 l 1
EndSplineSet
Validated: 33
EndChar

StartChar: OE.dup
Encoding: 1114130 -1 18
Width: 972
Flags: MW
HStem: -22 61<300.5 367> 0 70<505.5 783 574 783 783 789 574 929> 70 61 330 61<642 958 629 971> 560 70 629 65<861 867 867 1049> 655 61<432 524 423.5 543.5>
VStem: 496 91 867 91 958 91
LayerCount: 2
Fore
SplineSet
929 0 m 1x5880
 519 0 l 2x40
 492 0 475 -3 436 -11 c 0
 401 -18 381 -22 353 -22 c 0
 183 -22 56 131 101 345 c 0
 146 557 337 716 510 716 c 0x82
 538 716 557 712 589 705 c 0
 632 695 646 694 667 694 c 2
 1063 694 l 1
 1049 629 l 1x0440
 867 629 l 2x0480
 855 629 843 630 831 630 c 2
 693 630 l 1
 642 391 l 1
 971 391 l 1
 958 330 l 1
 629 330 l 1
 574 70 l 1
 783 70 l 2
 795 70 807 71 819 71 c 2
 944 71 l 1
 929 0 l 1x5880
546 347 m 0
 565 436 584 527 587 560 c 0
 592 621 585 655 502 655 c 0
 362 655 225 523 191 360 c 0
 153 184 230 39 371 39 c 0
 455 39 476 74 496 131 c 0xab
 507 164 521 231 546 347 c 0
EndSplineSet
Validated: 33
EndChar

StartChar: oe.dup
Encoding: 1114131 -1 19
Width: 778
Flags: MW
HStem: -11 61<216.5 258.5 573.5 629.5> 219 55<518 748 518 796 502 748> 400 61<291 352 282 358.5 642.5 694>
VStem: 518 78 596 72 681 72
LayerCount: 2
Fore
SplineSet
796 219 m 1xec
 502 219 l 1
 484 115 536 50 611 50 c 0
 649 50 705 63 761 106 c 1
 753 41 l 1
 720 18 663 -11 596 -11 c 0
 519 -11 461 32 436 90 c 1
 355 0 278 -11 239 -11 c 0
 125 -11 50 92 78 225 c 0
 106 357 225 461 339 461 c 0
 365 461 448 457 492 362 c 1
 532 410 604 461 681 461 c 0
 825 461 814 306 796 219 c 1xec
748 274 m 1
 755 361 720 400 668 400 c 0xe8
 611 400 549 346 518 274 c 1x50
 748 274 l 1
426 230 m 0
 452 351 391 400 326 400 c 0
 256 400 175 345 151 230 c 0
 125 110 181 50 252 50 c 0
 320 50 400 107 426 230 c 0
EndSplineSet
Validated: 33
EndChar

StartChar: Oslash.dup
Encoding: 1114132 -1 20
Width: 778
Flags: MW
HStem: -65 21G<173 173> -22 61<382 459 382 473> 576 61<680 728> 655 61<464 546> 739 20G<751 751>
VStem: 129 85<345 345> 709 85<345 345>
LayerCount: 2
Fore
SplineSet
794 345 m 0
 750 137 563 -22 383 -22 c 0
 340 -22 289 -12 239 19 c 1
 173 -65 l 1
 125 -33 l 1
 195 57 l 1
 98 163 119 296 129 345 c 0
 173 550 358 716 541 716 c 0
 571 716 622 712 685 675 c 1
 751 759 l 1
 800 727 l 1
 728 637 l 1
 775 590 825 487 794 345 c 0
641 619 m 1
 603 645 565 655 527 655 c 0
 401 655 256 543 214 345 c 0
 203 292 191 196 243 117 c 1
 641 619 l 1
709 345 m 0
 725 420 725 510 680 576 c 1
 284 74 l 1
 326 45 367 39 397 39 c 0
 521 39 667 146 709 345 c 0
EndSplineSet
Validated: 33
EndChar

StartChar: oslash.dup
Encoding: 1114133 -1 21
Width: 500
Flags: MW
HStem: -112 21G<72 72> -11 61<250.5 296.5 250.5 306> 400 61<297.5 345> 537 20G<521 521>
VStem: 79 75<220 220> 260 75 439 75<220 220>
LayerCount: 2
Fore
SplineSet
514 220 m 0
 486 89 365 -11 247 -11 c 0
 222 -11 193 -6 165 8 c 1
 72 -112 l 1
 26 -82 l 1
 121 41 l 1
 101 65 57 118 79 220 c 0
 107 352 227 461 348 461 c 0
 378 461 410 452 432 441 c 1
 521 557 l 1
 568 527 l 1
 474 406 l 1
 512 363 530 296 514 220 c 0
389 387 m 1
 373 396 355 400 335 400 c 0
 260 400 179 338 154 220 c 0
 149 199 139 145 165 99 c 1
 389 387 l 1
439 220 m 0
 452 284 440 326 429 347 c 1
 207 61 l 1
 222 53 241 50 260 50 c 0
 333 50 414 105 439 220 c 0
EndSplineSet
Validated: 33
EndChar

StartChar: quoteleft.dup
Encoding: 1114134 -1 22
Width: 278
Flags: MW
HStem: 486 83<276 283 200 301> 674 20G<287 328 328 328>
VStem: 200 83<486 486> 218 83<568 569>
LayerCount: 2
Fore
SplineSet
283 486 m 1xd0
 200 486 l 1xa0
 218 568 l 1
 287 694 l 1
 328 694 l 1
 276 569 l 1
 301 569 l 1
 283 486 l 1xd0
EndSplineSet
Validated: 1
EndChar

StartChar: quoteright.dup
Encoding: 1114135 -1 23
Width: 278
Flags: MW
HStem: 486 21G<200 241 200 200> 611 83<245 252 227 328>
VStem: 227 83<611 612> 245 83<694 694>
LayerCount: 2
Fore
SplineSet
310 612 m 1x50
 241 486 l 1
 200 486 l 1
 252 611 l 1
 227 611 l 1xe0
 245 694 l 1
 328 694 l 1
 310 612 l 1x50
EndSplineSet
Validated: 1
EndChar

StartChar: Rcedilla
Encoding: 1114136 -1 24
Width: 646
Flags: MW
HStem: -266 21G<229 266 229 229> -154 75<269 275 253 343> 0 21G<96 182 96 96 528 617 528 528> 317 61<262 406 406 407 249 406> 638 56<318 462 318 318>
VStem: 96 86<0 0> 407 81<317 326> 616 81<508 508>
LayerCount: 2
Fore
SplineSet
617 0 m 1
 528 0 l 1
 407 317 l 1
 249 317 l 1
 182 0 l 1
 96 0 l 1
 244 694 l 1
 485 694 l 2
 628 694 718 607 697 508 c 0
 680 427 598 356 488 326 c 1
 617 0 l 1
616 508 m 0
 631 579 578 638 462 638 c 2
 318 638 l 1
 262 378 l 1
 406 378 l 2
 524 378 601 437 616 508 c 0
327 -153 m 1
 266 -266 l 1
 229 -266 l 1
 275 -154 l 1
 253 -154 l 1
 269 -79 l 1
 343 -79 l 1
 327 -153 l 1
EndSplineSet
Validated: 33
EndChar

StartChar: rcedilla
Encoding: 1114137 -1 25
Width: 342
Flags: MW
HStem: -266 21G<26 63 26 26> -154 75<66 72 50 140> 0 21G<82 157 82 82> 435 20G<424 424>
VStem: 82 75<0 0>
LayerCount: 2
Fore
SplineSet
409 388 m 1
 311 386 224 314 202 214 c 2
 157 0 l 1
 82 0 l 1
 178 450 l 1
 248 450 l 1
 228 359 l 1
 269 405 334 454 424 455 c 1
 409 388 l 1
124 -153 m 1
 63 -266 l 1
 26 -266 l 1
 72 -154 l 1
 50 -154 l 1
 66 -79 l 1
 140 -79 l 1
 124 -153 l 1
EndSplineSet
Validated: 1
EndChar

StartChar: tilde.dup
Encoding: 1114138 -1 26
Width: 500
Flags: MW
HStem: 551 61<435.5 459.5> 609 61<300.5 324.5>
LayerCount: 2
Fore
SplineSet
559 670 m 1x40
 541 592 483 551 436 551 c 0x80
 411 551 394 563 377 576 c 0
 354 595 336 609 313 609 c 0x40
 287 609 270 585 262 551 c 1
 201 551 l 1x80
 220 629 277 670 324 670 c 0x40
 349 670 367 658 383 645 c 0
 406 626 424 612 447 612 c 0x80
 473 612 490 636 498 670 c 1
 559 670 l 1x40
EndSplineSet
Validated: 1
EndChar

StartChar: A
Encoding: 65 65 27
Width: 667
Flags: MW
HStem: 0 21G<28 102 28 28 546 638 546 546> 204 56<255 503 255 513 222 503> 674 20G<437 525 525 525>
VStem: 28 610<0 0>
LayerCount: 2
Fore
SplineSet
638 0 m 1
 546 0 l 1
 513 204 l 1
 222 204 l 1
 102 0 l 1
 28 0 l 1
 437 694 l 1
 525 694 l 1
 638 0 l 1
503 260 m 1
 467 517 l 2
 458 583 456 608 457 622 c 1
 456 622 l 1
 441 585 392 500 359 441 c 0
 277 298 337 403 255 260 c 1
 503 260 l 1
EndSplineSet
Validated: 33
Position2: "'cpsp' Capital Spacing lookup 0 subtable" dx=7 dy=0 dh=14 dv=0
EndChar

StartChar: a
Encoding: 97 97 28
Width: 481
Flags: MW
HStem: -11 61<122.5 235.5> 194 53 402 59<309.5 352.5>
LayerCount: 2
Fore
SplineSet
409 0 m 1
 334 0 l 1
 342 36 l 1
 274 -9 180 -11 166 -11 c 0
 79 -11 69 70 78 113 c 0
 97 201 233 243 383 245 c 1
 392 288 l 2
 408 362 376 402 329 402 c 0
 280 402 228 389 168 352 c 1
 176 418 l 1
 229 445 277 461 342 461 c 0
 434 461 492 391 470 289 c 2
 409 0 l 1
359 132 m 2
 372 194 l 1
 329 192 165 185 150 115 c 0
 142 73 182 50 230 50 c 0
 241 50 279 51 312 69 c 0
 350 88 355 113 359 132 c 2
EndSplineSet
Validated: 33
EndChar

StartChar: ampersand
Encoding: 38 38 29
Width: 758
Flags: MW
HStem: -22 64<199.5 248.5 199.5 269 572.5 586> 292 61 343 61 655 61<422.5 464.5>
VStem: 73 69 142 78 266 78 479 69<560 560>
LayerCount: 2
Fore
SplineSet
700 -7 m 1xb3
 636 -22 592 -22 580 -22 c 0
 532 -22 482 -10 432 36 c 1
 398 19 318 -22 220 -22 c 0xb7
 114 -22 54 56 73 146 c 0x08
 81 185 102 222 142 257 c 0
 150 265 206 305 229 322 c 0
 243 332 248 336 256 342 c 0
 265 350 267 353 267 353 c 1x44
 267 353 268 356 266 363 c 0
 263 393 258 453 272 518 c 0
 295 625 367 716 452 716 c 0
 532 716 564 635 548 559 c 0
 534 493 466 429 351 343 c 1
 376 248 437 154 460 122 c 1
 488 141 535 178 588 245 c 0
 597 256 645 315 689 405 c 1
 747 387 l 1
 689 270 608 159 499 79 c 1
 524 58 550 42 595 42 c 0
 609 42 656 43 714 60 c 1
 700 -7 l 1xb3
479 560 m 0
 484 585 491 655 438 655 c 0
 407 655 360 627 344 552 c 0
 343 544 328 474 340 404 c 1
 413 460 468 509 479 560 c 0
390 80 m 1
 381 91 309 196 281 292 c 1x40
 273 286 205 237 204 235 c 0
 184 219 161 191 153 153 c 0
 142 102 164 42 235 42 c 0
 262 42 320 47 390 80 c 1
EndSplineSet
Validated: 33
Substitution2: "'lnum' Lining Figures lookup 5 subtable" ampersand
Substitution2: "'onum' Oldstyle Figures lookup 4 subtable" ampersand
Substitution2: "'aalt' Access All Alternates lookup 0 subtable" ampersand
EndChar

StartChar: asciicircum
Encoding: 94 94 30
Width: 556
Flags: MW
HStem: 562 21G<125 125 668 668> 685 59<423 436>
VStem: 119 566<584 584>
LayerCount: 2
Fore
SplineSet
685 584 m 1
 668 562 l 1
 423 685 l 1
 125 562 l 1
 119 584 l 1
 436 744 l 1
 685 584 l 1
EndSplineSet
Validated: 1
EndChar

StartChar: asciitilde
Encoding: 126 126 31
Width: 556
Flags: MW
HStem: 193 43<418 424.5> 211 43 246 43 264 43<236.5 243>
LayerCount: 2
Fore
SplineSet
617 290 m 1x90
 553 246 l 2x20
 533 232 511 221 489 211 c 0x40
 465 201 437 193 412 193 c 0
 372 193 345 210 319 227 c 0
 289 247 263 264 223 264 c 0
 172 264 113 234 55 193 c 1x90
 45 210 l 1
 108 254 l 2x40
 128 268 150 279 172 289 c 0x20
 197 299 224 307 249 307 c 0
 289 307 317 290 342 273 c 0
 373 253 398 236 438 236 c 0
 489 236 549 266 606 307 c 1
 617 290 l 1x90
EndSplineSet
Validated: 1
EndChar

StartChar: asterisk
Encoding: 42 42 32
Width: 500
Flags: MW
HStem: 306 21G<308 322> 730 20G<401 415>
VStem: 287 69<341 341> 367 69<715 715>
LayerCount: 2
Fore
SplineSet
528 436 m 0
 523 412 500 400 486 400 c 0
 475 400 472 403 457 416 c 2
 378 480 l 1
 374 450 362 366 356 341 c 0
 351 316 330 306 314 306 c 0
 302 306 282 314 287 341 c 0
 293 366 317 450 325 480 c 1
 215 413 l 2
 199 403 194 400 183 400 c 0
 169 400 152 412 157 436 c 0
 161 455 172 460 190 469 c 2
 311 528 l 1
 240 572 210 588 204 593 c 0
 196 599 193 608 196 620 c 0
 201 644 223 656 237 656 c 0
 242 656 249 656 262 645 c 2
 345 576 l 1
 350 606 362 690 367 715 c 0
 372 740 393 750 409 750 c 0
 421 750 442 742 436 715 c 0
 431 690 407 606 398 576 c 1
 509 643 l 2
 525 653 529 656 540 656 c 0
 554 656 572 644 567 620 c 0
 563 601 552 596 534 587 c 2
 412 528 l 1
 484 484 513 468 519 463 c 0
 527 457 530 448 528 436 c 0
EndSplineSet
Validated: 33
EndChar

StartChar: at
Encoding: 64 64 33
Width: 667
Flags: MW
HStem: -11 61<328.5 417 328.5 441> 120 61<433.5 485> 513 61<504.5 562 498 563.5> 644 61<458.5 544.5>
VStem: 130 75<347 347> 314 75<347 347> 534 75
LayerCount: 2
Fore
SplineSet
628 85 m 1
 586 47 496 -11 386 -11 c 0
 207 -11 87 145 130 347 c 0
 173 550 362 705 537 705 c 0
 759 705 706 450 687 362 c 0
 648 177 519 120 451 120 c 0
 353 120 286 217 314 347 c 0
 341 477 449 574 547 574 c 0
 577 574 605 564 626 549 c 1
 615 625 566 644 523 644 c 0
 394 644 242 522 205 347 c 0
 170 184 255 50 402 50 c 0
 432 50 485 54 554 81 c 0
 563 85 565 85 580 85 c 2
 628 85 l 1
609 347 m 0
 629 442 593 513 534 513 c 0
 475 513 409 441 389 347 c 0
 369 252 404 181 463 181 c 0
 522 181 589 253 609 347 c 0
EndSplineSet
Validated: 33
EndChar

StartChar: B
Encoding: 66 66 34
Width: 667
Flags: MW
HStem: 0 56<192 345 345 361> 330 61<263 379 379 395 250 379> 638 56<316 442 316 316>
VStem: 361 81 569 81<189 189>
LayerCount: 2
Fore
SplineSet
650 188 m 0
 629 90 505 0 361 0 c 2
 97 0 l 1
 245 694 l 1
 482 694 l 2
 624 694 713 612 694 520 c 0
 677 444 590 386 494 363 c 1
 597 346 668 275 650 188 c 0
615 519 m 0
 629 585 553 638 442 638 c 2
 316 638 l 1
 263 391 l 1
 379 391 l 2
 517 391 603 459 615 519 c 0
569 189 m 0
 586 269 501 330 395 330 c 2
 250 330 l 1
 192 56 l 1
 345 56 l 2
 453 56 553 114 569 189 c 0
EndSplineSet
Validated: 33
Position2: "'cpsp' Capital Spacing lookup 0 subtable" dx=7 dy=0 dh=14 dv=0
EndChar

StartChar: b
Encoding: 98 98 35
Width: 517
Flags: MW
HStem: -11 61<258.5 298.5 248.5 342> 335 61<231 241> 394 61<323.5 462> 674 20G<230 305 305 305>
VStem: 82 78<0 0> 230 75<694 694> 449 78<223 223>
LayerCount: 2
Fore
SplineSet
527 223 m 0x20
 499 89 392 -11 292 -11 c 0
 225 -11 189 24 170 46 c 1
 160 0 l 1
 82 0 l 1
 230 694 l 1
 305 694 l 1
 241 396 l 1xde
 312 445 376 455 415 455 c 0
 509 455 554 347 527 223 c 0x20
449 223 m 0
 477 351 410 394 351 394 c 0x22
 296 394 252 359 231 335 c 1
 184 114 l 1
 199 68 229 50 268 50 c 0
 329 50 422 93 449 223 c 0
EndSplineSet
Validated: 33
EndChar

StartChar: backslash
Encoding: 92 92 36
Width: 500
Flags: MW
HStem: -250 21G<363 375.5> 730 20G<211 242>
LayerCount: 2
Fore
SplineSet
394 -230 m 2
 392 -241 381 -250 370 -250 c 0
 356 -250 354 -239 353 -228 c 2
 212 712 l 2
 210 725 211 730 211 730 c 2
 214 741 224 750 235 750 c 0
 249 750 251 739 253 728 c 2
 393 -212 l 2
 395 -225 394 -230 394 -230 c 2
EndSplineSet
Validated: 1
EndChar

StartChar: bar
Encoding: 124 124 37
Width: 278
Flags: MW
HStem: -250 21G<76 96> 730 20G<288 308>
VStem: 73 40<-217 -217> 271 40<717 717>
LayerCount: 2
Fore
SplineSet
113 -217 m 2
 110 -231 106 -250 86 -250 c 0
 66 -250 70 -231 73 -217 c 2
 271 717 l 2
 274 731 278 750 298 750 c 0
 318 750 314 731 311 717 c 2
 113 -217 l 2
EndSplineSet
Validated: 33
EndChar

StartChar: braceleft
Encoding: 123 123 38
Width: 500
Flags: MW
HStem: -250 21G<338.5 360> 237 24 730 20G<516 572>
LayerCount: 2
Fore
SplineSet
376 -239 m 0
 374 -250 366 -250 354 -250 c 0
 323 -250 260 -242 223 -212 c 0
 179 -175 186 -141 198 -83 c 2
 240 115 l 2
 262 215 181 236 139 239 c 0
 129 240 123 240 125 250 c 0
 127 260 134 261 141 261 c 0
 205 265 238 292 255 306 c 0
 287 334 290 350 310 444 c 2
 349 627 l 2
 367 699 466 750 566 750 c 0
 578 750 586 750 584 739 c 0
 583 733 578 729 573 728 c 0
 502 724 474 700 452 682 c 0
 423 657 418 635 403 563 c 2
 364 383 l 2
 358 355 343 284 218 250 c 1
 255 239 313 213 312 147 c 0
 312 137 301 86 295 56 c 2
 263 -94 l 2
 256 -129 255 -131 256 -142 c 0
 257 -178 285 -223 363 -228 c 0
 372 -229 378 -229 376 -239 c 0
EndSplineSet
Validated: 33
EndChar

StartChar: braceright
Encoding: 125 125 39
Width: 500
Flags: MW
HStem: -250 21G<34 89> 239 21G<464 467.5> 730 20G<246 267>
VStem: 243 67
LayerCount: 2
Fore
SplineSet
480 250 m 0
 478 240 471 239 464 239 c 0
 400 235 367 208 350 194 c 0
 318 166 315 150 295 56 c 2
 256 -127 l 2
 239 -199 139 -250 39 -250 c 0
 29 -250 19 -250 21 -239 c 0
 22 -233 27 -229 33 -228 c 0
 103 -224 131 -200 153 -182 c 0
 183 -157 187 -135 203 -63 c 2
 241 117 l 2
 247 145 262 216 387 250 c 1
 350 261 292 287 293 353 c 0
 293 363 304 414 310 444 c 2
 342 594 l 2
 350 629 350 631 349 642 c 0
 348 678 321 723 243 728 c 0
 233 729 227 729 229 739 c 0
 231 750 241 750 251 750 c 0
 283 750 346 741 382 712 c 0
 426 675 419 641 407 583 c 2
 365 385 l 2
 344 285 424 264 466 261 c 0
 476 260 482 260 480 250 c 0
EndSplineSet
Validated: 33
EndChar

StartChar: bracketleft
Encoding: 91 91 40
Width: 289
Flags: MW
HStem: -250 61<134 213> 689 61<320 412 320 320>
LayerCount: 2
Fore
SplineSet
213 -250 m 1
 49 -250 l 1
 261 750 l 1
 425 750 l 1
 412 689 l 1
 320 689 l 1
 134 -189 l 1
 226 -189 l 1
 213 -250 l 1
EndSplineSet
Validated: 1
EndChar

StartChar: bracketright
Encoding: 93 93 41
Width: 289
Flags: MW
HStem: -250 61<-18 74 -18 133 -31 74> 689 61<181 260 168 345>
LayerCount: 2
Fore
SplineSet
133 -250 m 1
 -31 -250 l 1
 -18 -189 l 1
 74 -189 l 1
 260 689 l 1
 168 689 l 1
 181 750 l 1
 345 750 l 1
 133 -250 l 1
EndSplineSet
Validated: 1
EndChar

StartChar: C
Encoding: 67 67 42
Width: 639
Flags: MW
HStem: -11 64<366.5 403.5> 642 64<494 539>
LayerCount: 2
Fore
SplineSet
597 45 m 1
 563 27 528 9 492 0 c 0
 456 -10 421 -11 386 -11 c 0
 298 -11 225 29 180 94 c 0
 133 163 120 254 140 347 c 0
 160 440 211 531 288 601 c 0
 361 666 450 706 538 706 c 0
 570 706 602 704 631 698 c 0
 662 692 691 682 718 670 c 1
 687 588 l 1
 665 606 640 621 612 630 c 0
 585 639 554 642 524 642 c 0
 459 642 393 607 341 556 c 0
 283 497 245 422 229 347 c 0
 213 272 219 198 253 139 c 0
 283 88 334 53 399 53 c 0
 433 53 468 54 503 65 c 0
 539 75 572 94 605 114 c 1
 597 45 l 1
EndSplineSet
Validated: 33
Position2: "'cpsp' Capital Spacing lookup 0 subtable" dx=7 dy=0 dh=14 dv=0
EndChar

StartChar: c
Encoding: 99 99 43
Width: 444
Flags: MW
HStem: -11 64<222.5 277> 397 64<288 367>
VStem: 83 78<222 222> 354 78
LayerCount: 2
Fore
SplineSet
424 40 m 1
 362 3 304 -11 250 -11 c 0
 125 -11 57 98 83 222 c 0
 108 340 215 461 354 461 c 0
 415 461 447 452 499 418 c 1
 473 353 l 1
 426 389 393 397 341 397 c 0
 235 397 178 301 161 223 c 0
 141 125 181 53 264 53 c 0
 315 53 372 67 432 107 c 1
 424 40 l 1
EndSplineSet
Validated: 33
EndChar

StartChar: colon
Encoding: 58 58 44
Width: 278
Flags: MW
HStem: 0 83<115 180 97 198> 361 83<191 257 174 274>
VStem: 97 83<0 0> 115 83<83 83> 174 83<361 361> 191 83<444 444>
LayerCount: 2
Fore
SplineSet
257 361 m 1x44
 174 361 l 1x48
 191 444 l 1
 274 444 l 1
 257 361 l 1x44
180 0 m 1
 97 0 l 1xa0
 115 83 l 1
 198 83 l 1x90
 180 0 l 1
EndSplineSet
Validated: 1
EndChar

StartChar: comma
Encoding: 44 44 45
Width: 278
Flags: MW
HStem: -125 21G<70 111 70 70> 0 83<115 122 97 198>
VStem: 97 83<0 1> 115 83<83 83>
LayerCount: 2
Fore
SplineSet
180 1 m 1x50
 111 -125 l 1
 70 -125 l 1
 122 0 l 1
 97 0 l 1xe0
 115 83 l 1
 198 83 l 1
 180 1 l 1x50
EndSplineSet
Validated: 1
EndChar

StartChar: D
Encoding: 68 68 46
Width: 722
Flags: MW
HStem: 0 56<194 347 347 359> 638 56<318 471 318 318>
VStem: 651 86<341 341>
LayerCount: 2
Fore
SplineSet
737 341 m 0
 697 152 529 0 359 0 c 2
 96 0 l 1
 244 694 l 1
 506 694 l 2
 678 694 779 535 737 341 c 0
651 341 m 0
 689 517 611 638 471 638 c 2
 318 638 l 1
 194 56 l 1
 347 56 l 2
 487 56 615 171 651 341 c 0
EndSplineSet
Validated: 33
Position2: "'cpsp' Capital Spacing lookup 0 subtable" dx=7 dy=0 dh=14 dv=0
EndChar

StartChar: d
Encoding: 100 100 47
Width: 517
Flags: MW
HStem: -11 61<158.5 273> 78 61 339 61<428 444> 394 61<313.5 328.5 260.5 365.5> 674 20G<507 582 582 582>
VStem: 83 78<222 222> 356 78<0 0> 507 75<694 694>
LayerCount: 2
Fore
SplineSet
434 0 m 1x29
 356 0 l 1
 367 52 l 1
 300 -2 239 -11 206 -11 c 0
 111 -11 55 91 83 222 c 0
 111 351 211 455 310 455 c 0xd6
 347 455 400 444 444 400 c 1
 507 694 l 1
 582 694 l 1
 434 0 l 1x29
386 139 m 2
 428 339 l 1x60
 413 371 388 394 343 394 c 0
 284 394 189 353 161 221 c 0
 135 97 198 50 260 50 c 0
 286 50 312 58 340 78 c 0
 378 107 383 125 386 139 c 2
EndSplineSet
Validated: 33
EndChar

StartChar: dollar
Encoding: 36 36 48
Width: 500
Flags: MW
HStem: -56 21G<209 267 209 209> -11 68 638 68 730 20G<380 438 438 438>
VStem: 209 58<-56 -56> 219 58<-10 -8> 291 73 357 58<638 640> 380 58<750 750>
LayerCount: 2
Fore
SplineSet
484 195 m 0x02
 464 99 381 9 277 -8 c 1x25
 267 -56 l 1
 209 -56 l 1x88
 219 -10 l 1
 128 -1 78 40 56 58 c 1
 83 126 l 1
 125 80 185 59 232 54 c 1
 289 322 l 1
 151 356 156 469 165 513 c 0
 182 593 254 683 370 703 c 1
 380 750 l 1
 438 750 l 1x1480
 429 704 l 1
 471 701 513 691 565 649 c 1
 539 583 l 1
 511 610 476 634 415 640 c 1x01
 364 399 l 1
 473 376 502 278 484 195 c 0x02
309 414 m 1
 357 638 l 1
 296 624 251 576 241 526 c 0
 232 485 245 431 309 414 c 1
409 182 m 0
 421 241 395 293 344 308 c 1
 291 57 l 1x42
 357 75 398 131 409 182 c 0
EndSplineSet
Validated: 33
Substitution2: "'onum' Oldstyle Figures lookup 4 subtable" dollar.oldstyle
Substitution2: "'aalt' Access All Alternates lookup 0 subtable" dollar.oldstyle
EndChar

StartChar: E
Encoding: 69 69 49
Width: 597
Flags: MW
HStem: 0 70<198 407 407 413 198 554> 329 61<266 583 253 596> 626 65<484 490 490 673>
LayerCount: 2
Fore
SplineSet
554 0 m 1
 94 0 l 1
 241 691 l 1
 687 691 l 1
 673 626 l 1
 490 626 l 2
 478 626 466 627 454 627 c 2
 316 627 l 1
 266 390 l 1
 596 390 l 1
 583 329 l 1
 253 329 l 1
 198 70 l 1
 407 70 l 2
 419 70 431 71 443 71 c 2
 569 71 l 1
 554 0 l 1
EndSplineSet
Validated: 1
Position2: "'cpsp' Capital Spacing lookup 0 subtable" dx=7 dy=0 dh=14 dv=0
EndChar

StartChar: e
Encoding: 101 101 50
Width: 444
Flags: MW
HStem: -11 61<223 274.5 223 280.5> 219 55<168 415 168 461 152 415> 400 61<292.5 347>
LayerCount: 2
Fore
SplineSet
461 219 m 1
 152 219 l 1
 134 121 183 50 263 50 c 0
 286 50 352 54 427 106 c 1
 419 41 l 1
 374 13 312 -11 249 -11 c 0
 129 -11 55 94 83 226 c 0
 110 355 223 461 334 461 c 0
 370 461 429 450 456 388 c 0
 483 328 468 253 461 219 c 1
415 274 m 1
 422 366 373 400 321 400 c 0
 264 400 200 350 168 274 c 1
 415 274 l 1
EndSplineSet
Validated: 33
EndChar

StartChar: eight
Encoding: 56 56 51
Width: 500
Flags: MW
HStem: -22 61<223.5 290 223.5 303.5> 324 61<293.5 347> 620 58<344 420.5>
VStem: 80 81<180 180> 163 81 414 81<181 181>
LayerCount: 2
Fore
SplineSet
495 180 m 0
 473 74 363 -22 244 -22 c 0
 129 -22 57 71 80 180 c 0
 99 267 177 330 254 355 c 1
 172 384 152 450 163 503 c 0
 182 595 282 678 394 678 c 0
 502 678 570 597 550 503 c 0
 539 450 491 384 395 355 c 1
 458 332 515 271 495 180 c 0
480 503 m 0
 494 568 460 620 381 620 c 0
 307 620 248 572 233 503 c 0
 218 434 255 385 332 385 c 0
 404 385 465 431 480 503 c 0
414 181 m 0
 436 284 376 324 318 324 c 0
 264 324 184 286 161 181 c 0
 141 87 189 39 258 39 c 0
 322 39 394 84 414 181 c 0
EndSplineSet
Validated: 33
Substitution2: "'pnum' Proportional Numbers lookup 6 subtable" eight.prop
Substitution2: "'onum' Oldstyle Figures lookup 4 subtable" eight.oldstyle
AlternateSubs2: "'aalt' Access All Alternates lookup 1 subtable" eight.oldstyle eight.prop
EndChar

StartChar: equal
Encoding: 61 61 52
Width: 778
Flags: MW
HStem: 130 40<110 723 126 716> 330 40<152.5 767 168 757>
VStem: 88 665<150 150> 130 665<350 350>
LayerCount: 2
Fore
SplineSet
795 350 m 0xd0
 791 330 772 330 757 330 c 2
 160 330 l 2
 145 330 126 330 130 350 c 0
 135 370 154 370 168 370 c 2
 767 370 l 2
 781 370 800 370 795 350 c 0xd0
753 150 m 0
 749 130 730 130 716 130 c 2
 117 130 l 2
 103 130 84 130 88 150 c 0xa0
 92 170 111 170 126 170 c 2
 723 170 l 2
 738 170 757 170 753 150 c 0
EndSplineSet
Validated: 33
EndChar

StartChar: exclam
Encoding: 33 33 53
Width: 319
Flags: MW
HStem: 0 83<136 201 118 219> 175 21G<163 230 163 163> 674 20G<266 349 349 349>
VStem: 118 83<0 0> 136 83<83 83> 266 83<694 694>
LayerCount: 2
Fore
SplineSet
349 694 m 1xec
 239 218 l 1
 230 175 l 1
 163 175 l 1
 172 218 l 1
 266 694 l 1
 349 694 l 1xec
201 0 m 1
 118 0 l 1x90
 136 83 l 1
 219 83 l 1
 201 0 l 1
EndSplineSet
Validated: 1
EndChar

StartChar: F
Encoding: 70 70 54
Width: 569
Flags: MW
HStem: 0 21G<94 183 94 94> 315 61<263 552 250 565> 626 68
VStem: 94 89<0 0>
LayerCount: 2
Fore
SplineSet
659 626 m 1
 483 626 l 2
 471 626 459 627 447 627 c 2
 316 627 l 1
 263 376 l 1
 565 376 l 1
 552 315 l 1
 250 315 l 1
 183 0 l 1
 94 0 l 1
 241 691 l 1
 673 691 l 1
 659 626 l 1
EndSplineSet
Validated: 1
Position2: "'cpsp' Capital Spacing lookup 0 subtable" dx=7 dy=0 dh=14 dv=0
EndChar

StartChar: f
Encoding: 102 102 55
Width: 306
Flags: MW
HStem: 0 21G<101 176 101 101> 386 58<121 183 109 195 267 368> 644 61<390 413>
VStem: 101 75<0 0> 183 75<386 386> 293 75
LayerCount: 2
Fore
SplineSet
480 627 m 1
 449 642 423 644 403 644 c 0
 377 644 308 637 293 563 c 2
 267 444 l 1
 380 444 l 1
 368 386 l 1
 258 386 l 1
 176 0 l 1
 101 0 l 1
 183 386 l 1
 109 386 l 1
 121 444 l 1
 195 444 l 1
 215 534 l 2
 236 634 323 705 417 705 c 0
 454 705 483 697 495 694 c 1
 480 627 l 1
EndSplineSet
Validated: 1
EndChar

StartChar: five
Encoding: 53 53 56
Width: 500
Flags: MW
HStem: -22 61<203.5 241.5 203.5 284.5> 366 61<331 360.5> 592 64<279 542 279 279>
VStem: 279 72
LayerCount: 2
Fore
SplineSet
492 203 m 0
 465 77 344 -22 225 -22 c 0
 144 -22 84 19 55 76 c 1
 100 132 l 1
 118 78 170 39 237 39 c 0
 246 39 368 39 404 205 c 0
 429 325 384 366 337 366 c 0
 279 366 234 327 208 287 c 1
 142 287 l 1
 220 656 l 1
 555 656 l 1
 542 592 l 1
 279 592 l 1
 235 386 l 1
 270 412 311 427 351 427 c 0
 454 427 519 328 492 203 c 0
EndSplineSet
Validated: 33
Substitution2: "'pnum' Proportional Numbers lookup 6 subtable" five.prop
Substitution2: "'onum' Oldstyle Figures lookup 4 subtable" five.oldstyle
AlternateSubs2: "'aalt' Access All Alternates lookup 1 subtable" five.oldstyle five.prop
EndChar

StartChar: four
Encoding: 52 52 57
Width: 500
Flags: MW
HStem: 0 21G<293 372 293 293> 171 61<77 77 155 329 64 77 421 507> 636 20G<420 511 511 511>
VStem: 348 73<232 232>
LayerCount: 2
Fore
SplineSet
507 171 m 1
 408 171 l 1
 372 0 l 1
 293 0 l 1
 329 171 l 1
 64 171 l 1
 77 232 l 1
 420 656 l 1
 511 656 l 1
 421 232 l 1
 520 232 l 1
 507 171 l 1
348 232 m 1
 429 612 l 2
 416 555 226 318 155 232 c 1
 348 232 l 1
EndSplineSet
Validated: 1
Substitution2: "'pnum' Proportional Numbers lookup 6 subtable" four.prop
Substitution2: "'onum' Oldstyle Figures lookup 4 subtable" four.oldstyle
AlternateSubs2: "'aalt' Access All Alternates lookup 1 subtable" four.oldstyle four.prop
EndChar

StartChar: G
Encoding: 71 71 58
Width: 667
Flags: MW
HStem: -11 64<366.5 421.5 366.5 422.5> 239 61<452 571 439 662> 642 64<494.5 541>
LayerCount: 2
Fore
SplineSet
606 38 m 1
 534 6 459 -11 386 -11 c 0
 299 -11 225 29 180 94 c 0
 133 163 120 254 140 347 c 0
 160 440 211 531 288 601 c 0
 361 666 451 706 538 706 c 0
 573 706 607 703 640 695 c 0
 672 686 702 673 729 656 c 1
 697 574 l 1
 676 596 651 615 620 626 c 0
 591 638 558 642 524 642 c 0
 459 642 393 607 341 556 c 0
 283 497 245 422 229 347 c 0
 213 272 219 198 253 139 c 0
 283 88 334 53 399 53 c 0
 444 53 491 60 536 74 c 1
 571 239 l 1
 439 239 l 1
 452 300 l 1
 662 300 l 1
 606 38 l 1
EndSplineSet
Validated: 33
Position2: "'cpsp' Capital Spacing lookup 0 subtable" dx=7 dy=0 dh=14 dv=0
EndChar

StartChar: g
Encoding: 103 103 59
Width: 500
Flags: MW
HStem: -206 57<177.5 259 177.5 266.5> -3 72<136 280 192 265> 129 57<242.5 282.5 242.5 293> 398 57<287.5 327.5>
VStem: 13 70<4.29497e+09 4.29497e+09> 124 70<292 292> 248 70 373 70<292 292> 386 70
LayerCount: 2
Fore
SplineSet
568 392 m 1xfe80
 568 392 528 395 510 395 c 0
 486 395 457 391 435 391 c 1
 431 392 l 1
 439 377 453 340 443 292 c 0xfd
 424 203 338 129 248 129 c 0
 211 129 181 143 164 158 c 1
 155 149 147 133 145 122 c 0
 134 69 179 69 192 69 c 2
 280 69 l 2
 319 69 486 69 456 -70 c 0
 440 -147 328 -206 205 -206 c 0
 83 -206 -3 -146 13 -71 c 0
 18 -45 40 1 99 32 c 1
 86 53 83 82 89 108 c 0
 90 113 98 152 136 193 c 1
 122 219 116 255 124 292 c 0
 143 383 232 455 318 455 c 0
 358 455 389 440 406 423 c 1
 439 436 501 455 571 455 c 1
 568 392 l 1xfe80
373 292 m 0
 390 370 349 398 306 398 c 0
 269 398 212 375 194 292 c 0
 176 209 224 186 261 186 c 0
 304 186 356 214 373 292 c 0
386 -72 m 0
 400 -3 287 -3 265 -3 c 2
 175 -3 l 2
 97 -3 84 -68 83 -71 c 0
 73 -118 137 -149 218 -149 c 0
 300 -149 376 -116 386 -72 c 0
EndSplineSet
Validated: 33
EndChar

StartChar: grave
Encoding: 96 96 60
Width: 500
Flags: MW
HStem: 527 21G<371 432 371 371> 674 20G<257 335 335 335>
LayerCount: 2
Fore
SplineSet
432 527 m 1
 371 527 l 1
 257 694 l 1
 335 694 l 1
 432 527 l 1
EndSplineSet
Validated: 1
EndChar

StartChar: greater
Encoding: 62 62 61
Width: 778
Flags: W
LayerCount: 2
Fore
SplineSet
747 250 m 0
 745 238 736 233 723 228 c 2
 114 -33 l 2
 99 -40 97 -40 94 -40 c 0
 83 -40 76 -31 79 -20 c 0
 81 -11 87 -5 102 2 c 2
 680 250 l 1
 208 498 l 2
 195 505 192 511 194 520 c 0
 196 531 207 540 218 540 c 0
 221 540 223 540 234 533 c 2
 733 272 l 2
 743 267 750 262 747 250 c 0
EndSplineSet
Validated: 1
EndChar

StartChar: H
Encoding: 72 72 62
Width: 708
Flags: MW
HStem: 0 21G<94 183 94 94 524 613 524 524> 330 61<266 594 253 607> 674 20G<242 331 331 331 672 761 761 761>
VStem: 94 89<0 0> 242 89<694 694> 524 89<0 0> 672 89<694 694>
LayerCount: 2
Fore
SplineSet
613 0 m 1
 524 0 l 1
 594 330 l 1
 253 330 l 1
 183 0 l 1
 94 0 l 1
 242 694 l 1
 331 694 l 1
 266 391 l 1
 607 391 l 1
 672 694 l 1
 761 694 l 1
 613 0 l 1
EndSplineSet
Validated: 1
Position2: "'cpsp' Capital Spacing lookup 0 subtable" dx=7 dy=0 dh=14 dv=0
EndChar

StartChar: h
Encoding: 104 104 63
Width: 517
Flags: MW
HStem: 0 21G<81 159 81 81 357 435 357 357> 394 61<364 392> 674 20G<229 304 304 304>
VStem: 81 78<0 0> 159 78 229 75<694 694> 344 75 357 78<0 0>
LayerCount: 2
Fore
SplineSet
435 0 m 1x48
 357 0 l 1x81
 419 291 l 2
 426 323 440 394 344 394 c 0
 268 394 225 311 211 245 c 2
 159 0 l 1
 81 0 l 1
 229 694 l 1
 304 694 l 1xf6
 237 383 l 1
 278 424 333 455 395 455 c 0
 517 455 512 364 498 298 c 2
 435 0 l 1x48
EndSplineSet
Validated: 33
EndChar

StartChar: hyphen
Encoding: 45 45 64
Width: 333
Flags: MW
HStem: 193 58<64 317 52 329>
VStem: 52 265<193 193> 64 265<251 251>
LayerCount: 2
Fore
SplineSet
317 193 m 1xa0
 52 193 l 1xc0
 64 251 l 1
 329 251 l 1
 317 193 l 1xa0
EndSplineSet
Validated: 1
EndChar

StartChar: I
Encoding: 73 73 65
Width: 278
Flags: MW
HStem: 0 21G<94 183 94 94> 674 20G<242 331 331 331>
VStem: 94 89<0 0> 242 89<694 694>
LayerCount: 2
Fore
SplineSet
183 0 m 1
 94 0 l 1
 242 694 l 1
 331 694 l 1
 183 0 l 1
EndSplineSet
Validated: 1
Position2: "'cpsp' Capital Spacing lookup 0 subtable" dx=7 dy=0 dh=14 dv=0
EndChar

StartChar: i
Encoding: 105 105 66
Width: 239
Flags: MW
HStem: 0 21G<81 156 81 81> 424 20G<175 250 250 250> 566 89<214 284 195 303>
VStem: 81 75<0 0> 175 75<444 444> 195 89<566 566> 214 89<655 655>
LayerCount: 2
Fore
SplineSet
156 0 m 1xd8
 81 0 l 1
 175 444 l 1
 250 444 l 1
 156 0 l 1xd8
284 566 m 1x22
 195 566 l 1x24
 214 655 l 1
 303 655 l 1
 284 566 l 1x22
EndSplineSet
Validated: 1
EndChar

StartChar: J
Encoding: 74 74 67
Width: 472
Flags: MW
HStem: -22 61<171 251 171 259.5> 674 20G<450 536 536 536>
VStem: 334 86<149 152> 450 86<694 694>
LayerCount: 2
Fore
SplineSet
420 149 m 2
 396 36 311 -22 208 -22 c 0
 124 -22 68 8 46 20 c 1
 76 95 l 1
 102 57 150 39 192 39 c 0
 310 39 331 135 334 152 c 2
 450 694 l 1
 536 694 l 1
 420 149 l 2
EndSplineSet
Validated: 1
Position2: "'cpsp' Capital Spacing lookup 0 subtable" dx=7 dy=0 dh=14 dv=0
EndChar

StartChar: j
Encoding: 106 106 68
Width: 267
Flags: MW
HStem: -205 64<2 13 -10 46.5> 424 20G<203 278 278 278> 566 89<234 304 215 323>
VStem: 203 75<444 444> 215 89<566 566> 234 89<655 655>
LayerCount: 2
Fore
SplineSet
171 -59 m 2xd0
 151 -153 78 -205 15 -205 c 0
 -11 -205 -55 -199 -97 -171 c 1
 -63 -110 l 1
 -46 -131 -24 -141 4 -141 c 0
 22 -141 80 -136 94 -69 c 2
 203 444 l 1
 278 444 l 1
 171 -59 l 2xd0
304 566 m 1x24
 215 566 l 1x28
 234 655 l 1
 323 655 l 1
 304 566 l 1x24
EndSplineSet
Validated: 1
EndChar

StartChar: K
Encoding: 75 75 69
Width: 694
Flags: MW
HStem: 0 21G<96 181 96 96 559 651 559 559> 674 20G<244 329 329 329 692 785 785 785>
VStem: 96 85<0 0> 244 85<694 694>
LayerCount: 2
Fore
SplineSet
651 0 m 1
 559 0 l 1
 391 364 l 1
 229 227 l 1
 181 0 l 1
 96 0 l 1
 244 694 l 1
 329 694 l 1
 250 323 l 1
 692 694 l 1
 785 694 l 1
 458 420 l 1
 651 0 l 1
EndSplineSet
Validated: 1
Position2: "'cpsp' Capital Spacing lookup 0 subtable" dx=7 dy=0 dh=14 dv=0
EndChar

StartChar: k
Encoding: 107 107 70
Width: 489
Flags: MW
HStem: 0 21G<84 153 84 84 389 471 389 389> 674 20G<232 304 304 304>
VStem: 232 72<694 694> 471 72
LayerCount: 2
Fore
SplineSet
471 0 m 1
 389 0 l 1
 281 224 l 1
 183 141 l 1
 153 0 l 1
 84 0 l 1
 232 694 l 1
 304 694 l 1
 206 236 l 1
 453 444 l 1
 543 444 l 1
 339 272 l 1
 471 0 l 1
EndSplineSet
Validated: 1
EndChar

StartChar: L
Encoding: 76 76 71
Width: 542
Flags: MW
HStem: 0 64<197 246 197 499> 674 20G<242 331 331 331>
VStem: 242 89<694 694>
LayerCount: 2
Fore
SplineSet
499 0 m 1
 94 0 l 1
 242 694 l 1
 331 694 l 1
 197 64 l 1
 246 64 l 1
 513 66 l 1
 499 0 l 1
EndSplineSet
Validated: 1
Position2: "'cpsp' Capital Spacing lookup 0 subtable" dx=7 dy=0 dh=14 dv=0
EndChar

StartChar: l
Encoding: 108 108 72
Width: 239
Flags: MW
HStem: 0 21G<81 156 81 81> 674 20G<229 304 304 304>
VStem: 81 75<0 0> 229 75<694 694>
LayerCount: 2
Fore
SplineSet
156 0 m 1
 81 0 l 1
 229 694 l 1
 304 694 l 1
 156 0 l 1
EndSplineSet
Validated: 1
EndChar

StartChar: less
Encoding: 60 60 73
Width: 778
Flags: W
LayerCount: 2
Fore
SplineSet
690 -20 m 0
 687 -31 676 -40 665 -40 c 0
 662 -40 660 -40 649 -33 c 2
 150 228 l 2
 141 233 134 238 136 250 c 0
 139 262 148 267 160 272 c 2
 769 533 l 2
 784 540 786 540 789 540 c 0
 800 540 807 531 805 520 c 0
 802 509 794 504 781 498 c 2
 203 250 l 1
 675 2 l 2
 686 -4 692 -9 690 -20 c 0
EndSplineSet
Validated: 1
EndChar

StartChar: M
Encoding: 77 77 74
Width: 875
Flags: MW
HStem: 0 21G<100 178 100 100 696 774 696 696> 674 20G<248 361 361 361 808 922 922 922>
VStem: 100 78<0 0> 696 78<0 0>
LayerCount: 2
Fore
SplineSet
774 0 m 1
 696 0 l 1
 828 620 l 1
 827 621 l 1
 817 598 775 526 759 497 c 2
 684 370 l 1
 477 22 l 1
 404 22 l 1
 338 411 l 2
 327 479 310 588 311 620 c 1
 310 620 l 1
 178 0 l 1
 100 0 l 1
 248 694 l 1
 361 694 l 1
 376 607 l 1
 445 193 l 2
 451 151 455 114 456 93 c 1
 457 93 l 1
 478 140 551 264 605 355 c 2
 808 694 l 1
 922 694 l 1
 774 0 l 1
EndSplineSet
Validated: 33
Position2: "'cpsp' Capital Spacing lookup 0 subtable" dx=7 dy=0 dh=14 dv=0
EndChar

StartChar: m
Encoding: 109 109 75
Width: 794
Flags: MW
HStem: 0 21G<81 159 81 81 358 436 358 358 635 713 635 635> 394 61<360 390.5 643 667.5>
VStem: 81 78<0 0> 358 78<0 0> 635 78<0 0>
CounterMasks: 1 38
LayerCount: 2
Fore
SplineSet
713 0 m 1
 635 0 l 1
 697 291 l 2
 705 329 714 394 621 394 c 0
 547 394 503 313 488 245 c 2
 436 0 l 1
 358 0 l 1
 420 291 l 2
 428 329 437 394 344 394 c 0
 270 394 226 313 211 245 c 2
 159 0 l 1
 81 0 l 1
 177 450 l 1
 249 450 l 1
 233 378 l 1
 268 414 324 455 396 455 c 0
 428 455 496 449 506 373 c 1
 555 427 613 455 673 455 c 0
 794 455 791 365 776 298 c 2
 713 0 l 1
EndSplineSet
Validated: 33
EndChar

StartChar: N
Encoding: 78 78 76
Width: 708
Flags: MW
HStem: 0 21G<96 174 96 96 487 611 487 487> 674 20G<244 368 368 368 681 759 759 759>
VStem: 96 78<0 0> 681 78<694 694>
LayerCount: 2
Fore
SplineSet
611 0 m 1
 487 0 l 1
 345 486 l 1
 307 623 l 1
 306 623 l 1
 174 0 l 1
 96 0 l 1
 244 694 l 1
 368 694 l 1
 509 208 l 1
 547 71 l 1
 548 71 l 1
 681 694 l 1
 759 694 l 1
 611 0 l 1
EndSplineSet
Validated: 1
Position2: "'cpsp' Capital Spacing lookup 0 subtable" dx=7 dy=0 dh=14 dv=0
EndChar

StartChar: n
Encoding: 110 110 77
Width: 517
Flags: MW
HStem: 0 21G<81 159 81 81 357 435 357 357> 394 61<350 392>
VStem: 81 78<0 0> 357 78<0 0>
LayerCount: 2
Fore
SplineSet
435 0 m 1
 357 0 l 1
 419 291 l 2
 426 323 440 394 344 394 c 0
 268 394 225 311 211 245 c 2
 159 0 l 1
 81 0 l 1
 177 450 l 1
 249 450 l 1
 234 379 l 1
 241 387 305 455 395 455 c 0
 517 455 512 364 498 298 c 2
 435 0 l 1
EndSplineSet
Validated: 33
EndChar

StartChar: nine
Encoding: 57 57 78
Width: 500
Flags: MW
HStem: -22 61<197 253.5 197 265.5> 194 61<273.5 276> 277 58 620 58<362 434>
VStem: 134 82<434 434>
LayerCount: 2
Fore
SplineSet
528 335 m 0
 482 117 331 -22 200 -22 c 0
 138 -22 106 -1 77 24 c 1
 119 77 l 1
 149 47 180 39 214 39 c 0
 293 39 387 116 432 277 c 1
 377 223 307 194 245 194 c 0
 149 194 107 306 134 434 c 0
 143 477 159 543 237 611 c 0
 280 648 327 678 397 678 c 0
 482 678 588 615 528 335 c 0
458 411 m 0
 460 418 462 428 462 435 c 0
 471 484 483 620 385 620 c 0
 333 620 299 592 273 563 c 0
 235 519 226 478 216 434 c 0
 207 391 200 354 214 315 c 0
 227 278 250 255 297 255 c 0
 376 255 441 329 458 411 c 0
EndSplineSet
Validated: 33
Substitution2: "'pnum' Proportional Numbers lookup 6 subtable" nine.prop
Substitution2: "'onum' Oldstyle Figures lookup 4 subtable" nine.oldstyle
AlternateSubs2: "'aalt' Access All Alternates lookup 1 subtable" nine.oldstyle nine.prop
EndChar

StartChar: numbersign
Encoding: 35 35 79
Width: 833
Flags: MW
HStem: -194 21G<140.5 154 369.5 383> 130 40<110 296 126 276 337 505 126 317 566 771> 330 40<152.5 393 168 372 168 413 434 601 663 812> 674 20G<556 569.5 785 798.5>
VStem: 88 720<150 150> 130 720<350 350>
LayerCount: 2
Fore
SplineSet
808 150 m 0x64
 804 130 785 130 771 130 c 2
 546 130 l 1
 402 -170 l 2
 397 -181 391 -194 375 -194 c 0
 364 -194 357 -185 359 -174 c 0
 360 -170 365 -158 367 -156 c 2
 505 130 l 1
 317 130 l 1
 173 -170 l 2
 168 -181 162 -194 146 -194 c 0
 135 -194 128 -185 130 -174 c 0xc4
 131 -170 136 -158 138 -156 c 2
 276 130 l 1
 117 130 l 2
 103 130 84 130 88 150 c 0x48
 92 170 111 170 126 170 c 2
 296 170 l 1
 372 330 l 1
 160 330 l 2
 145 330 126 330 130 350 c 0x64
 135 370 154 370 168 370 c 2
 393 370 l 1
 536 670 l 2
 542 681 548 694 564 694 c 0
 575 694 582 685 579 674 c 0
 578 670 573 658 571 656 c 2
 434 370 l 1
 622 370 l 1
 765 670 l 2
 771 681 777 694 793 694 c 0
 804 694 811 685 808 674 c 0x38
 807 670 802 658 800 656 c 2
 663 370 l 1
 822 370 l 2
 836 370 855 370 850 350 c 0
 846 330 827 330 812 330 c 2
 642 330 l 1
 566 170 l 1
 778 170 l 2
 793 170 812 170 808 150 c 0x64
601 330 m 1
 413 330 l 1
 337 170 l 1
 525 170 l 1
 601 330 l 1
EndSplineSet
Validated: 33
EndChar

StartChar: O
Encoding: 79 79 80
Width: 736
Flags: MW
HStem: -22 65<318 434 318 445.5> 652 64<450 564>
LayerCount: 2
Fore
SplineSet
752 345 m 0
 708 135 529 -22 362 -22 c 0
 199 -22 84 133 129 345 c 0
 174 553 350 716 520 716 c 0
 686 716 797 555 752 345 c 0
667 360 m 0
 705 539 622 652 506 652 c 0
 394 652 260 543 222 360 c 0
 181 168 259 43 377 43 c 0
 491 43 625 165 667 360 c 0
EndSplineSet
Validated: 33
Position2: "'cpsp' Capital Spacing lookup 0 subtable" dx=7 dy=0 dh=14 dv=0
EndChar

StartChar: o
Encoding: 111 111 81
Width: 500
Flags: MW
HStem: -11 64<225.5 297 225.5 307> 400 61<301.5 369>
LayerCount: 2
Fore
SplineSet
516 220 m 0
 488 90 367 -11 247 -11 c 0
 130 -11 49 88 77 220 c 0
 105 351 225 461 348 461 c 0
 467 461 544 354 516 220 c 0
440 230 m 0
 465 348 404 400 334 400 c 0
 269 400 183 351 157 230 c 0
 131 109 191 53 260 53 c 0
 334 53 415 112 440 230 c 0
EndSplineSet
Validated: 33
EndChar

StartChar: one
Encoding: 49 49 82
Width: 500
Flags: MW
HStem: 0 58<107 232 311 424 95 232> 554 58<207 219> 658 20G<423 443 443 443>
VStem: 232 79<58 58>
LayerCount: 2
Fore
SplineSet
424 0 m 1
 95 0 l 1
 107 58 l 1
 232 58 l 1
 343 578 l 1
 288 557 240 555 207 554 c 1
 219 612 l 1
 268 614 351 617 423 678 c 1
 443 678 l 1
 311 58 l 1
 436 58 l 1
 424 0 l 1
EndSplineSet
Validated: 1
Substitution2: "'pnum' Proportional Numbers lookup 6 subtable" one.prop
Substitution2: "'onum' Oldstyle Figures lookup 4 subtable" one.oldstyle
AlternateSubs2: "'aalt' Access All Alternates lookup 1 subtable" one.oldstyle one.prop
EndChar

StartChar: P
Encoding: 80 80 83
Width: 639
Flags: MW
HStem: 0 21G<96 185 96 96> 289 58<256 397 397 413 246 397> 638 56<318 459 318 318>
VStem: 606 81<492 492>
LayerCount: 2
Fore
SplineSet
687 492 m 0
 663 380 537 289 413 289 c 2
 246 289 l 1
 185 0 l 1
 96 0 l 1
 244 694 l 1
 493 694 l 2
 631 694 709 599 687 492 c 0
606 492 m 0
 624 577 569 638 459 638 c 2
 318 638 l 1
 256 347 l 1
 397 347 l 2
 512 347 589 413 606 492 c 0
EndSplineSet
Validated: 33
Position2: "'cpsp' Capital Spacing lookup 0 subtable" dx=7 dy=0 dh=14 dv=0
EndChar

StartChar: p
Encoding: 112 112 84
Width: 517
Flags: MW
HStem: -194 21G<41 119 41 41> -11 61<263 304.5 247.5 341.5> 391 64<327.5 466>
VStem: 41 78<-194 -194> 449 78<223 223>
LayerCount: 2
Fore
SplineSet
527 223 m 0
 498 87 390 -11 293 -11 c 0
 233 -11 195 17 170 46 c 1
 119 -194 l 1
 41 -194 l 1
 176 444 l 1
 251 444 l 1
 241 395 l 1
 295 434 358 455 418 455 c 0
 514 455 553 343 527 223 c 0
449 223 m 0
 469 315 425 391 349 391 c 0
 306 391 262 368 231 333 c 1
 188 132 l 2
 184 114 184 112 191 97 c 0
 205 70 228 50 267 50 c 0
 342 50 428 120 449 223 c 0
EndSplineSet
Validated: 33
EndChar

StartChar: parenleft
Encoding: 40 40 85
Width: 389
Flags: MW
HStem: -250 21G<218 279 218 218> 730 20G<430 491 491 491>
VStem: 132 78<250 250>
LayerCount: 2
Fore
SplineSet
279 -250 m 1
 218 -250 l 1
 179 -206 63 -73 132 250 c 0
 148 323 177 429 240 536 c 0
 312 659 392 720 430 750 c 1
 491 750 l 1
 451 717 382 657 316 541 c 0
 250 423 222 306 210 250 c 0
 141 -73 241 -202 279 -250 c 1
EndSplineSet
Validated: 33
EndChar

StartChar: parenright
Encoding: 41 41 86
Width: 389
Flags: MW
HStem: -250 21G<3 64 3 3> 730 20G<215 276 276 276>
VStem: 284 78<250 250>
LayerCount: 2
Fore
SplineSet
362 250 m 0
 347 177 317 71 254 -36 c 0
 182 -159 102 -220 64 -250 c 1
 3 -250 l 1
 43 -217 113 -157 178 -41 c 0
 244 77 272 194 284 250 c 0
 353 573 253 702 215 750 c 1
 276 750 l 1
 315 706 431 573 362 250 c 0
EndSplineSet
Validated: 33
EndChar

StartChar: percent
Encoding: 37 37 87
Width: 833
Flags: MW
HStem: -56 61<634.5 659.5 634.5 662.5> 286 122 689 61<335 362>
VStem: 208 75 530 75<146 146> 738 69<146 146>
CounterMasks: 1 e0
LayerCount: 2
Fore
SplineSet
449 548 m 0
 425 432 341 347 270 347 c 0
 199 347 147 429 173 549 c 0
 198 666 282 750 355 750 c 0
 425 750 475 668 449 548 c 0
814 730 m 0
 813 726 813 724 802 712 c 2
 208 -40 l 2
 202 -49 195 -56 184 -56 c 0
 174 -56 166 -47 168 -36 c 0
 170 -29 179 -18 179 -18 c 1
 774 734 l 2
 779 740 786 750 798 750 c 0
 809 750 817 741 814 730 c 0
807 145 m 0
 782 29 698 -56 627 -56 c 0
 556 -56 505 26 530 146 c 0
 555 263 640 347 713 347 c 0
 783 347 832 265 807 145 c 0
381 549 m 0
 396 622 382 689 342 689 c 0
 328 689 276 681 247 548 c 0
 218 411 272 408 283 408 c 0
 322 408 364 472 381 549 c 0
738 146 m 0
 754 219 740 286 700 286 c 0
 686 286 633 278 605 145 c 0
 576 8 629 5 640 5 c 0
 679 5 722 69 738 146 c 0
EndSplineSet
Validated: 33
EndChar

StartChar: period
Encoding: 46 46 88
Width: 278
Flags: MW
HStem: 0 83<115 180 97 198>
VStem: 97 83<0 0> 115 83<83 83>
LayerCount: 2
Fore
SplineSet
180 0 m 1xa0
 97 0 l 1xc0
 115 83 l 1
 198 83 l 1
 180 0 l 1xa0
EndSplineSet
Validated: 1
EndChar

StartChar: plus
Encoding: 43 43 89
Width: 778
Flags: MW
HStem: -83 21G<361 381> 230 40<131 426 146 418 466 737 146 458> 563 20G<503 523>
VStem: 358 40<-50 -50> 418 40<230 230> 426 40<270 270> 486 40<550 550>
LayerCount: 2
Fore
SplineSet
774 250 m 0x66
 770 230 751 230 737 230 c 2
 458 230 l 1
 398 -50 l 2
 395 -64 391 -83 371 -83 c 0
 351 -83 355 -64 358 -50 c 2
 418 230 l 1xd8
 138 230 l 2
 124 230 105 230 109 250 c 0
 113 270 132 270 146 270 c 2
 426 270 l 1
 486 550 l 2
 489 564 493 583 513 583 c 0
 533 583 529 564 526 550 c 2
 466 270 l 1
 745 270 l 2
 759 270 778 270 774 250 c 0x66
EndSplineSet
Validated: 33
EndChar

StartChar: Q
Encoding: 81 81 90
Width: 736
Flags: MW
HStem: -125 21G<522 625 522 522> -22 64<318 370> 652 64<448 566>
VStem: 129 86<345 345> 666 86<345 345>
LayerCount: 2
Fore
SplineSet
752 345 m 0
 730 240 667 118 540 33 c 1
 625 -125 l 1
 522 -125 l 1
 462 -4 l 1
 416 -21 378 -22 362 -22 c 0
 199 -22 84 133 129 345 c 0
 174 553 350 716 520 716 c 0
 686 716 797 555 752 345 c 0
666 345 m 0
 706 530 626 652 506 652 c 0
 390 652 255 532 215 345 c 0
 176 159 259 42 377 42 c 0
 406 42 435 51 435 51 c 1
 364 194 l 1
 453 194 l 1
 510 89 l 1
 617 171 653 280 666 345 c 0
EndSplineSet
Validated: 33
Position2: "'cpsp' Capital Spacing lookup 0 subtable" dx=7 dy=0 dh=14 dv=0
EndChar

StartChar: q
Encoding: 113 113 91
Width: 517
Flags: MW
HStem: -194 21G<315 393 315 315> -11 61<223 231> 391 64<305.5 358 269 376.5>
VStem: 83 78<221 221> 315 78<-194 -194>
LayerCount: 2
Fore
SplineSet
393 -194 m 1
 315 -194 l 1
 367 50 l 1
 317 12 259 -11 203 -11 c 0
 107 -11 56 94 83 221 c 0
 112 356 219 455 319 455 c 0
 397 455 434 400 441 387 c 1
 456 455 l 1
 531 455 l 1
 393 -194 l 1
389 140 m 2
 419 280 l 2
 427 320 411 391 342 391 c 0
 269 391 183 323 161 221 c 0
 141 128 185 50 261 50 c 0
 297 50 337 67 372 107 c 0
 385 120 385 122 389 140 c 2
EndSplineSet
Validated: 33
EndChar

StartChar: question
Encoding: 63 63 92
Width: 472
Flags: MW
HStem: 0 83<198 263 180 281> 175 21G<225 292 225 225> 644 61<343.5 384.5>
VStem: 225 67<175 175> 454 78<551 551>
LayerCount: 2
Fore
SplineSet
532 550 m 0
 517 478 472 446 449 430 c 0
 368 372 318 298 304 229 c 2
 292 175 l 1
 225 175 l 1
 232 207 l 2
 241 250 268 378 403 475 c 0
 419 487 445 506 454 551 c 0
 472 636 408 644 361 644 c 0
 289 644 233 611 204 589 c 1
 195 652 l 1
 255 688 313 705 374 705 c 0
 525 705 546 618 532 550 c 0
263 0 m 1
 180 0 l 1
 198 83 l 1
 281 83 l 1
 263 0 l 1
EndSplineSet
Validated: 33
EndChar

StartChar: quotedbl
Encoding: 34 34 93
Width: 434
Flags: MW
HStem: 430 21G<191 269 191 191 347 347 347 425> 696 20G<252 330 330 330 408 486 486 486>
LayerCount: 2
Fore
SplineSet
269 430 m 1
 191 430 l 1
 252 716 l 1
 330 716 l 1
 269 430 l 1
425 430 m 1
 347 430 l 1
 408 716 l 1
 486 716 l 1
 425 430 l 1
EndSplineSet
Validated: 1
EndChar

StartChar: quotesingle
Encoding: 39 39 94
Width: 278
Flags: MW
HStem: 430 21G<191 269 191 191> 696 20G<252 330 330 330>
VStem: 191 78<430 430> 252 78<716 716>
LayerCount: 2
Fore
SplineSet
269 430 m 1x50
 191 430 l 1xa0
 252 716 l 1
 330 716 l 1
 269 430 l 1x50
EndSplineSet
Validated: 1
EndChar

StartChar: R
Encoding: 82 82 95
Width: 646
Flags: MW
HStem: 0 21G<96 182 96 96 528 617 528 528> 317 61<262 406 406 407 249 406> 638 56<318 462 318 318>
VStem: 96 86<0 0> 407 81<317 326> 616 81<508 508>
LayerCount: 2
Fore
SplineSet
617 0 m 1
 528 0 l 1
 407 317 l 1
 249 317 l 1
 182 0 l 1
 96 0 l 1
 244 694 l 1
 485 694 l 2
 628 694 718 607 697 508 c 0
 680 427 598 356 488 326 c 1
 617 0 l 1
616 508 m 0
 631 579 578 638 462 638 c 2
 318 638 l 1
 262 378 l 1
 406 378 l 2
 524 378 601 437 616 508 c 0
EndSplineSet
Validated: 33
Position2: "'cpsp' Capital Spacing lookup 0 subtable" dx=7 dy=0 dh=14 dv=0
EndChar

StartChar: r
Encoding: 114 114 96
Width: 342
Flags: MW
HStem: 0 21G<82 157 82 82> 435 20G<424 424>
VStem: 82 75<0 0>
LayerCount: 2
Fore
SplineSet
409 388 m 1
 311 386 224 314 202 214 c 2
 157 0 l 1
 82 0 l 1
 178 450 l 1
 248 450 l 1
 228 359 l 1
 269 405 334 454 424 455 c 1
 409 388 l 1
EndSplineSet
Validated: 1
EndChar

StartChar: S
Encoding: 83 83 97
Width: 556
Flags: MW
HStem: -22 69<263.5 329.5> 326 66 650 66<373 461>
VStem: 436 79
LayerCount: 2
Fore
SplineSet
539 189 m 0
 516 79 402 -22 270 -22 c 0
 207 -22 130 -8 54 47 c 1
 86 128 l 1
 155 57 243 47 284 47 c 0
 375 47 444 113 458 179 c 0
 467 222 452 255 436 272 c 0
 413 297 404 300 323 321 c 0
 267 335 226 347 193 392 c 0
 162 434 157 476 166 519 c 0
 187 618 295 716 434 716 c 0
 507 716 559 699 607 666 c 1
 575 586 l 1
 544 617 503 650 419 650 c 0
 327 650 260 590 248 531 c 0
 239 487 260 458 266 452 c 0
 291 426 306 422 361 408 c 0
 448 385 479 376 515 326 c 0
 532 302 553 254 539 189 c 0
EndSplineSet
Validated: 33
Position2: "'cpsp' Capital Spacing lookup 0 subtable" dx=7 dy=0 dh=14 dv=0
EndChar

StartChar: s
Encoding: 115 115 98
Width: 383
Flags: MW
HStem: -11 63<165.5 203> 402 59<284.5 290>
VStem: 297 71 316 71
LayerCount: 2
Fore
SplineSet
387 128 m 0xe0
 378 85 353 45 316 21 c 0x10
 267 -11 212 -11 194 -11 c 0
 113 -11 64 17 35 33 c 1
 61 101 l 1
 77 89 125 52 206 52 c 0
 221 52 300 52 315 121 c 0
 326 174 271 186 236 193 c 0
 183 204 162 208 136 230 c 0
 115 249 93 281 103 330 c 0
 131 461 272 461 297 461 c 0
 348 461 387 453 434 429 c 1
 408 364 l 1
 359 398 306 402 274 402 c 0
 261 402 189 402 176 340 c 0
 166 291 210 281 262 270 c 0
 310 261 336 255 368 220 c 0
 369 217 399 183 387 128 c 0xe0
EndSplineSet
Validated: 33
EndChar

StartChar: semicolon
Encoding: 59 59 99
Width: 278
Flags: MW
HStem: -125 21G<70 111 70 70> 0 83<115 122 97 198> 361 83<191 257 174 274>
VStem: 97 83<0 1> 115 83<83 83> 174 83<361 361> 191 83<444 444>
LayerCount: 2
Fore
SplineSet
257 361 m 1x22
 174 361 l 1x24
 191 444 l 1
 274 444 l 1
 257 361 l 1x22
180 1 m 1
 111 -125 l 1
 70 -125 l 1
 122 0 l 1
 97 0 l 1xd0
 115 83 l 1
 198 83 l 1x48
 180 1 l 1
EndSplineSet
Validated: 1
EndChar

StartChar: seven
Encoding: 55 55 100
Width: 500
Flags: MW
HStem: -11 21G<150 234 150 150> 585 71<181 356 166 596>
VStem: 150 84<-11 -11>
LayerCount: 2
Fore
SplineSet
583 591 m 1
 486 503 297 289 234 -11 c 1
 150 -11 l 1
 199 223 331 423 514 586 c 1
 393 586 l 2
 381 586 368 585 356 585 c 2
 166 585 l 1
 181 656 l 1
 596 656 l 1
 583 591 l 1
EndSplineSet
Validated: 1
Substitution2: "'pnum' Proportional Numbers lookup 6 subtable" seven.prop
Substitution2: "'onum' Oldstyle Figures lookup 4 subtable" seven.oldstyle
AlternateSubs2: "'aalt' Access All Alternates lookup 1 subtable" seven.oldstyle seven.prop
EndChar

StartChar: six
Encoding: 54 54 101
Width: 500
Flags: MW
HStem: -22 61<206 276> 401 61<299.5 441> 620 58<396 460 382.5 461>
VStem: 259 82 422 82<222 222>
LayerCount: 2
Fore
SplineSet
504 222 m 0
 487 143 459 97 403 46 c 0
 354 1 306 -22 246 -22 c 0
 161 -22 50 39 110 322 c 0
 156 537 312 678 453 678 c 0
 467 678 508 678 555 658 c 1
 542 599 l 1
 510 613 480 620 442 620 c 0
 350 620 254 540 207 379 c 1
 283 454 361 462 393 462 c 0
 489 462 531 350 504 222 c 0
422 222 m 0
 432 267 437 302 424 339 c 0
 412 376 389 401 341 401 c 0
 258 401 196 321 181 247 c 0
 177 235 177 233 174 219 c 0
 170 186 153 39 259 39 c 0
 316 39 350 73 372 101 c 0
 405 142 415 188 422 222 c 0
EndSplineSet
Validated: 33
Substitution2: "'pnum' Proportional Numbers lookup 6 subtable" six.prop
Substitution2: "'onum' Oldstyle Figures lookup 4 subtable" six.oldstyle
AlternateSubs2: "'aalt' Access All Alternates lookup 1 subtable" six.oldstyle six.prop
EndChar

StartChar: slash
Encoding: 47 47 102
Width: 500
Flags: MW
HStem: -250 21G<17.5 30> 730 20G<557 587.5 575 598>
LayerCount: 2
Fore
SplineSet
598 730 m 2
 598 730 597 725 589 712 c 2
 48 -230 l 2
 43 -240 37 -250 23 -250 c 0
 12 -250 5 -241 7 -230 c 2
 7 -230 8 -225 16 -212 c 2
 557 730 l 2
 562 740 568 750 582 750 c 0
 593 750 601 741 598 730 c 2
EndSplineSet
Validated: 1
EndChar

StartChar: T
Encoding: 84 84 104
Width: 681
Flags: MW
HStem: 0 21G<296 385 296 296> 623 65<182 302 168 790 636 642 642 776>
VStem: 296 89<0 0> 429 89<624 624> 518 89<624 624>
LayerCount: 2
Fore
SplineSet
776 623 m 1xf0
 642 623 l 2
 630 623 619 624 607 624 c 2x48
 518 624 l 1
 385 0 l 1
 296 0 l 1
 429 624 l 1
 339 624 l 2
 327 624 314 623 302 623 c 2
 168 623 l 1
 182 688 l 1
 790 688 l 1
 776 623 l 1xf0
EndSplineSet
Validated: 1
Position2: "'cpsp' Capital Spacing lookup 0 subtable" dx=7 dy=0 dh=14 dv=0
EndChar

StartChar: t
Encoding: 116 116 105
Width: 361
Flags: MW
HStem: -11 64<218.5 219> 386 58<113 185 101 200 113 257 269 398> 551 20G<227 296 296 296>
VStem: 113 72<386 444> 128 72 185 72<386 386> 338 72
LayerCount: 2
Fore
SplineSet
338 27 m 1xe6
 310 14 254 -11 184 -11 c 0
 115 -11 116 59 128 119 c 2x8a
 185 386 l 1
 101 386 l 1
 113 444 l 1x50
 200 444 l 1x48
 227 571 l 1
 296 571 l 1
 269 444 l 1
 410 444 l 1
 398 386 l 1
 257 386 l 1
 204 136 l 2
 193 83 200 53 237 53 c 0
 269 53 304 65 334 86 c 1
 338 27 l 1xe6
EndSplineSet
Validated: 33
EndChar

StartChar: three
Encoding: 51 51 106
Width: 500
Flags: MW
HStem: -22 61<222 291.5 218.5 303> 324 61<249 249 249 307 236 249> 620 58<353.5 405>
VStem: 406 89<181 181>
LayerCount: 2
Fore
SplineSet
495 180 m 0
 473 75 364 -22 242 -22 c 0
 202 -22 112 -12 59 82 c 1
 83 142 l 1
 113 74 184 39 253 39 c 0
 330 39 390 103 406 181 c 0
 417 231 415 324 307 324 c 2
 236 324 l 1
 249 385 l 1
 321 391 323 391 329 392 c 0
 393 406 447 465 460 526 c 0
 473 590 431 620 379 620 c 0
 318 620 245 584 201 514 c 1
 177 568 l 1
 234 638 315 678 392 678 c 0
 491 678 560 612 542 526 c 0
 528 463 479 395 394 354 c 1
 458 333 515 271 495 180 c 0
EndSplineSet
Validated: 33
Substitution2: "'pnum' Proportional Numbers lookup 6 subtable" three.prop
Substitution2: "'onum' Oldstyle Figures lookup 4 subtable" three.oldstyle
AlternateSubs2: "'aalt' Access All Alternates lookup 1 subtable" three.oldstyle three.prop
EndChar

StartChar: two
Encoding: 50 50 107
Width: 500
Flags: MW
HStem: 0 64<64 64 64 449 50 64> 0 71<282 449> 188 71 614 64<323 400>
VStem: 465 82
LayerCount: 2
Fore
SplineSet
449 0 m 1x78
 50 0 l 1
 64 64 l 1x80
 214 188 l 1
 306 259 l 2
 378 319 447 376 465 461 c 0
 482 539 447 614 353 614 c 0
 262 614 217 536 181 459 c 1
 174 473 166 486 165 488 c 0
 163 491 160 497 151 514 c 1
 194 600 266 678 380 678 c 0
 512 678 572 578 547 463 c 0
 529 378 464 325 410 280 c 0
 387 262 327 220 304 202 c 2
 137 70 l 1
 246 70 l 2
 258 70 270 71 282 71 c 2
 464 71 l 1
 449 0 l 1x78
EndSplineSet
Validated: 33
Substitution2: "'pnum' Proportional Numbers lookup 6 subtable" two.prop
Substitution2: "'onum' Oldstyle Figures lookup 4 subtable" two.oldstyle
AlternateSubs2: "'aalt' Access All Alternates lookup 1 subtable" two.oldstyle two.prop
EndChar

StartChar: U
Encoding: 85 85 108
Width: 688
Flags: MW
HStem: -22 56<313 396 313 408> 674 20G<242 331 331 331 663 741 741 741>
VStem: 242 89<694 694> 663 78<694 694>
LayerCount: 2
Fore
SplineSet
643 233 m 2
 612 88 475 -22 341 -22 c 0
 206 -22 112 87 144 233 c 2
 242 694 l 1
 331 694 l 1
 232 232 l 2
 204 97 272 34 354 34 c 0
 438 34 536 100 564 232 c 2
 663 694 l 1
 741 694 l 1
 643 233 l 2
EndSplineSet
Validated: 33
Position2: "'cpsp' Capital Spacing lookup 0 subtable" dx=7 dy=0 dh=14 dv=0
EndChar

StartChar: u
Encoding: 117 117 109
Width: 517
Flags: MW
HStem: -11 55<210.5 211.5> 424 20G<175 253 253 253 451 529 529 529>
VStem: 175 78<444 444> 451 78<444 444>
LayerCount: 2
Fore
SplineSet
435 0 m 1
 360 0 l 1
 370 48 l 1
 312 5 238 -11 185 -11 c 0
 102 -11 89 37 104 109 c 2
 175 444 l 1
 253 444 l 1
 183 113 l 2
 174 70 175 44 246 44 c 0
 310 44 374 79 390 154 c 2
 451 444 l 1
 529 444 l 1
 435 0 l 1
EndSplineSet
Validated: 33
EndChar

StartChar: underscore
Encoding: 95 95 110
Width: 667
Flags: MW
HStem: -164 78<-18 632 -35 649>
LayerCount: 2
Fore
SplineSet
632 -164 m 1
 -35 -164 l 1
 -18 -86 l 1
 649 -86 l 1
 632 -164 l 1
EndSplineSet
Validated: 1
EndChar

StartChar: V
Encoding: 86 86 111
Width: 667
Flags: MW
HStem: 0 21G<287 379 287 287> 674 20G<162 255 255 255 722 800 800 800>
VStem: 162 638<694 694>
LayerCount: 2
Fore
SplineSet
800 694 m 1
 379 0 l 1
 287 0 l 1
 162 694 l 1
 255 694 l 1
 332 246 l 2
 336 222 356 112 355 72 c 1
 356 72 l 1
 375 118 491 311 516 352 c 2
 722 694 l 1
 800 694 l 1
EndSplineSet
Validated: 33
Position2: "'cpsp' Capital Spacing lookup 0 subtable" dx=7 dy=0 dh=14 dv=0
EndChar

StartChar: v
Encoding: 118 118 112
Width: 461
Flags: MW
HStem: 0 21G<186 274 186 186> 424 20G<108 186 186 186 465 540 540 540>
VStem: 108 432<444 444>
LayerCount: 2
Fore
SplineSet
540 444 m 1
 274 0 l 1
 186 0 l 1
 108 444 l 1
 186 444 l 1
 228 185 l 2
 233 158 244 89 242 53 c 1
 243 53 l 1
 261 100 309 181 342 236 c 2
 465 444 l 1
 540 444 l 1
EndSplineSet
Validated: 33
EndChar

StartChar: W
Encoding: 87 87 113
Width: 944
Flags: MW
HStem: 0 21G<217 298 217 217 639 726 639 639> 674 20G<162 248 248 248 583 664 664 664 1005 1077 1077 1077>
VStem: 162 915<694 694>
LayerCount: 2
Fore
SplineSet
1077 694 m 1
 726 0 l 1
 639 0 l 1
 609 401 l 2
 602 496 599 591 601 621 c 1
 600 621 l 1
 583 569 508 420 472 347 c 2
 298 0 l 1
 217 0 l 1
 162 694 l 1
 248 694 l 1
 269 412 l 1
 280 245 l 2
 281 212 287 114 283 74 c 1
 284 74 l 1
 301 130 388 305 426 382 c 2
 583 694 l 1
 664 694 l 1
 689 353 l 2
 707 125 701 72 701 72 c 1
 702 72 l 1
 718 123 802 291 847 380 c 2
 1005 694 l 1
 1077 694 l 1
EndSplineSet
Validated: 33
Position2: "'cpsp' Capital Spacing lookup 0 subtable" dx=7 dy=0 dh=14 dv=0
EndChar

StartChar: w
Encoding: 119 119 114
Width: 683
Flags: MW
HStem: 0 21G<151 230 151 151 443 531 443 443> 424 20G<108 184 184 184 397 467 467 467 689 762 762 762>
VStem: 108 654<444 444>
LayerCount: 2
Fore
SplineSet
762 444 m 1
 531 0 l 1
 443 0 l 1
 423 248 l 2
 419 291 417 360 420 388 c 1
 419 388 l 1
 409 351 360 252 336 206 c 2
 230 0 l 1
 151 0 l 1
 108 444 l 1
 184 444 l 1
 200 271 l 2
 204 216 213 103 208 55 c 1
 209 55 l 1
 224 106 282 221 300 256 c 2
 397 444 l 1
 467 444 l 1
 487 231 l 2
 492 174 498 85 495 54 c 1
 496 54 l 1
 511 97 562 196 580 232 c 2
 689 444 l 1
 762 444 l 1
EndSplineSet
Validated: 33
EndChar

StartChar: X
Encoding: 88 88 115
Width: 667
Flags: MW
HStem: 0 21G<14 110 14 14 548 652 548 548> 674 20G<176 280 280 280 662 758 758 758>
VStem: 14 638<0 0>
LayerCount: 2
Fore
SplineSet
652 0 m 1
 548 0 l 1
 391 306 l 1
 110 0 l 1
 14 0 l 1
 361 366 l 1
 176 694 l 1
 280 694 l 1
 418 433 l 1
 662 694 l 1
 758 694 l 1
 447 366 l 1
 652 0 l 1
EndSplineSet
Validated: 1
Position2: "'cpsp' Capital Spacing lookup 0 subtable" dx=7 dy=0 dh=14 dv=0
EndChar

StartChar: x
Encoding: 120 120 116
Width: 461
Flags: MW
HStem: 0 21G<0 82 0 0 377 460 377 377> 424 20G<100 183 183 183 455 537 537 537>
VStem: 0 460<0 0>
LayerCount: 2
Fore
SplineSet
460 0 m 1
 377 0 l 1
 267 188 l 1
 82 0 l 1
 0 0 l 1
 243 229 l 1
 100 444 l 1
 183 444 l 1
 286 279 l 1
 455 444 l 1
 537 444 l 1
 309 229 l 1
 460 0 l 1
EndSplineSet
Validated: 1
EndChar

StartChar: Y
Encoding: 89 89 117
Width: 667
Flags: MW
HStem: 0 21G<290 376 290 290> 674 20G<151 256 256 256 723 811 811 811>
VStem: 290 86<0 0> 349 86<277 278>
LayerCount: 2
Fore
SplineSet
811 694 m 1x50
 435 277 l 1x50
 376 0 l 1
 290 0 l 1xa0
 349 278 l 1
 151 694 l 1
 256 694 l 1
 392 404 l 2
 404 380 403 378 416 347 c 1
 497 442 l 1
 519 468 l 1
 723 694 l 1
 811 694 l 1x50
EndSplineSet
Validated: 1
Position2: "'cpsp' Capital Spacing lookup 0 subtable" dx=7 dy=0 dh=14 dv=0
EndChar

StartChar: y
Encoding: 121 121 118
Width: 461
Flags: MW
HStem: -205 57<76 88.5> -148 57 0 57<208 250> 424 20G<108 187 187 187 465 540 540 540>
LayerCount: 2
Fore
SplineSet
540 444 m 1xb0
 209 -91 l 2x50
 146 -193 106 -205 71 -205 c 0
 49 -205 22 -202 1 -197 c 1
 9 -132 l 1
 36 -144 68 -148 84 -148 c 0
 98 -148 115 -148 153 -90 c 2
 208 0 l 1
 108 444 l 1
 187 444 l 1
 215 319 l 2
 217 310 257 124 249 57 c 1
 250 57 l 1
 256 80 268 126 465 444 c 1
 540 444 l 1xb0
EndSplineSet
Validated: 33
EndChar

StartChar: Z
Encoding: 90 90 119
Width: 611
Flags: MW
HStem: 0 66<478 560> 632 62<217 403 203 702>
VStem: 56 504<0 0>
LayerCount: 2
Fore
SplineSet
560 0 m 1
 56 0 l 1
 65 43 l 1
 576 633 l 1
 440 633 l 2
 428 633 415 632 403 632 c 2
 203 632 l 1
 217 694 l 1
 702 694 l 1
 693 653 l 1
 183 64 l 1
 215 64 l 1
 478 66 l 1
 574 66 l 1
 560 0 l 1
EndSplineSet
Validated: 1
Position2: "'cpsp' Capital Spacing lookup 0 subtable" dx=7 dy=0 dh=14 dv=0
EndChar

StartChar: z
Encoding: 122 122 120
Width: 435
Flags: MW
HStem: 0 62<268 402> 385 59<136 263 124 494>
VStem: 28 374<0 0>
LayerCount: 2
Fore
SplineSet
402 0 m 1
 28 0 l 1
 37 41 l 1
 377 386 l 1
 299 386 l 2
 287 386 275 385 263 385 c 2
 124 385 l 1
 136 444 l 1
 494 444 l 1
 486 405 l 1
 147 61 l 1
 232 61 l 2
 244 61 256 62 268 62 c 2
 415 62 l 1
 402 0 l 1
EndSplineSet
Validated: 1
EndChar

StartChar: zero
Encoding: 48 48 121
Width: 500
Flags: MW
HStem: -22 61<232 274 232 280.5> 88 61 617 61<364.5 419>
VStem: 97 95 169 78
LayerCount: 2
Fore
SplineSet
526 326 m 0xf0
 504 219 480 153 436 88 c 0
 389 19 317 -22 244 -22 c 0
 187 -22 117 5 97 101 c 0
 83 174 95 247 111 326 c 0
 128 406 151 489 199 562 c 0
 259 651 335 678 394 678 c 0
 445 678 509 654 534 579 c 0
 559 498 543 405 526 326 c 0xf0
451 338 m 0
 464 400 478 467 471 523 c 0
 468 541 458 617 380 617 c 0
 299 617 257 535 247 516 c 0x28
 218 461 205 401 192 338 c 0x10
 175 260 165 206 169 149 c 0x48
 173 77 206 39 258 39 c 0
 290 39 347 55 392 146 c 0
 423 209 437 272 451 338 c 0
EndSplineSet
Validated: 33
Substitution2: "'zero' Slashed Zero lookup 14 subtable" zero.slash
Substitution2: "'pnum' Proportional Numbers lookup 6 subtable" zero.prop
Substitution2: "'onum' Oldstyle Figures lookup 4 subtable" zero.oldstyle
AlternateSubs2: "'aalt' Access All Alternates lookup 1 subtable" zero.oldstyle zero.prop zero.slash
EndChar

StartChar: ff
Encoding: 64256 64256 122
Width: 583
Flags: MW
HStem: 0 21G<101 176 101 101 378 378 378 453> 386 58<121 183 109 195 267 368 544 645> 644 61<390 413 667 690>
VStem: 101 75<0 0> 183 75<386 386> 293 75 378 75<0 0> 417 75 495 75 570 75
LayerCount: 2
Fore
SplineSet
480 627 m 1xfd80
 449 642 423 644 403 644 c 0
 377 644 308 637 293 563 c 2
 267 444 l 1
 380 444 l 1
 368 386 l 1
 258 386 l 1
 176 0 l 1
 101 0 l 1
 183 386 l 1
 109 386 l 1
 121 444 l 1
 195 444 l 1
 215 534 l 2
 236 634 323 705 417 705 c 0
 454 705 483 697 495 694 c 1
 480 627 l 1xfd80
757 627 m 1
 726 642 700 644 680 644 c 0
 654 644 585 637 570 563 c 2
 544 444 l 1
 657 444 l 1
 645 386 l 1
 535 386 l 1
 453 0 l 1
 378 0 l 1xe240
 492 534 l 2
 513 634 600 705 694 705 c 0
 731 705 760 697 772 694 c 1
 757 627 l 1
EndSplineSet
Validated: 1
Ligature2: "'liga' Standard Ligatures lookup 9 subtable" f f
EndChar

StartChar: ffi
Encoding: 64259 64259 123
Width: 814
Flags: MW
HStem: 0 21G<101 176 101 101 379 454 379 379 656 731 656 656> 386 58<121 183 109 195 267 376 545 654> 612 83<800 865 720 782> 644 61<373.5 394 636.5 659.5>
VStem: 101 75<0 0> 183 75<386 386> 379 75<0 0> 656 75<0 0> 750 75<444 444>
LayerCount: 2
Fore
SplineSet
865 612 m 1xe180
 782 612 l 1
 800 695 l 1
 883 695 l 1
 865 612 l 1xe180
731 0 m 1
 656 0 l 1
 750 444 l 1
 825 444 l 1
 731 0 l 1
654 386 m 1
 536 386 l 1
 454 0 l 1
 379 0 l 1
 493 535 l 2
 514 635 588 705 662 705 c 0xde
 693 705 699 703 720 695 c 1x20
 705 627 l 1
 690 638 670 644 649 644 c 0x10
 624 644 585 629 571 565 c 2
 545 444 l 1
 666 444 l 1
 654 386 l 1
452 627 m 1
 426 642 402 644 386 644 c 0
 361 644 308 634 293 564 c 2
 267 444 l 1
 388 444 l 1
 376 386 l 1
 258 386 l 1
 176 0 l 1
 101 0 l 1
 183 386 l 1
 109 386 l 1
 121 444 l 1
 195 444 l 1
 215 534 l 2
 236 635 316 705 400 705 c 0
 423 705 447 701 467 694 c 1
 452 627 l 1
EndSplineSet
Validated: 1
Ligature2: "'liga' Standard Ligatures lookup 9 subtable" f f i
EndChar

StartChar: ffl
Encoding: 64260 64260 124
Width: 814
Flags: MW
HStem: 0 21G<101 176 101 101 379 379 379 454 656 656 656 731> 386 58<121 183 109 195 267 376 545 654> 644 61<373.5 394 636.5 659>
VStem: 101 75<0 0> 183 75<386 386> 379 75<0 0> 656 75<0 0> 804 75<694 694>
LayerCount: 2
Fore
SplineSet
452 627 m 1
 426 642 402 644 386 644 c 0
 361 644 308 634 293 564 c 2
 267 444 l 1
 388 444 l 1
 376 386 l 1
 258 386 l 1
 176 0 l 1
 101 0 l 1
 183 386 l 1
 109 386 l 1
 121 444 l 1
 195 444 l 1
 215 534 l 2
 236 635 316 705 400 705 c 0
 423 705 447 701 467 694 c 1
 452 627 l 1
731 0 m 1
 656 0 l 1
 804 694 l 1
 879 694 l 1
 731 0 l 1
654 386 m 1
 536 386 l 1
 454 0 l 1
 379 0 l 1
 493 535 l 2
 514 635 588 705 662 705 c 0
 691 705 714 696 720 694 c 1
 705 627 l 1
 690 638 669 644 649 644 c 0
 624 644 585 629 571 565 c 2
 545 444 l 1
 666 444 l 1
 654 386 l 1
EndSplineSet
Validated: 1
Ligature2: "'liga' Standard Ligatures lookup 9 subtable" f f l
EndChar

StartChar: fi
Encoding: 64257 64257 125
Width: 536
Flags: MW
HStem: 0 21G<101 176 101 101 378 453 378 378> 386 58<121 183 109 195 267 376> 565 61 612 83<522 587 504 605> 644 61<358.5 381.5>
VStem: 101 75<0 0> 183 75<386 386> 378 75<0 0> 472 75<444 444>
LayerCount: 2
Fore
SplineSet
587 612 m 1xd180
 504 612 l 1
 522 695 l 1
 605 695 l 1
 587 612 l 1xd180
453 0 m 1
 378 0 l 1
 472 444 l 1
 547 444 l 1
 453 0 l 1
376 386 m 1
 258 386 l 1
 176 0 l 1
 101 0 l 1
 183 386 l 1
 109 386 l 1
 121 444 l 1
 195 444 l 1
 215 535 l 2
 236 635 310 705 384 705 c 0
 413 705 436 696 442 694 c 1
 427 626 l 1
 412 637 392 644 371 644 c 0
 346 644 307 629 293 565 c 2xee
 267 444 l 1
 388 444 l 1
 376 386 l 1
EndSplineSet
Validated: 1
Ligature2: "'liga' Standard Ligatures lookup 9 subtable" f i
EndChar

StartChar: fl
Encoding: 64258 64258 126
Width: 536
Flags: MW
HStem: 0 21G<101 176 101 101 378 378 378 453> 386 58<121 183 109 195 267 376> 644 61<358.5 381>
VStem: 101 75<0 0> 183 75<386 386> 378 75<0 0> 526 75<694 694>
LayerCount: 2
Fore
SplineSet
376 386 m 1
 258 386 l 1
 176 0 l 1
 101 0 l 1
 183 386 l 1
 109 386 l 1
 121 444 l 1
 195 444 l 1
 215 535 l 2
 236 635 310 705 384 705 c 0
 413 705 436 696 442 694 c 1
 427 627 l 1
 412 638 391 644 371 644 c 0
 346 644 307 629 293 565 c 2
 267 444 l 1
 388 444 l 1
 376 386 l 1
453 0 m 1
 378 0 l 1
 526 694 l 1
 601 694 l 1
 453 0 l 1
EndSplineSet
Validated: 1
Ligature2: "'liga' Standard Ligatures lookup 9 subtable" f l
EndChar

StartChar: Aacute
Encoding: 193 193 127
Width: 667
Flags: MW
HStem: 0 21G<28 102 28 28 546 638 546 546> 204 56<255 503 255 513 222 503> 674 20G<437 525 525 525> 746 21G<396 485 396 396> 848 20G<597 708 708 708>
VStem: 28 610<0 0>
LayerCount: 2
Fore
SplineSet
638 0 m 1
 546 0 l 1
 513 204 l 1
 222 204 l 1
 102 0 l 1
 28 0 l 1
 437 694 l 1
 525 694 l 1
 638 0 l 1
503 260 m 1
 467 517 l 2
 458 583 456 608 457 622 c 1
 456 622 l 1
 441 585 392 500 359 441 c 0
 277 298 337 403 255 260 c 1
 503 260 l 1
708 868 m 1x18
 485 746 l 1
 396 746 l 1
 597 868 l 1
 708 868 l 1x18
EndSplineSet
Validated: 33
Position2: "'cpsp' Capital Spacing lookup 0 subtable" dx=7 dy=0 dh=14 dv=0
EndChar

StartChar: aacute
Encoding: 225 225 128
Width: 481
Flags: MW
HStem: -11 61<122.5 235.5> 194 53 402 59<309.5 352.5> 527 21G<282 343 282 282> 674 20G<451 529 529 529>
LayerCount: 2
Fore
SplineSet
409 0 m 1
 334 0 l 1
 342 36 l 1
 274 -9 180 -11 166 -11 c 0
 79 -11 69 70 78 113 c 0
 97 201 233 243 383 245 c 1
 392 288 l 2
 408 362 376 402 329 402 c 0
 280 402 228 389 168 352 c 1
 176 418 l 1
 229 445 277 461 342 461 c 0
 434 461 492 391 470 289 c 2
 409 0 l 1
359 132 m 2
 372 194 l 1
 329 192 165 185 150 115 c 0
 142 73 182 50 230 50 c 0
 241 50 279 51 312 69 c 0
 350 88 355 113 359 132 c 2
529 694 m 1x18
 343 527 l 1
 282 527 l 1
 451 694 l 1
 529 694 l 1x18
EndSplineSet
Validated: 33
EndChar

StartChar: Abreve
Encoding: 258 258 129
Width: 667
Flags: MW
HStem: 0 21G<28 102 28 28 546 638 546 546> 204 56<255 503 255 513 222 503> 674 20G<437 525 525 525> 746 67<481.5 531 481.5 535.5> 904 20G<361 422 422 422 637 698 698 698>
VStem: 28 610<0 0>
LayerCount: 2
Fore
SplineSet
638 0 m 1
 546 0 l 1
 513 204 l 1
 222 204 l 1
 102 0 l 1
 28 0 l 1
 437 694 l 1
 525 694 l 1
 638 0 l 1
503 260 m 1
 467 517 l 2
 458 583 456 608 457 622 c 1
 456 622 l 1
 441 585 392 500 359 441 c 0
 277 298 337 403 255 260 c 1
 503 260 l 1
698 924 m 1x18
 674 819 580 746 491 746 c 0
 405 746 341 817 361 924 c 1
 422 924 l 1
 409 852 456 813 507 813 c 0
 555 813 620 850 637 924 c 1
 698 924 l 1x18
EndSplineSet
Validated: 33
Position2: "'cpsp' Capital Spacing lookup 0 subtable" dx=7 dy=0 dh=14 dv=0
EndChar

StartChar: abreve
Encoding: 259 259 130
Width: 481
Flags: MW
HStem: -11 61<122.5 235.5> 194 53 402 59<309.5 352.5> 522 67<340.5 390 340.5 395.5> 680 20G<221 282 282 282 497 558 558 558>
LayerCount: 2
Fore
SplineSet
409 0 m 1
 334 0 l 1
 342 36 l 1
 274 -9 180 -11 166 -11 c 0
 79 -11 69 70 78 113 c 0
 97 201 233 243 383 245 c 1
 392 288 l 2
 408 362 376 402 329 402 c 0
 280 402 228 389 168 352 c 1
 176 418 l 1
 229 445 277 461 342 461 c 0
 434 461 492 391 470 289 c 2
 409 0 l 1
359 132 m 2
 372 194 l 1
 329 192 165 185 150 115 c 0
 142 73 182 50 230 50 c 0
 241 50 279 51 312 69 c 0
 350 88 355 113 359 132 c 2
558 700 m 1x18
 533 595 440 522 351 522 c 0
 265 522 200 593 221 700 c 1
 282 700 l 1
 268 628 315 589 366 589 c 0
 414 589 479 626 497 700 c 1
 558 700 l 1x18
EndSplineSet
Validated: 33
EndChar

StartChar: Abreveacute
Encoding: 7854 7854 131
Width: 667
Flags: MW
HStem: 0 21G<28 102 28 28 546 638 546 546> 204 56<255 503 255 513 222 503> 674 20G<437 525 525 525> 746 67<481.5 531 481.5 535.5> 1061 20G<596 707 707 707>
VStem: 28 610<0 0>
LayerCount: 2
Fore
SplineSet
638 0 m 1
 546 0 l 1
 513 204 l 1
 222 204 l 1
 102 0 l 1
 28 0 l 1
 437 694 l 1
 525 694 l 1
 638 0 l 1
503 260 m 1
 467 517 l 2
 458 583 456 608 457 622 c 1
 456 622 l 1
 441 585 392 500 359 441 c 0
 277 298 337 403 255 260 c 1
 503 260 l 1
698 924 m 1x18
 674 819 580 746 491 746 c 0
 405 746 341 817 361 924 c 1
 422 924 l 1
 409 852 456 813 507 813 c 0
 555 813 620 850 637 924 c 1
 698 924 l 1x18
707 1081 m 1
 484 959 l 1
 395 959 l 1
 596 1081 l 1
 707 1081 l 1
EndSplineSet
Validated: 33
Position2: "'cpsp' Capital Spacing lookup 0 subtable" dx=7 dy=0 dh=14 dv=0
EndChar

StartChar: abreveacute
Encoding: 7855 7855 132
Width: 481
Flags: MW
HStem: -11 61<122.5 235.5> 194 53 402 59<309.5 352.5> 522 67<340.5 390 340.5 395.5> 837 20G<455 566 566 566>
LayerCount: 2
Fore
SplineSet
409 0 m 1
 334 0 l 1
 342 36 l 1
 274 -9 180 -11 166 -11 c 0
 79 -11 69 70 78 113 c 0
 97 201 233 243 383 245 c 1
 392 288 l 2
 408 362 376 402 329 402 c 0
 280 402 228 389 168 352 c 1
 176 418 l 1
 229 445 277 461 342 461 c 0
 434 461 492 391 470 289 c 2
 409 0 l 1
359 132 m 2
 372 194 l 1
 329 192 165 185 150 115 c 0
 142 73 182 50 230 50 c 0
 241 50 279 51 312 69 c 0
 350 88 355 113 359 132 c 2
558 700 m 1x18
 533 595 440 522 351 522 c 0
 265 522 200 593 221 700 c 1
 282 700 l 1
 268 628 315 589 366 589 c 0
 414 589 479 626 497 700 c 1
 558 700 l 1x18
566 857 m 1
 343 735 l 1
 254 735 l 1
 455 857 l 1
 566 857 l 1
EndSplineSet
Validated: 33
EndChar

StartChar: Abrevedotbelow
Encoding: 7862 7862 133
Width: 667
Flags: MW
HStem: 0 21G<28 102 28 28 546 638 546 546> 204 56<255 503 255 513 222 503> 674 20G<437 525 525 525> 746 67<481.5 531 481.5 535.5> 904 20G<361 422 422 422 637 698 698 698>
VStem: 28 610<0 0> 245 89<-200 -200> 264 89<-111 -111>
LayerCount: 2
Fore
SplineSet
638 0 m 1xfc
 546 0 l 1
 513 204 l 1
 222 204 l 1
 102 0 l 1
 28 0 l 1
 437 694 l 1
 525 694 l 1
 638 0 l 1xfc
503 260 m 1
 467 517 l 2
 458 583 456 608 457 622 c 1
 456 622 l 1
 441 585 392 500 359 441 c 0
 277 298 337 403 255 260 c 1
 503 260 l 1
698 924 m 1
 674 819 580 746 491 746 c 0
 405 746 341 817 361 924 c 1
 422 924 l 1
 409 852 456 813 507 813 c 0
 555 813 620 850 637 924 c 1
 698 924 l 1
334 -200 m 1x01
 245 -200 l 1x02
 264 -111 l 1
 353 -111 l 1
 334 -200 l 1x01
EndSplineSet
Validated: 33
Position2: "'cpsp' Capital Spacing lookup 0 subtable" dx=7 dy=0 dh=14 dv=0
EndChar

StartChar: abrevedotbelow
Encoding: 7863 7863 134
Width: 481
Flags: MW
HStem: -11 61<122.5 235.5> 194 53 402 59<309.5 352.5> 522 67<340.5 390 340.5 395.5> 680 20G<221 282 282 282 497 558 558 558>
VStem: 152 89<-200 -200> 171 89<-111 -111>
LayerCount: 2
Fore
SplineSet
409 0 m 1xf8
 334 0 l 1
 342 36 l 1
 274 -9 180 -11 166 -11 c 0
 79 -11 69 70 78 113 c 0
 97 201 233 243 383 245 c 1
 392 288 l 2
 408 362 376 402 329 402 c 0
 280 402 228 389 168 352 c 1
 176 418 l 1
 229 445 277 461 342 461 c 0
 434 461 492 391 470 289 c 2
 409 0 l 1xf8
359 132 m 2
 372 194 l 1
 329 192 165 185 150 115 c 0
 142 73 182 50 230 50 c 0
 241 50 279 51 312 69 c 0
 350 88 355 113 359 132 c 2
558 700 m 1
 533 595 440 522 351 522 c 0
 265 522 200 593 221 700 c 1
 282 700 l 1
 268 628 315 589 366 589 c 0
 414 589 479 626 497 700 c 1
 558 700 l 1
241 -200 m 1x02
 152 -200 l 1x04
 171 -111 l 1
 260 -111 l 1
 241 -200 l 1x02
EndSplineSet
Validated: 33
EndChar

StartChar: Abrevegrave
Encoding: 7856 7856 135
Width: 667
Flags: MW
HStem: 0 21G<28 102 28 28 546 638 546 546> 204 56<255 503 255 513 222 503> 674 20G<437 525 525 525> 746 67<481.5 531 481.5 535.5> 904 20G<361 422 422 422 637 698 698 698>
VStem: 28 610<0 0>
LayerCount: 2
Fore
SplineSet
638 0 m 1
 546 0 l 1
 513 204 l 1
 222 204 l 1
 102 0 l 1
 28 0 l 1
 437 694 l 1
 525 694 l 1
 638 0 l 1
503 260 m 1
 467 517 l 2
 458 583 456 608 457 622 c 1
 456 622 l 1
 441 585 392 500 359 441 c 0
 277 298 337 403 255 260 c 1
 503 260 l 1
698 924 m 1x18
 674 819 580 746 491 746 c 0
 405 746 341 817 361 924 c 1
 422 924 l 1
 409 852 456 813 507 813 c 0
 555 813 620 850 637 924 c 1
 698 924 l 1x18
681 959 m 1
 532 1081 l 1
 421 1081 l 1
 592 959 l 1
 681 959 l 1
EndSplineSet
Validated: 41
Position2: "'cpsp' Capital Spacing lookup 0 subtable" dx=7 dy=0 dh=14 dv=0
EndChar

StartChar: abrevegrave
Encoding: 7857 7857 136
Width: 481
Flags: MW
HStem: -11 61<122.5 235.5> 194 53 402 59<309.5 352.5> 522 67<340.5 390 340.5 395.5> 680 20G<221 282 282 282 497 558 558 558>
LayerCount: 2
Fore
SplineSet
409 0 m 1
 334 0 l 1
 342 36 l 1
 274 -9 180 -11 166 -11 c 0
 79 -11 69 70 78 113 c 0
 97 201 233 243 383 245 c 1
 392 288 l 2
 408 362 376 402 329 402 c 0
 280 402 228 389 168 352 c 1
 176 418 l 1
 229 445 277 461 342 461 c 0
 434 461 492 391 470 289 c 2
 409 0 l 1
359 132 m 2
 372 194 l 1
 329 192 165 185 150 115 c 0
 142 73 182 50 230 50 c 0
 241 50 279 51 312 69 c 0
 350 88 355 113 359 132 c 2
558 700 m 1x18
 533 595 440 522 351 522 c 0
 265 522 200 593 221 700 c 1
 282 700 l 1
 268 628 315 589 366 589 c 0
 414 589 479 626 497 700 c 1
 558 700 l 1x18
540 735 m 1
 391 857 l 1
 280 857 l 1
 451 735 l 1
 540 735 l 1
EndSplineSet
Validated: 41
EndChar

StartChar: Abrevehookabove
Encoding: 7858 7858 137
Width: 667
Flags: MW
HStem: 0 21G<28 102 28 28 546 638 546 546> 204 56<255 503 255 513 222 503> 674 20G<437 525 525 525> 746 67<481.5 531 481.5 535.5> 959 67 1134 20G<554.5 587.5>
VStem: 28 610<0 0>
LayerCount: 2
Fore
SplineSet
638 0 m 1
 546 0 l 1
 513 204 l 1
 222 204 l 1
 102 0 l 1
 28 0 l 1
 437 694 l 1
 525 694 l 1
 638 0 l 1
503 260 m 1
 467 517 l 2
 458 583 456 608 457 622 c 1
 456 622 l 1
 441 585 392 500 359 441 c 0
 277 298 337 403 255 260 c 1
 503 260 l 1
698 924 m 1x1c
 674 819 580 746 491 746 c 0
 405 746 341 817 361 924 c 1
 422 924 l 1
 409 852 456 813 507 813 c 0
 555 813 620 850 637 924 c 1
 698 924 l 1x1c
660 1076 m 0
 655 1056 641 1037 622 1026 c 2
 607 1017 l 2
 570 997 550 984 545 959 c 2
 541 940 l 1
 539 939 l 1
 513 939 l 1
 513 940 l 1
 517 959 l 2
 525 1000 553 1037 591 1055 c 0
 600 1060 608 1068 610 1076 c 0
 612 1089 611 1100 604 1106 c 0
 594 1113 583 1115 564 1115 c 0
 533 1115 501 1098 481 1071 c 1
 480 1071 l 1
 479 1071 l 1
 473 1111 l 1
 501 1139 537 1154 572 1154 c 0
 603 1154 628 1149 645 1134 c 0
 660 1121 664 1099 660 1076 c 0
EndSplineSet
Validated: 33
Position2: "'cpsp' Capital Spacing lookup 0 subtable" dx=7 dy=0 dh=14 dv=0
EndChar

StartChar: abrevehookabove
Encoding: 7859 7859 138
Width: 481
Flags: MW
HStem: -11 61<122.5 235.5> 194 53 402 59<309.5 352.5> 522 67<340.5 390 340.5 395.5> 735 67 910 20G<414.5 447.5>
LayerCount: 2
Fore
SplineSet
409 0 m 1
 334 0 l 1
 342 36 l 1
 274 -9 180 -11 166 -11 c 0
 79 -11 69 70 78 113 c 0
 97 201 233 243 383 245 c 1
 392 288 l 2
 408 362 376 402 329 402 c 0
 280 402 228 389 168 352 c 1
 176 418 l 1
 229 445 277 461 342 461 c 0
 434 461 492 391 470 289 c 2
 409 0 l 1
359 132 m 2
 372 194 l 1
 329 192 165 185 150 115 c 0
 142 73 182 50 230 50 c 0
 241 50 279 51 312 69 c 0
 350 88 355 113 359 132 c 2
558 700 m 1x1c
 533 595 440 522 351 522 c 0
 265 522 200 593 221 700 c 1
 282 700 l 1
 268 628 315 589 366 589 c 0
 414 589 479 626 497 700 c 1
 558 700 l 1x1c
519 852 m 0
 515 832 501 813 481 802 c 2
 467 793 l 2
 429 773 410 760 404 735 c 2
 400 716 l 1
 399 715 l 1
 373 715 l 1
 372 716 l 1
 376 735 l 2
 385 776 413 813 451 831 c 0
 460 836 467 844 469 852 c 0
 472 865 470 876 463 882 c 0
 454 889 442 891 423 891 c 0
 392 891 361 874 340 847 c 1
 339 847 l 1
 338 847 l 1
 333 887 l 1
 360 915 397 930 432 930 c 0
 463 930 488 925 504 910 c 0
 520 897 524 875 519 852 c 0
EndSplineSet
Validated: 33
EndChar

StartChar: Abrevetilde
Encoding: 7860 7860 139
Width: 667
Flags: MW
HStem: 0 21G<28 102 28 28 546 638 546 546> 204 56<255 503 255 513 222 503> 674 20G<437 525 525 525> 746 67<481.5 531 481.5 535.5> 979 61<609.5 633.5> 1037 61<474.5 498.5>
VStem: 28 610<0 0>
LayerCount: 2
Fore
SplineSet
638 0 m 1xe2
 546 0 l 1
 513 204 l 1
 222 204 l 1
 102 0 l 1
 28 0 l 1
 437 694 l 1
 525 694 l 1
 638 0 l 1xe2
503 260 m 1
 467 517 l 2
 458 583 456 608 457 622 c 1
 456 622 l 1
 441 585 392 500 359 441 c 0
 277 298 337 403 255 260 c 1
 503 260 l 1
698 924 m 1x14
 674 819 580 746 491 746 c 0
 405 746 341 817 361 924 c 1
 422 924 l 1
 409 852 456 813 507 813 c 0
 555 813 620 850 637 924 c 1
 698 924 l 1x14
733 1098 m 1
 715 1020 657 979 610 979 c 0x08
 585 979 568 991 551 1004 c 0
 528 1023 510 1037 487 1037 c 0x04
 461 1037 444 1013 436 979 c 1
 375 979 l 1x08
 394 1057 451 1098 498 1098 c 0x04
 523 1098 541 1086 557 1073 c 0
 580 1054 598 1040 621 1040 c 0x08
 647 1040 664 1064 672 1098 c 1
 733 1098 l 1
EndSplineSet
Validated: 33
Position2: "'cpsp' Capital Spacing lookup 0 subtable" dx=7 dy=0 dh=14 dv=0
EndChar

StartChar: abrevetilde
Encoding: 7861 7861 140
Width: 481
Flags: MW
HStem: -11 61<122.5 235.5> 402 59<309.5 352.5> 813 61<334.5 358.5>
CounterMasks: 1 e0
LayerCount: 2
Fore
SplineSet
409 0 m 1
 334 0 l 1
 342 36 l 1
 274 -9 180 -11 166 -11 c 0
 79 -11 69 70 78 113 c 0
 97 201 233 243 383 245 c 1
 392 288 l 2
 408 362 376 402 329 402 c 0
 280 402 228 389 168 352 c 1
 176 418 l 1
 229 445 277 461 342 461 c 0
 434 461 492 391 470 289 c 2
 409 0 l 1
359 132 m 2
 372 194 l 1
 329 192 165 185 150 115 c 0
 142 73 182 50 230 50 c 0
 241 50 279 51 312 69 c 0
 350 88 355 113 359 132 c 2
558 700 m 1xe0
 533 595 440 522 351 522 c 0
 265 522 200 593 221 700 c 1
 282 700 l 1
 268 628 315 589 366 589 c 0
 414 589 479 626 497 700 c 1
 558 700 l 1xe0
593 874 m 1
 574 796 516 755 469 755 c 0
 444 755 427 767 411 780 c 0
 388 799 370 813 347 813 c 0
 321 813 304 789 295 755 c 1
 234 755 l 1
 253 833 311 874 358 874 c 0
 383 874 400 862 416 849 c 0
 439 830 457 816 480 816 c 0
 506 816 524 840 532 874 c 1
 593 874 l 1
EndSplineSet
Validated: 33
EndChar

StartChar: Acaron
Encoding: 461 461 141
Width: 667
Flags: MW
HStem: 0 21G<28 102 28 28 546 638 546 546> 204 56<255 503 255 513 222 503> 674 20G<437 525 525 525> 736 21G<459 519 459 459> 850 20G<362 421 421 421 615 674 674 674>
VStem: 28 610<0 0>
LayerCount: 2
Fore
SplineSet
638 0 m 1
 546 0 l 1
 513 204 l 1
 222 204 l 1
 102 0 l 1
 28 0 l 1
 437 694 l 1
 525 694 l 1
 638 0 l 1
503 260 m 1
 467 517 l 2
 458 583 456 608 457 622 c 1
 456 622 l 1
 441 585 392 500 359 441 c 0
 277 298 337 403 255 260 c 1
 503 260 l 1
674 870 m 1x18
 519 736 l 1
 459 736 l 1
 362 870 l 1
 421 870 l 1
 497 773 l 1
 615 870 l 1
 674 870 l 1x18
EndSplineSet
Validated: 33
EndChar

StartChar: acaron
Encoding: 462 462 142
Width: 481
Flags: MW
HStem: -11 61<122.5 235.5> 194 53 402 59<309.5 352.5> 525 21G<322 382 322 322> 677 20G<233 292 292 292 484 543 543 543>
LayerCount: 2
Fore
SplineSet
409 0 m 1
 334 0 l 1
 342 36 l 1
 274 -9 180 -11 166 -11 c 0
 79 -11 69 70 78 113 c 0
 97 201 233 243 383 245 c 1
 392 288 l 2
 408 362 376 402 329 402 c 0
 280 402 228 389 168 352 c 1
 176 418 l 1
 229 445 277 461 342 461 c 0
 434 461 492 391 470 289 c 2
 409 0 l 1
359 132 m 2
 372 194 l 1
 329 192 165 185 150 115 c 0
 142 73 182 50 230 50 c 0
 241 50 279 51 312 69 c 0
 350 88 355 113 359 132 c 2
543 697 m 1x18
 382 525 l 1
 322 525 l 1
 233 697 l 1
 292 697 l 1
 362 574 l 1
 484 697 l 1
 543 697 l 1x18
EndSplineSet
Validated: 33
EndChar

StartChar: Acircumflex
Encoding: 194 194 143
Width: 667
Flags: MW
HStem: 0 21G<28 102 28 28 546 638 546 546> 204 56<255 503 255 513 222 503> 674 20G<437 525 525 525> 736 21G<333 392 333 333 586 645 586 586> 850 20G<488 548 548 548>
VStem: 28 610<0 0>
LayerCount: 2
Fore
SplineSet
638 0 m 1
 546 0 l 1
 513 204 l 1
 222 204 l 1
 102 0 l 1
 28 0 l 1
 437 694 l 1
 525 694 l 1
 638 0 l 1
503 260 m 1
 467 517 l 2
 458 583 456 608 457 622 c 1
 456 622 l 1
 441 585 392 500 359 441 c 0
 277 298 337 403 255 260 c 1
 503 260 l 1
645 736 m 1x18
 586 736 l 1
 510 833 l 1
 392 736 l 1
 333 736 l 1
 488 870 l 1
 548 870 l 1
 645 736 l 1x18
EndSplineSet
Validated: 33
Position2: "'cpsp' Capital Spacing lookup 0 subtable" dx=7 dy=0 dh=14 dv=0
EndChar

StartChar: acircumflex
Encoding: 226 226 144
Width: 481
Flags: MW
HStem: -11 61<122.5 235.5> 194 53 402 59<309.5 352.5> 525 21G<197 256 197 197 448 507 448 448> 677 20G<358 418 418 418>
LayerCount: 2
Fore
SplineSet
409 0 m 1
 334 0 l 1
 342 36 l 1
 274 -9 180 -11 166 -11 c 0
 79 -11 69 70 78 113 c 0
 97 201 233 243 383 245 c 1
 392 288 l 2
 408 362 376 402 329 402 c 0
 280 402 228 389 168 352 c 1
 176 418 l 1
 229 445 277 461 342 461 c 0
 434 461 492 391 470 289 c 2
 409 0 l 1
359 132 m 2
 372 194 l 1
 329 192 165 185 150 115 c 0
 142 73 182 50 230 50 c 0
 241 50 279 51 312 69 c 0
 350 88 355 113 359 132 c 2
507 525 m 1x18
 448 525 l 1
 378 648 l 1
 256 525 l 1
 197 525 l 1
 358 697 l 1
 418 697 l 1
 507 525 l 1x18
EndSplineSet
Validated: 33
EndChar

StartChar: Acircumflexacute
Encoding: 7844 7844 145
Width: 667
Flags: MW
HStem: 0 21G<28 102 28 28 546 638 546 546> 204 56<255 503 255 513 222 503> 674 20G<437 525 525 525> 736 21G<333 392 333 333 586 645 586 586> 1007 20G<583 694 694 694>
VStem: 28 610<0 0>
LayerCount: 2
Fore
SplineSet
638 0 m 1
 546 0 l 1
 513 204 l 1
 222 204 l 1
 102 0 l 1
 28 0 l 1
 437 694 l 1
 525 694 l 1
 638 0 l 1
503 260 m 1
 467 517 l 2
 458 583 456 608 457 622 c 1
 456 622 l 1
 441 585 392 500 359 441 c 0
 277 298 337 403 255 260 c 1
 503 260 l 1
645 736 m 1x18
 586 736 l 1
 510 833 l 1
 392 736 l 1
 333 736 l 1
 488 870 l 1
 548 870 l 1
 645 736 l 1x18
694 1027 m 1
 471 905 l 1
 382 905 l 1
 583 1027 l 1
 694 1027 l 1
EndSplineSet
Validated: 33
Position2: "'cpsp' Capital Spacing lookup 0 subtable" dx=7 dy=0 dh=14 dv=0
EndChar

StartChar: acircumflexacute
Encoding: 7845 7845 146
Width: 481
Flags: MW
HStem: -11 61<122.5 235.5> 194 53 402 59<309.5 352.5> 525 21G<196 255 196 196 449 508 449 449> 796 20G<445 556 556 556>
LayerCount: 2
Fore
SplineSet
409 0 m 1
 334 0 l 1
 342 36 l 1
 274 -9 180 -11 166 -11 c 0
 79 -11 69 70 78 113 c 0
 97 201 233 243 383 245 c 1
 392 288 l 2
 408 362 376 402 329 402 c 0
 280 402 228 389 168 352 c 1
 176 418 l 1
 229 445 277 461 342 461 c 0
 434 461 492 391 470 289 c 2
 409 0 l 1
359 132 m 2
 372 194 l 1
 329 192 165 185 150 115 c 0
 142 73 182 50 230 50 c 0
 241 50 279 51 312 69 c 0
 350 88 355 113 359 132 c 2
508 525 m 1x18
 449 525 l 1
 372 622 l 1
 255 525 l 1
 196 525 l 1
 350 659 l 1
 410 659 l 1
 508 525 l 1x18
556 816 m 1
 334 694 l 1
 245 694 l 1
 445 816 l 1
 556 816 l 1
EndSplineSet
Validated: 33
EndChar

StartChar: Acircumflexdotbelow
Encoding: 7852 7852 147
Width: 667
Flags: MW
HStem: 0 21G<28 102 28 28 546 638 546 546> 204 56<255 503 255 513 222 503> 674 20G<437 525 525 525> 736 21G<333 392 333 333 586 645 586 586> 850 20G<488 548 548 548>
VStem: 28 610<0 0> 245 89<-200 -200> 264 89<-111 -111>
LayerCount: 2
Fore
SplineSet
638 0 m 1xfc
 546 0 l 1
 513 204 l 1
 222 204 l 1
 102 0 l 1
 28 0 l 1
 437 694 l 1
 525 694 l 1
 638 0 l 1xfc
503 260 m 1
 467 517 l 2
 458 583 456 608 457 622 c 1
 456 622 l 1
 441 585 392 500 359 441 c 0
 277 298 337 403 255 260 c 1
 503 260 l 1
645 736 m 1
 586 736 l 1
 510 833 l 1
 392 736 l 1
 333 736 l 1
 488 870 l 1
 548 870 l 1
 645 736 l 1
334 -200 m 1x01
 245 -200 l 1x02
 264 -111 l 1
 353 -111 l 1
 334 -200 l 1x01
EndSplineSet
Validated: 33
Position2: "'cpsp' Capital Spacing lookup 0 subtable" dx=7 dy=0 dh=14 dv=0
EndChar

StartChar: acircumflexdotbelow
Encoding: 7853 7853 148
Width: 481
Flags: MW
HStem: -11 61<122.5 235.5> 194 53 402 59<309.5 352.5> 525 21G<197 256 197 197 448 507 448 448> 677 20G<358 418 418 418>
VStem: 152 89<-200 -200> 171 89<-111 -111>
LayerCount: 2
Fore
SplineSet
409 0 m 1xf8
 334 0 l 1
 342 36 l 1
 274 -9 180 -11 166 -11 c 0
 79 -11 69 70 78 113 c 0
 97 201 233 243 383 245 c 1
 392 288 l 2
 408 362 376 402 329 402 c 0
 280 402 228 389 168 352 c 1
 176 418 l 1
 229 445 277 461 342 461 c 0
 434 461 492 391 470 289 c 2
 409 0 l 1xf8
359 132 m 2
 372 194 l 1
 329 192 165 185 150 115 c 0
 142 73 182 50 230 50 c 0
 241 50 279 51 312 69 c 0
 350 88 355 113 359 132 c 2
507 525 m 1
 448 525 l 1
 378 648 l 1
 256 525 l 1
 197 525 l 1
 358 697 l 1
 418 697 l 1
 507 525 l 1
241 -200 m 1x02
 152 -200 l 1x04
 171 -111 l 1
 260 -111 l 1
 241 -200 l 1x02
EndSplineSet
Validated: 33
EndChar

StartChar: Acircumflexgrave
Encoding: 7846 7846 149
Width: 667
Flags: MW
HStem: 0 21G<28 102 28 28 546 638 546 546> 204 56<255 503 255 513 222 503> 674 20G<437 525 525 525> 736 21G<333 392 333 333 586 645 586 586> 850 20G<488 548 548 548>
VStem: 28 610<0 0>
LayerCount: 2
Fore
SplineSet
638 0 m 1
 546 0 l 1
 513 204 l 1
 222 204 l 1
 102 0 l 1
 28 0 l 1
 437 694 l 1
 525 694 l 1
 638 0 l 1
503 260 m 1
 467 517 l 2
 458 583 456 608 457 622 c 1
 456 622 l 1
 441 585 392 500 359 441 c 0
 277 298 337 403 255 260 c 1
 503 260 l 1
645 736 m 1x18
 586 736 l 1
 510 833 l 1
 392 736 l 1
 333 736 l 1
 488 870 l 1
 548 870 l 1
 645 736 l 1x18
668 905 m 1
 519 1027 l 1
 408 1027 l 1
 579 905 l 1
 668 905 l 1
EndSplineSet
Validated: 41
Position2: "'cpsp' Capital Spacing lookup 0 subtable" dx=7 dy=0 dh=14 dv=0
EndChar

StartChar: acircumflexgrave
Encoding: 7847 7847 150
Width: 481
Flags: MW
HStem: -11 61<122.5 235.5> 194 53 402 59<309.5 352.5> 525 21G<196 255 196 196 449 508 449 449> 639 20G<350 410 410 410>
LayerCount: 2
Fore
SplineSet
409 0 m 1
 334 0 l 1
 342 36 l 1
 274 -9 180 -11 166 -11 c 0
 79 -11 69 70 78 113 c 0
 97 201 233 243 383 245 c 1
 392 288 l 2
 408 362 376 402 329 402 c 0
 280 402 228 389 168 352 c 1
 176 418 l 1
 229 445 277 461 342 461 c 0
 434 461 492 391 470 289 c 2
 409 0 l 1
359 132 m 2
 372 194 l 1
 329 192 165 185 150 115 c 0
 142 73 182 50 230 50 c 0
 241 50 279 51 312 69 c 0
 350 88 355 113 359 132 c 2
508 525 m 1x18
 449 525 l 1
 372 622 l 1
 255 525 l 1
 196 525 l 1
 350 659 l 1
 410 659 l 1
 508 525 l 1x18
531 694 m 1
 381 816 l 1
 270 816 l 1
 442 694 l 1
 531 694 l 1
EndSplineSet
Validated: 41
EndChar

StartChar: Acircumflexhookabove
Encoding: 7848 7848 151
Width: 667
Flags: MW
HStem: 0 21G<28 102 28 28 546 638 546 546> 204 56<255 503 255 513 222 503> 674 20G<437 525 525 525> 736 21G<333 392 333 333 586 645 586 586> 1080 20G<639.5 672.5>
VStem: 28 610<0 0>
LayerCount: 2
Fore
SplineSet
638 0 m 1
 546 0 l 1
 513 204 l 1
 222 204 l 1
 102 0 l 1
 28 0 l 1
 437 694 l 1
 525 694 l 1
 638 0 l 1
503 260 m 1
 467 517 l 2
 458 583 456 608 457 622 c 1
 456 622 l 1
 441 585 392 500 359 441 c 0
 277 298 337 403 255 260 c 1
 503 260 l 1
645 736 m 1x18
 586 736 l 1
 510 833 l 1
 392 736 l 1
 333 736 l 1
 488 870 l 1
 548 870 l 1
 645 736 l 1x18
744 1022 m 0
 740 1002 726 983 706 972 c 2
 692 963 l 2
 654 943 635 930 629 905 c 2
 625 886 l 1
 624 885 l 1
 598 885 l 1
 597 886 l 1
 601 905 l 2
 610 946 638 983 676 1001 c 0
 685 1006 692 1014 694 1022 c 0
 697 1035 695 1046 688 1052 c 0
 679 1059 667 1061 648 1061 c 0
 617 1061 586 1044 565 1017 c 1
 564 1017 l 1
 563 1017 l 1
 558 1057 l 1
 585 1085 622 1100 657 1100 c 0
 688 1100 713 1095 729 1080 c 0
 745 1067 749 1045 744 1022 c 0
EndSplineSet
Validated: 33
Position2: "'cpsp' Capital Spacing lookup 0 subtable" dx=7 dy=0 dh=14 dv=0
EndChar

StartChar: acircumflexhookabove
Encoding: 7849 7849 152
Width: 481
Flags: MW
HStem: -11 61<122.5 235.5> 194 53 402 59<309.5 352.5> 525 21G<196 255 196 196 449 508 449 449> 869 20G<501.5 534.5>
LayerCount: 2
Fore
SplineSet
409 0 m 1
 334 0 l 1
 342 36 l 1
 274 -9 180 -11 166 -11 c 0
 79 -11 69 70 78 113 c 0
 97 201 233 243 383 245 c 1
 392 288 l 2
 408 362 376 402 329 402 c 0
 280 402 228 389 168 352 c 1
 176 418 l 1
 229 445 277 461 342 461 c 0
 434 461 492 391 470 289 c 2
 409 0 l 1
359 132 m 2
 372 194 l 1
 329 192 165 185 150 115 c 0
 142 73 182 50 230 50 c 0
 241 50 279 51 312 69 c 0
 350 88 355 113 359 132 c 2
508 525 m 1x18
 449 525 l 1
 372 622 l 1
 255 525 l 1
 196 525 l 1
 350 659 l 1
 410 659 l 1
 508 525 l 1x18
606 811 m 0
 602 791 588 772 569 761 c 2
 554 752 l 2
 517 732 497 719 492 694 c 2
 487 675 l 1
 486 674 l 1
 460 674 l 1
 459 675 l 1
 464 694 l 2
 472 735 500 772 538 790 c 0
 547 795 555 803 556 811 c 0
 559 824 557 835 551 841 c 0
 541 848 530 850 511 850 c 0
 480 850 448 833 427 806 c 1
 426 806 l 1
 425 806 l 1
 420 846 l 1
 448 874 484 889 519 889 c 0
 550 889 575 884 592 869 c 0
 607 856 611 834 606 811 c 0
EndSplineSet
Validated: 33
EndChar

StartChar: Acircumflextilde
Encoding: 7850 7850 153
Width: 667
Flags: MW
HStem: 0 21G<28 102 28 28 546 638 546 546> 204 56<255 503 255 513 222 503> 674 20G<437 525 525 525> 736 21G<333 392 333 333 586 645 586 586> 925 61<597.5 621.5> 983 61<463.5 487.5>
VStem: 28 610<0 0>
LayerCount: 2
Fore
SplineSet
638 0 m 1xe2
 546 0 l 1
 513 204 l 1
 222 204 l 1
 102 0 l 1
 28 0 l 1
 437 694 l 1
 525 694 l 1
 638 0 l 1xe2
503 260 m 1
 467 517 l 2
 458 583 456 608 457 622 c 1
 456 622 l 1
 441 585 392 500 359 441 c 0
 277 298 337 403 255 260 c 1
 503 260 l 1
645 736 m 1x14
 586 736 l 1
 510 833 l 1
 392 736 l 1
 333 736 l 1
 488 870 l 1
 548 870 l 1
 645 736 l 1x14
722 1044 m 1
 703 966 645 925 598 925 c 0x08
 573 925 556 937 540 950 c 0
 517 969 499 983 476 983 c 0x04
 450 983 433 959 424 925 c 1
 363 925 l 1x08
 382 1003 440 1044 487 1044 c 0x04
 512 1044 529 1032 545 1019 c 0
 568 1000 586 986 609 986 c 0x08
 635 986 653 1010 661 1044 c 1
 722 1044 l 1
EndSplineSet
Validated: 33
Position2: "'cpsp' Capital Spacing lookup 0 subtable" dx=7 dy=0 dh=14 dv=0
EndChar

StartChar: acircumflextilde
Encoding: 7851 7851 154
Width: 481
Flags: MW
HStem: -11 61<122.5 235.5> 194 53 402 59<309.5 352.5> 525 21G<196 255 196 196 449 508 449 449> 714 61<460.5 484.5> 772 61<325.5 349.5>
LayerCount: 2
Fore
SplineSet
409 0 m 1xe0
 334 0 l 1
 342 36 l 1
 274 -9 180 -11 166 -11 c 0
 79 -11 69 70 78 113 c 0
 97 201 233 243 383 245 c 1
 392 288 l 2
 408 362 376 402 329 402 c 0
 280 402 228 389 168 352 c 1
 176 418 l 1
 229 445 277 461 342 461 c 0
 434 461 492 391 470 289 c 2
 409 0 l 1xe0
359 132 m 2
 372 194 l 1
 329 192 165 185 150 115 c 0
 142 73 182 50 230 50 c 0
 241 50 279 51 312 69 c 0
 350 88 355 113 359 132 c 2
508 525 m 1x14
 449 525 l 1
 372 622 l 1
 255 525 l 1
 196 525 l 1
 350 659 l 1
 410 659 l 1
 508 525 l 1x14
584 833 m 1
 565 755 508 714 461 714 c 0x08
 436 714 418 726 402 739 c 0
 379 758 361 772 338 772 c 0x04
 312 772 295 748 287 714 c 1
 226 714 l 1x08
 244 792 302 833 349 833 c 0x04
 374 833 392 821 408 808 c 0
 431 789 449 775 472 775 c 0x08
 498 775 515 799 523 833 c 1
 584 833 l 1
EndSplineSet
Validated: 33
EndChar

StartChar: acute
Encoding: 180 180 155
Width: 500
Flags: MW
HStem: 527 21G<292 353 292 292> 674 20G<461 539 539 539>
LayerCount: 2
Fore
SplineSet
539 694 m 1
 353 527 l 1
 292 527 l 1
 461 694 l 1
 539 694 l 1
EndSplineSet
Validated: 1
EndChar

StartChar: uni0301
Encoding: 769 769 156
Width: 0
Flags: MW
HStem: 527 21G<-198 -137 -198 -198> 674 20G<-29 49 49 49>
LayerCount: 2
Fore
SplineSet
49 694 m 1
 -137 527 l 1
 -198 527 l 1
 -29 694 l 1
 49 694 l 1
EndSplineSet
Validated: 1
EndChar

StartChar: Adblgrave
Encoding: 512 512 157
Width: 667
Flags: MW
HStem: 0 21G<28 102 28 28 546 638 546 546> 204 56<255 503 255 513 222 503> 674 20G<437 525 525 525> 746 21G<378 439 378 378 545 606 545 545> 893 20G<334 412 412 412 501 579 579 579>
VStem: 28 610<0 0>
LayerCount: 2
Fore
SplineSet
638 0 m 1
 546 0 l 1
 513 204 l 1
 222 204 l 1
 102 0 l 1
 28 0 l 1
 437 694 l 1
 525 694 l 1
 638 0 l 1
503 260 m 1
 467 517 l 2
 458 583 456 608 457 622 c 1
 456 622 l 1
 441 585 392 500 359 441 c 0
 277 298 337 403 255 260 c 1
 503 260 l 1
606 746 m 1x18
 545 746 l 1
 501 913 l 1
 579 913 l 1
 606 746 l 1x18
439 746 m 1
 378 746 l 1
 334 913 l 1
 412 913 l 1
 439 746 l 1
EndSplineSet
Validated: 33
Position2: "'cpsp' Capital Spacing lookup 0 subtable" dx=7 dy=0 dh=14 dv=0
EndChar

StartChar: adblgrave
Encoding: 513 513 158
Width: 481
Flags: MW
HStem: -11 61<122.5 235.5> 194 53 402 59<309.5 352.5> 527 21G<266 327 266 266 433 494 433 433> 674 20G<222 300 300 300 389 467 467 467>
LayerCount: 2
Fore
SplineSet
409 0 m 1
 334 0 l 1
 342 36 l 1
 274 -9 180 -11 166 -11 c 0
 79 -11 69 70 78 113 c 0
 97 201 233 243 383 245 c 1
 392 288 l 2
 408 362 376 402 329 402 c 0
 280 402 228 389 168 352 c 1
 176 418 l 1
 229 445 277 461 342 461 c 0
 434 461 492 391 470 289 c 2
 409 0 l 1
359 132 m 2
 372 194 l 1
 329 192 165 185 150 115 c 0
 142 73 182 50 230 50 c 0
 241 50 279 51 312 69 c 0
 350 88 355 113 359 132 c 2
494 527 m 1x18
 433 527 l 1
 389 694 l 1
 467 694 l 1
 494 527 l 1x18
327 527 m 1
 266 527 l 1
 222 694 l 1
 300 694 l 1
 327 527 l 1
EndSplineSet
Validated: 33
EndChar

StartChar: Adieresis
Encoding: 196 196 159
Width: 667
Flags: MW
HStem: 0 21G<28 102 28 28 546 638 546 546> 204 56<255 503 255 513 222 503> 674 20G<437 525 525 525> 736 80<379 442 362 459 379 536 553 616>
VStem: 28 610<0 0> 362 80<736 736> 379 80<816 816> 536 80<736 736> 553 80<816 816>
LayerCount: 2
Fore
SplineSet
638 0 m 1xe8
 546 0 l 1
 513 204 l 1
 222 204 l 1
 102 0 l 1
 28 0 l 1
 437 694 l 1
 525 694 l 1
 638 0 l 1xe8
503 260 m 1
 467 517 l 2
 458 583 456 608 457 622 c 1
 456 622 l 1
 441 585 392 500 359 441 c 0
 277 298 337 403 255 260 c 1
 503 260 l 1
442 736 m 1x12
 362 736 l 1x1480
 379 816 l 1
 459 816 l 1
 442 736 l 1x12
616 736 m 1
 536 736 l 1x11
 553 816 l 1
 633 816 l 1
 616 736 l 1
EndSplineSet
Validated: 33
Position2: "'cpsp' Capital Spacing lookup 0 subtable" dx=7 dy=0 dh=14 dv=0
EndChar

StartChar: adieresis
Encoding: 228 228 160
Width: 481
Flags: MW
HStem: -11 61<122.5 235.5> 194 53 402 59<309.5 352.5> 571 80<265 328 248 345 265 394 411 474>
VStem: 248 80<571 571> 265 80<651 651> 394 80<571 571> 411 80<651 651>
LayerCount: 2
Fore
SplineSet
409 0 m 1xe0
 334 0 l 1
 342 36 l 1
 274 -9 180 -11 166 -11 c 0
 79 -11 69 70 78 113 c 0
 97 201 233 243 383 245 c 1
 392 288 l 2
 408 362 376 402 329 402 c 0
 280 402 228 389 168 352 c 1
 176 418 l 1
 229 445 277 461 342 461 c 0
 434 461 492 391 470 289 c 2
 409 0 l 1xe0
359 132 m 2
 372 194 l 1
 329 192 165 185 150 115 c 0
 142 73 182 50 230 50 c 0
 241 50 279 51 312 69 c 0
 350 88 355 113 359 132 c 2
328 571 m 1x14
 248 571 l 1x19
 265 651 l 1
 345 651 l 1
 328 571 l 1x14
474 571 m 1
 394 571 l 1x12
 411 651 l 1
 491 651 l 1
 474 571 l 1
EndSplineSet
Validated: 33
EndChar

StartChar: Adotbelow
Encoding: 7840 7840 161
Width: 667
Flags: MW
HStem: 0 21G<28 102 28 28 546 638 546 546> 204 56<255 503 255 513 222 503> 674 20G<437 525 525 525>
VStem: 28 610<0 0> 245 89<-200 -200> 264 89<-111 -111>
LayerCount: 2
Fore
SplineSet
638 0 m 1xf0
 546 0 l 1
 513 204 l 1
 222 204 l 1
 102 0 l 1
 28 0 l 1
 437 694 l 1
 525 694 l 1
 638 0 l 1xf0
503 260 m 1
 467 517 l 2
 458 583 456 608 457 622 c 1
 456 622 l 1
 441 585 392 500 359 441 c 0
 277 298 337 403 255 260 c 1
 503 260 l 1
334 -200 m 1x04
 245 -200 l 1x08
 264 -111 l 1
 353 -111 l 1
 334 -200 l 1x04
EndSplineSet
Validated: 33
Position2: "'cpsp' Capital Spacing lookup 0 subtable" dx=7 dy=0 dh=14 dv=0
EndChar

StartChar: adotbelow
Encoding: 7841 7841 162
Width: 481
Flags: MW
HStem: -11 61<122.5 235.5> 194 53 402 59<309.5 352.5>
VStem: 152 89<-200 -200> 171 89<-111 -111>
LayerCount: 2
Fore
SplineSet
409 0 m 1xe0
 334 0 l 1
 342 36 l 1
 274 -9 180 -11 166 -11 c 0
 79 -11 69 70 78 113 c 0
 97 201 233 243 383 245 c 1
 392 288 l 2
 408 362 376 402 329 402 c 0
 280 402 228 389 168 352 c 1
 176 418 l 1
 229 445 277 461 342 461 c 0
 434 461 492 391 470 289 c 2
 409 0 l 1xe0
359 132 m 2
 372 194 l 1
 329 192 165 185 150 115 c 0
 142 73 182 50 230 50 c 0
 241 50 279 51 312 69 c 0
 350 88 355 113 359 132 c 2
241 -200 m 1x08
 152 -200 l 1x10
 171 -111 l 1
 260 -111 l 1
 241 -200 l 1x08
EndSplineSet
Validated: 33
EndChar

StartChar: AE
Encoding: 198 198 163
Width: 861
Flags: MW
HStem: 0 70<522 692 692 698 522 818> 222 56<276 466 241 478> 330 61<590 847 577 860> 629 65<779 785 785 938>
VStem: 553 88<630 630>
LayerCount: 2
Fore
SplineSet
818 0 m 1
 419 0 l 1
 466 222 l 1
 241 222 l 1
 103 0 l 1
 28 0 l 1
 460 694 l 1
 952 694 l 1
 938 629 l 1
 785 629 l 2
 773 629 761 630 749 630 c 2
 641 630 l 1
 590 391 l 1
 860 391 l 1
 847 330 l 1
 577 330 l 1
 522 70 l 1
 692 70 l 2
 704 70 716 71 728 71 c 2
 833 71 l 1
 818 0 l 1
478 278 m 1
 553 630 l 1
 495 630 l 1
 276 278 l 1
 478 278 l 1
EndSplineSet
Validated: 1
Position2: "'cpsp' Capital Spacing lookup 0 subtable" dx=7 dy=0 dh=14 dv=0
EndChar

StartChar: ae
Encoding: 230 230 164
Width: 722
Flags: MW
HStem: -11 61<111 229.5 528.5 565> 66 61 219 55<463 692 463 740 447 692> 400 61<598 628.5> 402 59<300 342.5>
VStem: 71 72<114 114> 375 72<219 247> 463 78 541 72 625 72
LayerCount: 2
Fore
SplineSet
740 219 m 1xeec0
 447 219 l 1
 429 112 484 50 555 50 c 0
 583 50 641 57 705 106 c 1
 697 41 l 1
 645 5 589 -11 541 -11 c 0
 516 -11 442 -8 394 66 c 1
 331 -8 187 -11 159 -11 c 0
 63 -11 64 81 71 114 c 0
 97 234 317 244 375 247 c 1
 383 288 l 2
 399 364 365 402 320 402 c 0
 263 402 213 386 158 352 c 1
 166 418 l 1
 219 445 268 461 332 461 c 0
 389 461 437 432 457 384 c 1
 508 434 571 461 625 461 c 0
 791 461 747 254 740 219 c 1xeec0
692 274 m 1
 701 384 644 400 613 400 c 0xf480
 559 400 497 351 463 274 c 1x21
 692 274 l 1
354 127 m 0
 357 139 363 184 364 191 c 1
 323 191 158 183 143 115 c 0
 136 78 168 50 222 50 c 0
 237 50 338 50 354 127 c 0
EndSplineSet
Validated: 33
EndChar

StartChar: AEacute
Encoding: 508 508 165
Width: 861
Flags: MW
HStem: 0 70<522 692 692 698 522 818> 222 56<276 466 241 478> 330 61<590 847 577 860> 629 65<779 785 785 938> 746 21G<494 583 494 494> 848 20G<695 806 806 806>
VStem: 553 88<630 630>
LayerCount: 2
Fore
SplineSet
818 0 m 1
 419 0 l 1
 466 222 l 1
 241 222 l 1
 103 0 l 1
 28 0 l 1
 460 694 l 1
 952 694 l 1
 938 629 l 1
 785 629 l 2
 773 629 761 630 749 630 c 2
 641 630 l 1
 590 391 l 1
 860 391 l 1
 847 330 l 1
 577 330 l 1
 522 70 l 1
 692 70 l 2
 704 70 716 71 728 71 c 2
 833 71 l 1
 818 0 l 1
478 278 m 1
 553 630 l 1
 495 630 l 1
 276 278 l 1
 478 278 l 1
806 868 m 1x0c
 583 746 l 1
 494 746 l 1
 695 868 l 1
 806 868 l 1x0c
EndSplineSet
Validated: 1
Position2: "'cpsp' Capital Spacing lookup 0 subtable" dx=7 dy=0 dh=14 dv=0
EndChar

StartChar: aeacute
Encoding: 509 509 166
Width: 722
Flags: MW
HStem: -11 61<111 229.5 528.5 565> 66 61 219 55<463 692 463 740 447 692> 400 61<598 628.5> 402 59<300 342.5> 527 21G<403 464 403 403> 674 20G<572 650 650 650>
VStem: 71 72<114 114> 375 72<219 247> 463 78 541 72 625 72
LayerCount: 2
Fore
SplineSet
740 219 m 1xe9b0
 447 219 l 1
 429 112 484 50 555 50 c 0
 583 50 641 57 705 106 c 1
 697 41 l 1
 645 5 589 -11 541 -11 c 0
 516 -11 442 -8 394 66 c 1
 331 -8 187 -11 159 -11 c 0
 63 -11 64 81 71 114 c 0
 97 234 317 244 375 247 c 1
 383 288 l 2
 399 364 365 402 320 402 c 0
 263 402 213 386 158 352 c 1
 166 418 l 1
 219 445 268 461 332 461 c 0
 389 461 437 432 457 384 c 1
 508 434 571 461 625 461 c 0
 791 461 747 254 740 219 c 1xe9b0
692 274 m 1
 701 384 644 400 613 400 c 0xf120
 559 400 497 351 463 274 c 1x2040
 692 274 l 1
354 127 m 0
 357 139 363 184 364 191 c 1
 323 191 158 183 143 115 c 0
 136 78 168 50 222 50 c 0
 237 50 338 50 354 127 c 0
650 694 m 1x06
 464 527 l 1
 403 527 l 1
 572 694 l 1
 650 694 l 1x06
EndSplineSet
Validated: 33
EndChar

StartChar: Agrave
Encoding: 192 192 167
Width: 667
Flags: MW
HStem: 0 21G<28 102 28 28 546 638 546 546> 204 56<255 503 255 513 222 503> 674 20G<437 525 525 525> 746 21G<497 586 497 497> 848 20G<326 437 437 437>
VStem: 28 610<0 0>
LayerCount: 2
Fore
SplineSet
638 0 m 1
 546 0 l 1
 513 204 l 1
 222 204 l 1
 102 0 l 1
 28 0 l 1
 437 694 l 1
 525 694 l 1
 638 0 l 1
503 260 m 1
 467 517 l 2
 458 583 456 608 457 622 c 1
 456 622 l 1
 441 585 392 500 359 441 c 0
 277 298 337 403 255 260 c 1
 503 260 l 1
586 746 m 1x18
 497 746 l 1
 326 868 l 1
 437 868 l 1
 586 746 l 1x18
EndSplineSet
Validated: 33
Position2: "'cpsp' Capital Spacing lookup 0 subtable" dx=7 dy=0 dh=14 dv=0
EndChar

StartChar: agrave
Encoding: 224 224 168
Width: 481
Flags: MW
HStem: -11 61<122.5 235.5> 194 53 402 59<309.5 352.5> 527 21G<361 422 361 361> 674 20G<247 325 325 325>
LayerCount: 2
Fore
SplineSet
409 0 m 1
 334 0 l 1
 342 36 l 1
 274 -9 180 -11 166 -11 c 0
 79 -11 69 70 78 113 c 0
 97 201 233 243 383 245 c 1
 392 288 l 2
 408 362 376 402 329 402 c 0
 280 402 228 389 168 352 c 1
 176 418 l 1
 229 445 277 461 342 461 c 0
 434 461 492 391 470 289 c 2
 409 0 l 1
359 132 m 2
 372 194 l 1
 329 192 165 185 150 115 c 0
 142 73 182 50 230 50 c 0
 241 50 279 51 312 69 c 0
 350 88 355 113 359 132 c 2
422 527 m 1x18
 361 527 l 1
 247 694 l 1
 325 694 l 1
 422 527 l 1x18
EndSplineSet
Validated: 33
EndChar

StartChar: Ahookabove
Encoding: 7842 7842 169
Width: 667
Flags: MW
HStem: 0 21G<28 102 28 28 546 638 546 546> 204 56<255 503 255 513 222 503> 674 20G<437 525 525 525> 736 21G<469 495 469 469> 931 20G<510.5 543.5>
VStem: 28 610<0 0>
LayerCount: 2
Fore
SplineSet
638 0 m 1
 546 0 l 1
 513 204 l 1
 222 204 l 1
 102 0 l 1
 28 0 l 1
 437 694 l 1
 525 694 l 1
 638 0 l 1
503 260 m 1
 467 517 l 2
 458 583 456 608 457 622 c 1
 456 622 l 1
 441 585 392 500 359 441 c 0
 277 298 337 403 255 260 c 1
 503 260 l 1
615 873 m 0x18
 611 853 597 834 578 823 c 2
 563 814 l 2
 526 794 506 781 501 756 c 2
 497 737 l 1
 495 736 l 1
 469 736 l 1
 469 737 l 1
 473 756 l 2
 481 797 509 834 547 852 c 0
 556 857 564 865 565 873 c 0
 568 886 567 897 560 903 c 0
 550 910 539 912 520 912 c 0
 489 912 457 895 436 868 c 1
 435 868 l 1
 434 868 l 1
 429 908 l 1
 457 936 493 951 528 951 c 0
 559 951 584 946 601 931 c 0
 616 918 620 896 615 873 c 0x18
EndSplineSet
Validated: 33
Position2: "'cpsp' Capital Spacing lookup 0 subtable" dx=7 dy=0 dh=14 dv=0
EndChar

StartChar: ahookabove
Encoding: 7843 7843 170
Width: 481
Flags: MW
HStem: -11 61<122.5 235.5> 194 53 402 59<309.5 352.5> 503 21G<327 353 327 327> 698 20G<368.5 401.5>
LayerCount: 2
Fore
SplineSet
409 0 m 1
 334 0 l 1
 342 36 l 1
 274 -9 180 -11 166 -11 c 0
 79 -11 69 70 78 113 c 0
 97 201 233 243 383 245 c 1
 392 288 l 2
 408 362 376 402 329 402 c 0
 280 402 228 389 168 352 c 1
 176 418 l 1
 229 445 277 461 342 461 c 0
 434 461 492 391 470 289 c 2
 409 0 l 1
359 132 m 2
 372 194 l 1
 329 192 165 185 150 115 c 0
 142 73 182 50 230 50 c 0
 241 50 279 51 312 69 c 0
 350 88 355 113 359 132 c 2
473 640 m 0x18
 469 620 455 601 435 590 c 2
 420 581 l 2
 383 561 363 548 358 523 c 2
 354 504 l 1
 353 503 l 1
 327 503 l 1
 326 504 l 1
 330 523 l 2
 339 564 367 601 405 619 c 0
 414 624 421 632 423 640 c 0
 426 653 424 664 417 670 c 0
 408 677 396 679 377 679 c 0
 346 679 315 662 294 635 c 1
 293 635 l 1
 292 635 l 1
 286 675 l 1
 314 703 351 718 386 718 c 0
 417 718 442 713 458 698 c 0
 474 685 478 663 473 640 c 0x18
EndSplineSet
Validated: 33
EndChar

StartChar: Amacron
Encoding: 256 256 171
Width: 667
Flags: MW
HStem: 0 21G<28 102 28 28 546 638 546 546> 204 56<255 503 255 513 222 503> 674 20G<437 525 525 525> 756 64<327 675 314 688>
VStem: 28 610<0 0>
LayerCount: 2
Fore
SplineSet
638 0 m 1
 546 0 l 1
 513 204 l 1
 222 204 l 1
 102 0 l 1
 28 0 l 1
 437 694 l 1
 525 694 l 1
 638 0 l 1
503 260 m 1
 467 517 l 2
 458 583 456 608 457 622 c 1
 456 622 l 1
 441 585 392 500 359 441 c 0
 277 298 337 403 255 260 c 1
 503 260 l 1
675 756 m 1x10
 314 756 l 1
 327 820 l 1
 688 820 l 1
 675 756 l 1x10
EndSplineSet
Validated: 33
Position2: "'cpsp' Capital Spacing lookup 0 subtable" dx=7 dy=0 dh=14 dv=0
EndChar

StartChar: amacron
Encoding: 257 257 172
Width: 481
Flags: MW
HStem: -11 61<122.5 235.5> 194 53 402 59<309.5 352.5> 579 64<197 544 183 558>
LayerCount: 2
Fore
SplineSet
409 0 m 1
 334 0 l 1
 342 36 l 1
 274 -9 180 -11 166 -11 c 0
 79 -11 69 70 78 113 c 0
 97 201 233 243 383 245 c 1
 392 288 l 2
 408 362 376 402 329 402 c 0
 280 402 228 389 168 352 c 1
 176 418 l 1
 229 445 277 461 342 461 c 0
 434 461 492 391 470 289 c 2
 409 0 l 1
359 132 m 2
 372 194 l 1
 329 192 165 185 150 115 c 0
 142 73 182 50 230 50 c 0
 241 50 279 51 312 69 c 0
 350 88 355 113 359 132 c 2
544 579 m 1x10
 183 579 l 1
 197 643 l 1
 558 643 l 1
 544 579 l 1x10
EndSplineSet
Validated: 33
EndChar

StartChar: anglearc
Encoding: 8738 8738 173
Width: 778
Flags: MW
HStem: -83 21G<443.5 452> 563 20G<585.5 594>
VStem: 610 40<250 250> 618 40<397 411>
LayerCount: 2
Fore
SplineSet
725 20 m 0x20
 722 6 706 -4 694 1 c 2
 569 51 l 1
 540 6 506 -37 467 -75 c 0
 462 -80 455 -83 449 -83 c 0
 438 -83 431 -74 434 -63 c 0
 435 -58 438 -54 440 -51 c 0
 477 -15 508 24 534 65 c 1
 118 231 l 2
 111 234 107 241 109 250 c 0
 111 259 118 266 126 269 c 2
 612 435 l 1
 604 476 589 515 568 551 c 0
 567 554 566 558 567 563 c 0
 569 574 580 583 591 583 c 0
 597 583 602 580 605 575 c 0
 628 537 644 494 653 449 c 1
 800 499 l 2
 814 504 826 494 823 480 c 0
 821 471 815 464 806 461 c 2
 658 411 l 1xd0
 664 359 662 305 650 250 c 0
 638 195 618 141 590 89 c 1
 716 39 l 2
 724 36 727 29 725 20 c 0x20
610 250 m 0
 621 300 623 350 618 397 c 1
 187 250 l 1
 556 103 l 1
 581 150 600 200 610 250 c 0
EndSplineSet
Validated: 33
EndChar

StartChar: angleleft
Encoding: 9001 9001 174
Width: 389
Flags: MW
HStem: -249 21G<250 265.5> 731 20G<474 479.5>
LayerCount: 2
Fore
SplineSet
284 -229 m 0
 282 -239 271 -249 260 -249 c 0
 240 -249 240 -217 238 -198 c 2
 167 224 l 2
 165 232 161 242 163 251 c 0
 165 261 175 272 180 282 c 2
 217 345 l 1
 432 705 l 2
 440 720 452 747 467 750 c 0
 470 751 474 751 474 751 c 2
 485 751 490 741 487 730 c 0
 487 727 486 724 484 722 c 0
 460 677 431 632 405 587 c 2
 224 283 l 1
 212 263 l 2
 210 259 207 255 206 251 c 0
 205 243 208 234 209 226 c 2
 218 174 l 1
 279 -187 l 1
 281 -198 l 2
 282 -207 286 -219 284 -229 c 0
EndSplineSet
Validated: 1
EndChar

StartChar: angleright
Encoding: 9002 9002 175
Width: 389
Flags: MW
HStem: -249 21G<16.5 22 22 24> 731 20G
LayerCount: 2
Fore
SplineSet
331 251 m 0
 329 241 320 230 315 220 c 2
 277 157 l 1
 62 -205 l 1
 50 -226 l 2
 44 -236 36 -248 24 -249 c 2
 22 -249 l 2
 11 -249 4 -240 6 -229 c 0
 8 -223 12 -217 15 -212 c 2
 271 219 l 1
 283 239 l 2
 285 243 288 247 288 251 c 0
 290 260 286 270 285 278 c 2
 216 694 l 2
 213 705 208 717 210 729 c 2
 210 731 l 2
 212 740 221 748 229 750 c 0
 232 751 236 751 236 751 c 2
 256 751 255 710 257 702 c 2
 328 280 l 2
 330 271 333 261 331 251 c 0
EndSplineSet
Validated: 33
EndChar

StartChar: Aogonek
Encoding: 260 260 176
Width: 667
Flags: MW
HStem: -212 70 0 21G<28 102 28 28 546 546 609 609 609 638> 204 56<255 503 255 513 222 503> 674 20G<437 525 525 525>
VStem: 437 63 546 63<0 0>
LayerCount: 2
Fore
SplineSet
616 -187 m 1
 572 -206 546 -212 513 -212 c 0
 446 -212 424 -170 432 -127 c 0
 440 -76 490 -28 546 0 c 1
 513 204 l 1
 222 204 l 1
 102 0 l 1
 28 0 l 1
 437 694 l 1
 525 694 l 1
 638 0 l 1
 609 0 l 1
 557 -26 508 -60 500 -104 c 0
 495 -134 517 -140 545 -142 c 0
 567 -143 591 -137 615 -128 c 1
 616 -187 l 1
503 260 m 1
 467 517 l 2
 458 583 456 608 457 622 c 1
 456 622 l 1
 441 585 392 500 359 441 c 0
 277 298 337 403 255 260 c 1
 503 260 l 1
EndSplineSet
Validated: 33
Position2: "'cpsp' Capital Spacing lookup 0 subtable" dx=7 dy=0 dh=14 dv=0
EndChar

StartChar: aogonek
Encoding: 261 261 177
Width: 481
Flags: MW
HStem: -11 61<122.5 235.5> 402 59<309.5 352.5>
LayerCount: 2
Fore
SplineSet
404 -187 m 1
 360 -206 334 -212 301 -212 c 0
 234 -212 212 -170 220 -127 c 0
 228 -76 278 -28 334 0 c 1
 342 36 l 1
 274 -9 180 -11 166 -11 c 0
 79 -11 69 70 78 113 c 0
 97 201 233 243 383 245 c 1
 392 288 l 2
 408 362 376 402 329 402 c 0
 280 402 228 389 168 352 c 1
 176 418 l 1
 229 445 277 461 342 461 c 0
 434 461 492 391 470 289 c 2
 409 0 l 1
 398 0 l 1
 346 -26 296 -60 288 -104 c 0
 283 -134 305 -140 333 -142 c 0
 355 -143 379 -137 403 -128 c 1
 404 -187 l 1
359 132 m 2
 372 194 l 1
 329 192 165 185 150 115 c 0
 142 73 182 50 230 50 c 0
 241 50 279 51 312 69 c 0
 350 88 355 113 359 132 c 2
EndSplineSet
Validated: 33
EndChar

StartChar: Aring
Encoding: 197 197 178
Width: 667
Flags: MW
HStem: 0 21G<28 102 28 28 546 638 546 546> 204 56<255 503 255 513 222 503> 694 47<486 494.5 486 525 486 494.5 486 512.5 486 525> 815 47<501.5 510>
VStem: 28 610<0 0> 513 61
LayerCount: 2
Fore
SplineSet
638 0 m 1xe8
 546 0 l 1
 513 204 l 1xc4
 222 204 l 1
 102 0 l 1
 28 0 l 1
 437 694 l 1
 525 694 l 1
 638 0 l 1xe8
503 260 m 1xc8
 467 517 l 2
 458 583 456 608 457 622 c 1
 456 622 l 1
 441 585 392 500 359 441 c 0
 277 298 337 403 255 260 c 1
 503 260 l 1xc8
548 778 m 0x30
 556 815 514 815 506 815 c 0
 497 815 456 815 448 778 c 0
 440 741 482 741 490 741 c 0
 499 741 540 741 548 778 c 0x30
609 777 m 0
 600 734 545 694 480 694 c 0
 418 694 377 731 387 779 c 0
 397 822 451 862 516 862 c 0
 578 862 619 825 609 777 c 0
EndSplineSet
Validated: 37
Position2: "'cpsp' Capital Spacing lookup 0 subtable" dx=7 dy=0 dh=14 dv=0
EndChar

StartChar: aring
Encoding: 229 229 179
Width: 481
Flags: MW
HStem: -11 61<122.5 235.5> 194 53 402 59<309.5 352.5> 517 47<356 364.5 356 382.5> 638 47<371.5 380>
VStem: 383 61
LayerCount: 2
Fore
SplineSet
409 0 m 1
 334 0 l 1
 342 36 l 1
 274 -9 180 -11 166 -11 c 0
 79 -11 69 70 78 113 c 0
 97 201 233 243 383 245 c 1
 392 288 l 2
 408 362 376 402 329 402 c 0
 280 402 228 389 168 352 c 1
 176 418 l 1
 229 445 277 461 342 461 c 0
 434 461 492 391 470 289 c 2
 409 0 l 1
359 132 m 2
 372 194 l 1
 329 192 165 185 150 115 c 0
 142 73 182 50 230 50 c 0
 241 50 279 51 312 69 c 0
 350 88 355 113 359 132 c 2
418 601 m 0x18
 426 638 384 638 376 638 c 0
 367 638 326 638 318 601 c 0
 310 564 352 564 360 564 c 0
 369 564 410 564 418 601 c 0x18
479 600 m 0
 469 557 415 517 350 517 c 0
 288 517 247 554 257 602 c 0
 266 645 321 685 386 685 c 0
 448 685 489 648 479 600 c 0
EndSplineSet
Validated: 33
EndChar

StartChar: Aringacute
Encoding: 506 506 180
Width: 667
Flags: MW
HStem: 0 21G<28 102 28 28 546 638 546 546> 204 56<255 503 255 513 222 503> 694 47<486 494.5 486 525 486 494.5 486 512.5 486 525> 815 47<501.5 510> 999 20G<581 692 692 692>
VStem: 28 610<0 0> 513 61
LayerCount: 2
Fore
SplineSet
638 0 m 1xe4
 546 0 l 1
 513 204 l 1xc2
 222 204 l 1
 102 0 l 1
 28 0 l 1
 437 694 l 1
 525 694 l 1
 638 0 l 1xe4
503 260 m 1xc4
 467 517 l 2
 458 583 456 608 457 622 c 1
 456 622 l 1
 441 585 392 500 359 441 c 0
 277 298 337 403 255 260 c 1
 503 260 l 1xc4
548 778 m 0x38
 556 815 514 815 506 815 c 0
 497 815 456 815 448 778 c 0
 440 741 482 741 490 741 c 0
 499 741 540 741 548 778 c 0x38
609 777 m 0
 600 734 545 694 480 694 c 0
 418 694 377 731 387 779 c 0
 397 822 451 862 516 862 c 0
 578 862 619 825 609 777 c 0
692 1019 m 1
 470 897 l 1
 381 897 l 1
 581 1019 l 1
 692 1019 l 1
EndSplineSet
Validated: 37
Position2: "'cpsp' Capital Spacing lookup 0 subtable" dx=7 dy=0 dh=14 dv=0
EndChar

StartChar: aringacute
Encoding: 507 507 181
Width: 481
Flags: MW
HStem: -11 61<122.5 235.5> 194 53 402 59<309.5 352.5> 517 47<356 364.5 356 382.5> 638 47<371.5 380> 822 20G<451 562 562 562>
VStem: 383 61
LayerCount: 2
Fore
SplineSet
409 0 m 1
 334 0 l 1
 342 36 l 1
 274 -9 180 -11 166 -11 c 0
 79 -11 69 70 78 113 c 0
 97 201 233 243 383 245 c 1
 392 288 l 2
 408 362 376 402 329 402 c 0
 280 402 228 389 168 352 c 1
 176 418 l 1
 229 445 277 461 342 461 c 0
 434 461 492 391 470 289 c 2
 409 0 l 1
359 132 m 2
 372 194 l 1
 329 192 165 185 150 115 c 0
 142 73 182 50 230 50 c 0
 241 50 279 51 312 69 c 0
 350 88 355 113 359 132 c 2
418 601 m 0x1c
 426 638 384 638 376 638 c 0
 367 638 326 638 318 601 c 0
 310 564 352 564 360 564 c 0
 369 564 410 564 418 601 c 0x1c
479 600 m 0
 469 557 415 517 350 517 c 0
 288 517 247 554 257 602 c 0
 266 645 321 685 386 685 c 0
 448 685 489 648 479 600 c 0
562 842 m 1
 339 720 l 1
 250 720 l 1
 451 842 l 1
 562 842 l 1
EndSplineSet
Validated: 33
EndChar

StartChar: uni2193
Encoding: 8595 8595 182
Width: 500
Flags: MW
VStem: 217 40<-62 -62> 373 40<674 674>
LayerCount: 2
Fore
SplineSet
480 36 m 1
 361 10 255 -80 209 -194 c 1
 211 -80 143 10 36 36 c 1
 44 76 l 1
 124 57 184 7 217 -62 c 1
 373 674 l 2
 379 701 419 701 413 674 c 2
 257 -62 l 1
 318 7 400 57 488 76 c 1
 480 36 l 1
EndSplineSet
Validated: 33
EndChar

StartChar: uni2190
Encoding: 8592 8592 183
Width: 1000
Flags: MW
HStem: -9 21G<255 295 255 255> 231 40<217 966 208 975> 491 20G<366 406 406 406>
LayerCount: 2
Fore
SplineSet
997 251 m 0
 994 233 978 231 966 231 c 2
 208 231 l 1
 266 170 301 85 295 -9 c 1
 255 -9 l 1
 256 106 207 204 109 250 c 1
 110 252 l 1
 230 299 317 396 366 511 c 1
 406 511 l 1
 372 417 301 332 217 271 c 1
 975 271 l 2
 987 271 1001 269 997 251 c 0
EndSplineSet
Validated: 33
EndChar

StartChar: uni2192
Encoding: 8594 8594 184
Width: 1000
Flags: MW
HStem: -9 21G<700 740 700 700> 231 40<125 898 140 889> 491 20G<811 851 851 851>
LayerCount: 2
Fore
SplineSet
996 250 m 1
 876 203 789 106 740 -9 c 1
 700 -9 l 1
 734 85 805 170 889 231 c 1
 131 231 l 2
 119 231 105 233 108 251 c 0
 112 269 128 271 140 271 c 2
 898 271 l 1
 840 332 805 417 811 511 c 1
 851 511 l 1
 850 396 898 298 997 252 c 1
 996 250 l 1
EndSplineSet
Validated: 33
EndChar

StartChar: uni2191
Encoding: 8593 8593 185
Width: 500
Flags: MW
VStem: 193 40<-174 -174> 349 40<562 562>
LayerCount: 2
Fore
SplineSet
562 424 m 1
 482 443 422 493 389 562 c 1
 233 -174 l 2
 227 -201 187 -201 193 -174 c 2
 349 562 l 1
 288 493 206 443 118 424 c 1
 127 464 l 1
 245 490 351 580 398 694 c 1
 395 580 463 490 571 464 c 1
 562 424 l 1
EndSplineSet
Validated: 33
EndChar

StartChar: asterisk.math
Encoding: 8727 8727 186
Width: 500
Flags: MW
HStem: 29 21G<245 266> 453 20G<340 361>
VStem: 229 69<68 68> 266 53<203 203> 287 53<299 299> 307 69<435 435>
LayerCount: 2
Fore
SplineSet
469 160 m 0x08
 465 142 446 123 426 123 c 0
 410 123 400 136 390 145 c 0
 366 164 343 185 319 203 c 1x10
 310 158 308 112 298 67 c 0
 293 43 276 29 256 29 c 0
 234 29 225 46 229 68 c 0xa0
 239 113 257 158 266 203 c 1x10
 234 185 203 164 171 145 c 0
 157 136 141 123 125 123 c 0
 105 123 94 142 98 160 c 0
 104 187 134 194 155 204 c 0
 187 220 222 240 252 250 c 1
 253 252 l 1
 227 262 200 282 175 298 c 0
 158 308 131 315 137 342 c 0
 141 360 160 379 180 379 c 0
 196 379 206 366 216 357 c 0
 240 338 262 317 287 299 c 1x08
 296 344 298 390 307 435 c 0
 313 459 330 473 350 473 c 0
 372 473 381 456 376 434 c 0x44
 367 389 349 344 340 299 c 1
 371 317 403 338 435 357 c 0
 449 366 465 379 481 379 c 0
 501 379 512 360 508 342 c 0
 502 315 471 308 450 298 c 0
 419 282 384 262 354 252 c 1
 353 250 l 1
 379 240 406 220 430 204 c 0
 447 194 475 187 469 160 c 0x08
EndSplineSet
Validated: 33
EndChar

StartChar: Atilde
Encoding: 195 195 187
Width: 667
Flags: MW
HStem: 0 21G<28 102 28 28 546 638 546 546> 204 56<255 503 255 513 222 503> 674 20G<437 525 525 525> 736 61<557.5 581.5> 794 61<423.5 447.5>
VStem: 28 610<0 0>
LayerCount: 2
Fore
SplineSet
638 0 m 1xe4
 546 0 l 1
 513 204 l 1
 222 204 l 1
 102 0 l 1
 28 0 l 1
 437 694 l 1
 525 694 l 1
 638 0 l 1xe4
503 260 m 1
 467 517 l 2
 458 583 456 608 457 622 c 1
 456 622 l 1
 441 585 392 500 359 441 c 0
 277 298 337 403 255 260 c 1
 503 260 l 1
682 855 m 1x08
 663 777 605 736 558 736 c 0x10
 533 736 516 748 500 761 c 0
 477 780 459 794 436 794 c 0x08
 410 794 393 770 384 736 c 1
 323 736 l 1x10
 342 814 400 855 447 855 c 0x08
 472 855 489 843 505 830 c 0
 528 811 546 797 569 797 c 0x10
 595 797 612 821 621 855 c 1
 682 855 l 1x08
EndSplineSet
Validated: 33
Position2: "'cpsp' Capital Spacing lookup 0 subtable" dx=7 dy=0 dh=14 dv=0
EndChar

StartChar: atilde
Encoding: 227 227 188
Width: 481
Flags: MW
HStem: -11 61<122.5 235.5> 194 53 402 59<309.5 352.5> 551 61<425.5 449.5> 609 61<290.5 314.5>
LayerCount: 2
Fore
SplineSet
409 0 m 1xe0
 334 0 l 1
 342 36 l 1
 274 -9 180 -11 166 -11 c 0
 79 -11 69 70 78 113 c 0
 97 201 233 243 383 245 c 1
 392 288 l 2
 408 362 376 402 329 402 c 0
 280 402 228 389 168 352 c 1
 176 418 l 1
 229 445 277 461 342 461 c 0
 434 461 492 391 470 289 c 2
 409 0 l 1xe0
359 132 m 2
 372 194 l 1
 329 192 165 185 150 115 c 0
 142 73 182 50 230 50 c 0
 241 50 279 51 312 69 c 0
 350 88 355 113 359 132 c 2
549 670 m 1x08
 531 592 473 551 426 551 c 0x10
 401 551 384 563 367 576 c 0
 344 595 326 609 303 609 c 0x08
 277 609 260 585 252 551 c 1
 191 551 l 1x10
 210 629 267 670 314 670 c 0x08
 339 670 357 658 373 645 c 0
 396 626 414 612 437 612 c 0x10
 463 612 480 636 488 670 c 1
 549 670 l 1x08
EndSplineSet
Validated: 33
EndChar

StartChar: baht
Encoding: 3647 3647 189
Width: 667
Flags: MW
HStem: 0 56<192 293 192 361 192 357> 330 61<263 363 250 376> 638 56<316 429 316 316>
VStem: 279 64<-64 -64> 279 78<-64 0> 293 64<0 0>
CounterMasks: 1 1c
LayerCount: 2
Fore
SplineSet
650 188 m 0xe4
 629 90 505 0 361 0 c 2
 357 0 l 1xe8
 343 -64 l 1
 279 -64 l 1xf0
 293 0 l 1
 97 0 l 1
 245 694 l 1
 441 694 l 1
 454 758 l 1
 518 758 l 1
 504 693 l 1
 634 685 712 607 694 520 c 0
 677 444 590 386 494 363 c 1
 597 346 668 275 650 188 c 0xe4
615 519 m 0
 627 574 575 621 492 634 c 1
 441 396 l 1
 543 413 605 469 615 519 c 0
376 391 m 1
 429 638 l 1
 316 638 l 1
 263 391 l 1
 376 391 l 1
569 189 m 0
 584 261 517 317 427 328 c 1
 369 57 l 1
 468 65 555 120 569 189 c 0
305 56 m 1
 363 330 l 1
 250 330 l 1
 192 56 l 1
 305 56 l 1
EndSplineSet
Validated: 33
EndChar

StartChar: blanksymbol
Encoding: 9250 9250 190
Width: 517
Flags: MW
HStem: -11 61<258.5 298.5 248.5 342> 335 61<231 241> 394 61<323.5 462> 674 20G<230 305 305 305>
VStem: 82 78<0 0> 230 75<694 694> 449 78<223 223>
LayerCount: 2
Fore
SplineSet
527 223 m 0x20
 499 89 392 -11 292 -11 c 0
 225 -11 189 24 170 46 c 1
 160 0 l 1
 82 0 l 1
 182 470 l 1
 135 435 l 1
 102 482 l 1
 200 557 l 1
 230 694 l 1
 305 694 l 1
 290 625 l 1
 351 672 l 1
 385 625 l 1
 272 539 l 1
 241 396 l 1xde
 312 445 376 455 415 455 c 0
 509 455 554 347 527 223 c 0x20
449 223 m 0
 477 351 410 394 351 394 c 0x22
 296 394 252 359 231 335 c 1
 184 114 l 1
 199 68 229 50 268 50 c 0
 329 50 422 93 449 223 c 0
EndSplineSet
Validated: 33
EndChar

StartChar: breve
Encoding: 728 728 191
Width: 500
Flags: MW
HStem: 522 67<350.5 400 350.5 405.5> 680 20G<231 292 292 292 507 568 568 568>
LayerCount: 2
Fore
SplineSet
568 700 m 1
 543 595 450 522 361 522 c 0
 275 522 210 593 231 700 c 1
 292 700 l 1
 278 628 325 589 376 589 c 0
 424 589 489 626 507 700 c 1
 568 700 l 1
EndSplineSet
Validated: 33
EndChar

StartChar: uni032E
Encoding: 814 814 192
Width: 0
Flags: MW
HStem: -244 67<-302.5 -253 -302.5 -247.5> -86 20G<-422 -361 -361 -361 -146 -85 -85 -85>
LayerCount: 2
Fore
SplineSet
-85 -66 m 1
 -109 -171 -203 -244 -292 -244 c 0
 -378 -244 -443 -173 -422 -66 c 1
 -361 -66 l 1
 -374 -138 -328 -177 -277 -177 c 0
 -229 -177 -164 -140 -146 -66 c 1
 -85 -66 l 1
EndSplineSet
Validated: 33
EndChar

StartChar: uni032F
Encoding: 815 815 193
Width: 0
Flags: MW
HStem: -244 21G<-460 -399 -460 -460 -184 -123 -184 -184> -133 67<-292 -242.5>
LayerCount: 2
Fore
SplineSet
-123 -244 m 1
 -184 -244 l 1
 -171 -172 -217 -133 -268 -133 c 0
 -316 -133 -381 -170 -399 -244 c 1
 -460 -244 l 1
 -436 -139 -342 -66 -253 -66 c 0
 -167 -66 -102 -137 -123 -244 c 1
EndSplineSet
Validated: 33
EndChar

StartChar: uni0306
Encoding: 774 774 194
Width: 0
Flags: MW
HStem: 522 67<-139.5 -90 -139.5 -84.5> 680 20G<-259 -198 -198 -198 17 78 78 78>
LayerCount: 2
Fore
SplineSet
78 700 m 1
 53 595 -40 522 -129 522 c 0
 -215 522 -280 593 -259 700 c 1
 -198 700 l 1
 -212 628 -165 589 -114 589 c 0
 -66 589 -1 626 17 700 c 1
 78 700 l 1
EndSplineSet
Validated: 33
EndChar

StartChar: uni0311
Encoding: 785 785 195
Width: 0
Flags: MW
HStem: 522 21G<-297 -236 -297 -297 -21 40 -21 -21> 633 67<-129 -79.5>
LayerCount: 2
Fore
SplineSet
40 522 m 1
 -21 522 l 1
 -8 594 -54 633 -105 633 c 0
 -153 633 -218 596 -236 522 c 1
 -297 522 l 1
 -273 627 -179 700 -90 700 c 0
 -4 700 61 629 40 522 c 1
EndSplineSet
Validated: 33
EndChar

StartChar: brokenbar
Encoding: 166 166 196
Width: 278
Flags: MW
HStem: -250 21G<76 96> 730 20G<288 308>
VStem: 73 40<-217 -217> 152 40<157 157> 192 40<343 343> 271 40<717 717>
LayerCount: 2
Fore
SplineSet
232 343 m 2x4c
 229 328 219 311 205 311 c 0
 191 311 189 328 192 343 c 2
 271 717 l 2
 274 731 278 750 298 750 c 0
 318 750 314 731 311 717 c 2
 232 343 l 2x4c
113 -217 m 2
 110 -231 106 -250 86 -250 c 0
 66 -250 70 -231 73 -217 c 2
 152 157 l 2xb0
 156 172 165 189 179 189 c 0
 193 189 196 172 192 157 c 2
 113 -217 l 2
EndSplineSet
Validated: 33
EndChar

StartChar: bullet
Encoding: 8226 8226 197
Width: 778
Flags: MW
HStem: 121 286<333 558 272 619>
VStem: 272 286<121 121> 333 286<407 407>
LayerCount: 2
Fore
SplineSet
558 121 m 1xa0
 272 121 l 1xc0
 333 407 l 1
 619 407 l 1
 558 121 l 1xa0
EndSplineSet
Validated: 1
EndChar

StartChar: Cacute
Encoding: 262 262 198
Width: 639
Flags: MW
HStem: -11 64<366.5 403.5> 642 64<494 539> 746 21G<414 503 414 414> 848 20G<615 726 726 726>
LayerCount: 2
Fore
SplineSet
597 45 m 1
 563 27 528 9 492 0 c 0
 456 -10 421 -11 386 -11 c 0
 298 -11 225 29 180 94 c 0
 133 163 120 254 140 347 c 0
 160 440 211 531 288 601 c 0
 361 666 450 706 538 706 c 0
 570 706 602 704 631 698 c 0
 662 692 691 682 718 670 c 1
 687 588 l 1
 665 606 640 621 612 630 c 0
 585 639 554 642 524 642 c 0
 459 642 393 607 341 556 c 0
 283 497 245 422 229 347 c 0
 213 272 219 198 253 139 c 0
 283 88 334 53 399 53 c 0
 433 53 468 54 503 65 c 0
 539 75 572 94 605 114 c 1
 597 45 l 1
726 868 m 1x30
 503 746 l 1
 414 746 l 1
 615 868 l 1
 726 868 l 1x30
EndSplineSet
Validated: 33
Position2: "'cpsp' Capital Spacing lookup 0 subtable" dx=7 dy=0 dh=14 dv=0
EndChar

StartChar: cacute
Encoding: 263 263 199
Width: 444
Flags: MW
HStem: -11 64<222.5 277> 397 64<288 367> 527 21G<286 347 286 286> 674 20G<455 533 533 533>
VStem: 83 78<222 222> 354 78
LayerCount: 2
Fore
SplineSet
424 40 m 1
 362 3 304 -11 250 -11 c 0
 125 -11 57 98 83 222 c 0
 108 340 215 461 354 461 c 0
 415 461 447 452 499 418 c 1
 473 353 l 1
 426 389 393 397 341 397 c 0
 235 397 178 301 161 223 c 0
 141 125 181 53 264 53 c 0
 315 53 372 67 432 107 c 1
 424 40 l 1
533 694 m 1x30
 347 527 l 1
 286 527 l 1
 455 694 l 1
 533 694 l 1x30
EndSplineSet
Validated: 33
EndChar

StartChar: caron
Encoding: 711 711 200
Width: 500
Flags: MW
HStem: 525 21G<332 392 332 332> 677 20G<243 302 302 302 494 553 553 553>
LayerCount: 2
Fore
SplineSet
553 697 m 1
 392 525 l 1
 332 525 l 1
 243 697 l 1
 302 697 l 1
 372 574 l 1
 494 697 l 1
 553 697 l 1
EndSplineSet
Validated: 1
EndChar

StartChar: uni030C
Encoding: 780 780 201
Width: 0
Flags: MW
HStem: 525 21G<-158 -98 -158 -158> 677 20G<-247 -188 -188 -188 4 63 63 63>
LayerCount: 2
Fore
SplineSet
63 697 m 1
 -98 525 l 1
 -158 525 l 1
 -247 697 l 1
 -188 697 l 1
 -118 574 l 1
 4 697 l 1
 63 697 l 1
EndSplineSet
Validated: 1
EndChar

StartChar: Ccaron
Encoding: 268 268 202
Width: 639
Flags: MW
HStem: -11 64<366.5 403.5> 642 64<494 539> 736 21G<477 537 477 477> 850 20G<380 439 439 439 633 692 692 692>
LayerCount: 2
Fore
SplineSet
597 45 m 1
 563 27 528 9 492 0 c 0
 456 -10 421 -11 386 -11 c 0
 298 -11 225 29 180 94 c 0
 133 163 120 254 140 347 c 0
 160 440 211 531 288 601 c 0
 361 666 450 706 538 706 c 0
 570 706 602 704 631 698 c 0
 662 692 691 682 718 670 c 1
 687 588 l 1
 665 606 640 621 612 630 c 0
 585 639 554 642 524 642 c 0
 459 642 393 607 341 556 c 0
 283 497 245 422 229 347 c 0
 213 272 219 198 253 139 c 0
 283 88 334 53 399 53 c 0
 433 53 468 54 503 65 c 0
 539 75 572 94 605 114 c 1
 597 45 l 1
692 870 m 1x30
 537 736 l 1
 477 736 l 1
 380 870 l 1
 439 870 l 1
 515 773 l 1
 633 870 l 1
 692 870 l 1x30
EndSplineSet
Validated: 33
Position2: "'cpsp' Capital Spacing lookup 0 subtable" dx=7 dy=0 dh=14 dv=0
EndChar

StartChar: ccaron
Encoding: 269 269 203
Width: 444
Flags: MW
HStem: -11 64<222.5 277> 397 64<288 367> 525 21G<326 386 326 326> 677 20G<237 296 296 296 488 547 547 547>
VStem: 83 78<222 222> 354 78
LayerCount: 2
Fore
SplineSet
424 40 m 1
 362 3 304 -11 250 -11 c 0
 125 -11 57 98 83 222 c 0
 108 340 215 461 354 461 c 0
 415 461 447 452 499 418 c 1
 473 353 l 1
 426 389 393 397 341 397 c 0
 235 397 178 301 161 223 c 0
 141 125 181 53 264 53 c 0
 315 53 372 67 432 107 c 1
 424 40 l 1
547 697 m 1x30
 386 525 l 1
 326 525 l 1
 237 697 l 1
 296 697 l 1
 366 574 l 1
 488 697 l 1
 547 697 l 1x30
EndSplineSet
Validated: 33
EndChar

StartChar: Ccedilla
Encoding: 199 199 204
Width: 639
Flags: MW
HStem: -22 64<329.5 431.5> 652 64<462.5 571.5>
VStem: 141 89<347 347>
LayerCount: 2
Fore
SplineSet
595 34 m 1
 515 -9 473 -22 390 -22 c 0
 195 -22 100 154 141 347 c 0
 182 543 354 716 546 716 c 0
 612 716 664 705 722 681 c 1
 690 600 l 1
 653 627 611 652 532 652 c 0
 393 652 264 510 230 347 c 0
 197 194 254 42 405 42 c 0
 474 42 521 52 604 103 c 1
 595 34 l 1
388 -46 m 1
 287 -214 l 1
 218 -214 l 1
 327 -46 l 1
 388 -46 l 1
EndSplineSet
Validated: 33
Position2: "'cpsp' Capital Spacing lookup 0 subtable" dx=7 dy=0 dh=14 dv=0
EndChar

StartChar: ccedilla
Encoding: 231 231 205
Width: 444
Flags: MW
HStem: -11 64<222.5 277> 397 64<288 367>
VStem: 83 78<222 222> 354 78
LayerCount: 2
Fore
SplineSet
424 40 m 1
 362 3 304 -11 250 -11 c 0
 125 -11 57 98 83 222 c 0
 108 340 215 461 354 461 c 0
 415 461 447 452 499 418 c 1
 473 353 l 1
 426 389 393 397 341 397 c 0
 235 397 178 301 161 223 c 0
 141 125 181 53 264 53 c 0
 315 53 372 67 432 107 c 1
 424 40 l 1
281 -46 m 1
 180 -214 l 1
 111 -214 l 1
 220 -46 l 1
 281 -46 l 1
EndSplineSet
Validated: 33
EndChar

StartChar: Ccircumflex
Encoding: 264 264 206
Width: 639
Flags: MW
HStem: -11 64<366.5 403.5> 642 64<494 539> 736 21G<351 410 351 351 604 663 604 604> 850 20G<506 566 566 566>
LayerCount: 2
Fore
SplineSet
597 45 m 1
 563 27 528 9 492 0 c 0
 456 -10 421 -11 386 -11 c 0
 298 -11 225 29 180 94 c 0
 133 163 120 254 140 347 c 0
 160 440 211 531 288 601 c 0
 361 666 450 706 538 706 c 0
 570 706 602 704 631 698 c 0
 662 692 691 682 718 670 c 1
 687 588 l 1
 665 606 640 621 612 630 c 0
 585 639 554 642 524 642 c 0
 459 642 393 607 341 556 c 0
 283 497 245 422 229 347 c 0
 213 272 219 198 253 139 c 0
 283 88 334 53 399 53 c 0
 433 53 468 54 503 65 c 0
 539 75 572 94 605 114 c 1
 597 45 l 1
663 736 m 1x30
 604 736 l 1
 528 833 l 1
 410 736 l 1
 351 736 l 1
 506 870 l 1
 566 870 l 1
 663 736 l 1x30
EndSplineSet
Validated: 33
Position2: "'cpsp' Capital Spacing lookup 0 subtable" dx=7 dy=0 dh=14 dv=0
EndChar

StartChar: ccircumflex
Encoding: 265 265 207
Width: 444
Flags: MW
HStem: -11 64<222.5 277> 397 64<288 367> 525 21G<201 260 201 201 452 511 452 452> 677 20G<362 422 422 422>
VStem: 83 78<222 222> 354 78
LayerCount: 2
Fore
SplineSet
424 40 m 1
 362 3 304 -11 250 -11 c 0
 125 -11 57 98 83 222 c 0
 108 340 215 461 354 461 c 0
 415 461 447 452 499 418 c 1
 473 353 l 1
 426 389 393 397 341 397 c 0
 235 397 178 301 161 223 c 0
 141 125 181 53 264 53 c 0
 315 53 372 67 432 107 c 1
 424 40 l 1
511 525 m 1x30
 452 525 l 1
 382 648 l 1
 260 525 l 1
 201 525 l 1
 362 697 l 1
 422 697 l 1
 511 525 l 1x30
EndSplineSet
Validated: 33
EndChar

StartChar: Cdotaccent
Encoding: 266 266 208
Width: 639
Flags: MW
HStem: -11 64<366.5 403.5> 642 64<494 539> 736 89<481 551 462 570>
VStem: 462 89<736 736> 481 89<825 825>
LayerCount: 2
Fore
SplineSet
597 45 m 1xc0
 563 27 528 9 492 0 c 0
 456 -10 421 -11 386 -11 c 0
 298 -11 225 29 180 94 c 0
 133 163 120 254 140 347 c 0
 160 440 211 531 288 601 c 0
 361 666 450 706 538 706 c 0
 570 706 602 704 631 698 c 0
 662 692 691 682 718 670 c 1
 687 588 l 1
 665 606 640 621 612 630 c 0
 585 639 554 642 524 642 c 0
 459 642 393 607 341 556 c 0
 283 497 245 422 229 347 c 0
 213 272 219 198 253 139 c 0
 283 88 334 53 399 53 c 0
 433 53 468 54 503 65 c 0
 539 75 572 94 605 114 c 1
 597 45 l 1xc0
551 736 m 1x28
 462 736 l 1x30
 481 825 l 1
 570 825 l 1
 551 736 l 1x28
EndSplineSet
Validated: 33
Position2: "'cpsp' Capital Spacing lookup 0 subtable" dx=7 dy=0 dh=14 dv=0
EndChar

StartChar: cdotaccent
Encoding: 267 267 209
Width: 444
Flags: MW
HStem: -11 64<222.5 277> 397 64<288 367> 566 89<338 408 319 427>
VStem: 83 78<222 222> 319 89<566 566> 338 89<655 655> 354 78
LayerCount: 2
Fore
SplineSet
424 40 m 1xd2
 362 3 304 -11 250 -11 c 0
 125 -11 57 98 83 222 c 0
 108 340 215 461 354 461 c 0
 415 461 447 452 499 418 c 1
 473 353 l 1
 426 389 393 397 341 397 c 0
 235 397 178 301 161 223 c 0
 141 125 181 53 264 53 c 0
 315 53 372 67 432 107 c 1
 424 40 l 1xd2
408 566 m 1x24
 319 566 l 1x28
 338 655 l 1
 427 655 l 1
 408 566 l 1x24
EndSplineSet
Validated: 33
EndChar

StartChar: cedilla
Encoding: 184 184 210
Width: 444
Flags: MW
HStem: -192 21G<104 173 104 104> -44 20G<214 275 275 275>
LayerCount: 2
Fore
SplineSet
275 -24 m 1
 173 -192 l 1
 104 -192 l 1
 214 -24 l 1
 275 -24 l 1
EndSplineSet
Validated: 1
EndChar

StartChar: cent
Encoding: 162 162 211
Width: 444
Flags: MW
HStem: -10 64<274 287> 397 64<360 374>
VStem: 83 78<222 222> 161 64 198 64<-64 -64> 320 64<508 508> 360 64
LayerCount: 2
Fore
SplineSet
424 40 m 1xc2
 371 9 322 -6 274 -10 c 1
 262 -64 l 1
 198 -64 l 1
 211 -7 l 1
 111 13 60 112 83 222 c 0
 106 327 192 435 309 457 c 1
 320 508 l 1
 384 508 l 1xac
 374 461 l 1
 423 459 453 448 499 418 c 1
 473 353 l 1
 432 384 402 394 360 397 c 1
 287 54 l 1
 332 58 382 73 432 107 c 1
 424 40 l 1xc2
225 59 m 1
 295 390 l 1
 218 368 175 289 161 223 c 0
 144 142 169 79 225 59 c 1
EndSplineSet
Validated: 33
Substitution2: "'onum' Oldstyle Figures lookup 4 subtable" cent.oldstyle
Substitution2: "'aalt' Access All Alternates lookup 0 subtable" cent.oldstyle
EndChar

StartChar: centigrade
Encoding: 8451 8451 212
Width: 861
Flags: MW
HStem: -21 64<545.5 639.5> 473 40<202.5 214 214 223> 513 64<163 239.5> 591 64<230 308> 613 40 653 64<674.5 781.5> 655 40<248 257 257 267>
VStem: 125 89 257 89 362 89
LayerCount: 2
Fore
SplineSet
819 42 m 0x8440
 818 36 815 34 808 30 c 2
 791 21 l 2
 726 -11 671 -21 608 -21 c 0
 407 -21 324 170 362 347 c 0
 401 533 571 717 768 717 c 0x8440
 831 717 890 705 944 682 c 1
 913 600 l 1
 905 603 899 608 893 613 c 0x08
 849 638 809 653 754 653 c 0
 595 653 480 484 451 349 c 0
 422 210 468 43 623 43 c 0
 663 43 706 46 746 63 c 0
 774 74 800 90 826 105 c 1
 823 84 823 63 819 42 c 0x8440
346 585 m 0
 334 527 282 480 223 473 c 1
 214 473 l 2
 146 473 112 524 125 584 c 0
 137 642 188 688 248 695 c 1
 257 695 l 2x4380
 323 695 359 644 346 585 c 0
306 584 m 2
 308 591 l 1
 309 629 285 655 249 655 c 0
 211 655 172 621 164 584 c 2
 163 577 l 1x30
 162 539 185 513 220 513 c 0
 259 513 298 546 306 584 c 2
EndSplineSet
Validated: 33
EndChar

StartChar: circumflex
Encoding: 710 710 213
Width: 500
Flags: MW
HStem: 525 21G<207 266 207 207 458 517 458 458> 677 20G<368 428 428 428>
LayerCount: 2
Fore
SplineSet
517 525 m 1
 458 525 l 1
 388 648 l 1
 266 525 l 1
 207 525 l 1
 368 697 l 1
 428 697 l 1
 517 525 l 1
EndSplineSet
Validated: 1
EndChar

StartChar: uni0302
Encoding: 770 770 214
Width: 0
Flags: MW
HStem: 525 21G<-283 -224 -283 -283 -32 27 -32 -32> 677 20G<-122 -62 -62 -62>
LayerCount: 2
Fore
SplineSet
27 525 m 1
 -32 525 l 1
 -102 648 l 1
 -224 525 l 1
 -283 525 l 1
 -122 697 l 1
 -62 697 l 1
 27 525 l 1
EndSplineSet
Validated: 1
EndChar

StartChar: colonmonetary
Encoding: 8353 8353 215
Width: 639
Flags: MW
HStem: -22 64<378 405 378 405> 652 64<522 546 522 546>
VStem: 141 89<347 347> 299 64<-96 -96> 316 89<-13 42> 405 64 487 64<790 790>
LayerCount: 2
Fore
SplineSet
595 34 m 1xe6
 515 -9 473 -22 390 -22 c 2
 378 -22 l 1
 363 -96 l 1
 299 -96 l 1xb0
 316 -13 l 1x08
 172 26 105 180 141 347 c 0
 177 516 310 669 469 707 c 1
 487 790 l 1
 551 790 l 1
 535 716 l 1
 546 716 l 2
 612 716 664 705 722 681 c 1
 690 600 l 1
 653 627 611 652 532 652 c 2
 522 652 l 1
 392 42 l 1
 405 42 l 2
 474 42 521 52 604 103 c 1
 595 34 l 1xe6
331 56 m 1
 455 638 l 1
 348 598 258 479 230 347 c 0
 203 222 236 98 331 56 c 1
EndSplineSet
Validated: 33
EndChar

StartChar: uni0326
Encoding: 806 806 216
Width: 0
Flags: MW
HStem: -266 21G<-334 -297 -334 -334> -154 75<-294 -288 -310 -220>
LayerCount: 2
Fore
SplineSet
-236 -153 m 1
 -297 -266 l 1
 -334 -266 l 1
 -288 -154 l 1
 -310 -154 l 1
 -294 -79 l 1
 -220 -79 l 1
 -236 -153 l 1
EndSplineSet
Validated: 1
EndChar

StartChar: copyright
Encoding: 169 169 217
Width: 694
Flags: MW
HStem: 0 38<269.5 440.5 269.5 443> 656 38<400.5 571.5>
VStem: 74 38<347 347> 730 38<347 347>
LayerCount: 2
Fore
SplineSet
768 347 m 0
 727 155 539 0 347 0 c 0
 155 0 33 155 74 347 c 0
 115 539 303 694 495 694 c 0
 687 694 809 539 768 347 c 0
730 347 m 0
 766 518 657 656 486 656 c 0
 315 656 148 518 112 347 c 0
 75 176 184 38 355 38 c 0
 526 38 693 176 730 347 c 0
523 150 m 1
 473 123 446 115 394 115 c 0
 271 115 211 226 237 347 c 0
 263 471 371 580 492 580 c 0
 534 580 567 573 602 557 c 1
 583 506 l 1
 559 523 533 539 483 539 c 0
 396 539 315 450 293 347 c 0
 272 251 308 155 403 155 c 0
 447 155 476 162 528 194 c 1
 523 150 l 1
EndSplineSet
Validated: 33
EndChar

StartChar: currency
Encoding: 164 164 218
Width: 778
Flags: MW
HStem: 54 40<376.5 423.5> 406 40<460.5 507.5 460.5 518> 446 40
VStem: 156 40 246 40<250 250> 597 40<250 250> 687 40
LayerCount: 2
Fore
SplineSet
627 15 m 0xbe
 610 1 600 14 592 24 c 2
 533 98 l 1
 494 71 447 54 400 54 c 0
 353 54 314 71 286 98 c 1
 196 24 l 2
 184 14 168 1 156 15 c 0
 145 29 162 42 174 52 c 2
 264 127 l 1
 244 160 236 203 246 250 c 0
 256 297 282 340 316 374 c 1
 258 448 l 2
 250 458 239 472 256 486 c 0
 274 500 285 487 292 477 c 2
 351 402 l 1
 390 429 437 446 484 446 c 0
 531 446 569 429 597 402 c 1
 687 476 l 2
 699 486 715 499 727 485 c 0
 738 471 721 458 709 448 c 2
 619 374 l 1
 640 340 647 297 637 250 c 0
 627 203 602 160 568 127 c 1
 626 52 l 2
 634 42 644 29 627 15 c 0xbe
597 250 m 0
 615 336 561 406 475 406 c 0x44
 389 406 304 336 286 250 c 0
 268 164 323 94 409 94 c 0
 495 94 579 164 597 250 c 0
EndSplineSet
Validated: 33
EndChar

StartChar: dagger
Encoding: 8224 8224 219
Width: 444
Flags: MW
HStem: -216 21G<169.5 181> 397 67<174.5 187.5 438.5 451.5> 685 20G<355 388.5>
VStem: 234 67<218 218> 258 67 301 67 329 67<664 664>
LayerCount: 2
Fore
SplineSet
478 430 m 0x6a
 477 425 469 397 434 397 c 0
 413 397 386 405 368 411 c 0x44
 350 416 331 420 320 421 c 1
 317 394 315 373 315 350 c 0
 314 279 313 272 301 218 c 0
 281 122 254 19 237 -44 c 0
 224 -95 210 -148 193 -198 c 0
 188 -211 187 -216 175 -216 c 0
 164 -216 164 -210 166 -196 c 0
 178 -101 202 67 234 218 c 0
 246 271 247 279 277 351 c 0
 287 376 294 396 301 421 c 1x90
 281 419 255 412 251 411 c 0
 229 405 198 397 177 397 c 0
 146 397 145 418 148 431 c 0
 149 436 157 464 192 464 c 0
 213 464 240 456 258 450 c 0
 276 445 295 441 306 440 c 1
 311 469 314 501 317 547 c 0
 318 571 322 629 329 664 c 0
 331 673 338 705 372 705 c 0
 405 705 398 672 396 664 c 0
 388 627 374 590 362 553 c 0
 337 488 330 460 325 440 c 1
 345 442 371 449 375 450 c 0
 397 456 428 464 449 464 c 0
 480 464 481 443 478 430 c 0x6a
EndSplineSet
Validated: 33
EndChar

StartChar: daggerdbl
Encoding: 8225 8225 220
Width: 444
Flags: MW
HStem: -205 21G<171.5 192> -11 66<89.5 100 356 363> 444 67<184.5 197.5 448.5 461.5> 685 20G<366 388>
VStem: 268 67 330 67<666 666> 392 67
CounterMasks: 1 0e
LayerCount: 2
Fore
SplineSet
488 477 m 0xfa
 487 472 479 444 444 444 c 0
 423 444 396 452 378 458 c 0
 360 463 341 467 330 468 c 1xf4
 326 442 325 414 323 373 c 0
 323 338 321 309 316 289 c 0
 313 275 304 250 274 250 c 0
 263 250 242 254 249 289 c 0
 255 317 271 357 284 390 c 0
 290 404 304 438 311 468 c 1
 291 466 265 459 261 458 c 0
 239 452 208 444 187 444 c 0
 156 444 155 465 158 478 c 0
 159 483 167 511 202 511 c 0
 223 511 250 503 268 497 c 0xf8
 286 492 305 488 316 487 c 1
 320 513 321 541 323 582 c 0
 323 617 325 646 330 666 c 0
 337 702 361 705 371 705 c 0
 405 705 398 673 397 666 c 0xf4
 391 638 375 598 362 565 c 0
 356 551 342 517 335 487 c 1
 355 489 381 496 385 497 c 0
 407 503 438 511 459 511 c 0
 490 511 491 490 488 477 c 0xfa
392 22 m 0xf2
 388 7 375 -11 351 -11 c 0
 346 -11 328 -11 297 -2 c 0
 259 9 256 10 234 12 c 1
 229 -18 228 -49 228 -60 c 0
 227 -94 226 -137 220 -166 c 0
 217 -180 207 -205 177 -205 c 0
 166 -205 145 -201 153 -166 c 0
 154 -161 159 -138 182 -82 c 0
 197 -40 207 -16 215 12 c 1
 197 10 190 9 149 -1 c 0
 137 -5 112 -11 88 -11 c 0
 64 -11 57 7 61 22 c 0
 63 35 77 55 102 55 c 0
 109 55 126 55 156 46 c 0
 193 35 196 34 219 32 c 1
 223 62 225 93 224 104 c 0
 225 138 226 181 233 210 c 0
 236 224 245 249 275 249 c 0
 286 249 307 245 300 210 c 0
 299 205 294 182 271 126 c 0
 255 84 246 60 238 32 c 1
 260 34 268 36 295 44 c 0
 328 52 346 55 366 55 c 0
 387 55 395 39 392 22 c 0xf2
EndSplineSet
Validated: 33
EndChar

StartChar: dblbracketleft
Encoding: 10214 10214 221
Width: 403
Flags: MW
HStem: -249 40<114 198 238 327> 711 40<309 393 309 309 433 531 433 433>
VStem: 198 40<-209 -209> 238 40 393 40<711 711>
LayerCount: 2
Fore
SplineSet
327 -249 m 1xd8
 65 -249 l 1
 278 751 l 1
 540 751 l 1
 531 711 l 1
 433 711 l 1
 238 -209 l 1
 336 -209 l 1
 327 -249 l 1xd8
198 -209 m 1
 393 711 l 1
 309 711 l 1
 114 -209 l 1
 198 -209 l 1
EndSplineSet
Validated: 1
EndChar

StartChar: dblbracketright
Encoding: 10215 10215 222
Width: 403
Flags: MW
HStem: -249 40<-21 76 116 200 -30 76> 711 40<183 271 174 444 311 311 311 395>
VStem: 76 40<-209 -209> 231 40 271 40<711 711>
LayerCount: 2
Fore
SplineSet
231 -249 m 1xf0
 -30 -249 l 1
 -21 -209 l 1
 76 -209 l 1
 271 711 l 1
 174 711 l 1
 183 751 l 1
 444 751 l 1
 231 -249 l 1xf0
200 -209 m 1
 395 711 l 1
 311 711 l 1xc8
 116 -209 l 1
 200 -209 l 1
EndSplineSet
Validated: 1
EndChar

StartChar: uni030F
Encoding: 783 783 223
Width: 0
Flags: MW
HStem: 527 21G<-214 -153 -214 -214 -47 14 -47 -47> 674 20G<-258 -180 -180 -180 -91 -13 -13 -13>
LayerCount: 2
Fore
SplineSet
14 527 m 1
 -47 527 l 1
 -91 694 l 1
 -13 694 l 1
 14 527 l 1
-153 527 m 1
 -214 527 l 1
 -258 694 l 1
 -180 694 l 1
 -153 527 l 1
EndSplineSet
Validated: 1
EndChar

StartChar: dblverticalbar
Encoding: 8214 8214 224
Width: 398
Flags: MW
HStem: -250 21G<76 96 196 216> 730 20G<288 308 408 428>
VStem: 73 40<-217 -217> 193 40<-217 -217> 271 40<717 717> 391 40<717 717>
LayerCount: 2
Fore
SplineSet
113 -217 m 2
 110 -231 106 -250 86 -250 c 0
 66 -250 70 -231 73 -217 c 2
 271 717 l 2
 274 731 278 750 298 750 c 0
 318 750 314 731 311 717 c 2
 113 -217 l 2
233 -217 m 2
 230 -231 226 -250 206 -250 c 0
 186 -250 190 -231 193 -217 c 2
 391 717 l 2
 394 731 398 750 418 750 c 0
 438 750 434 731 431 717 c 2
 233 -217 l 2
EndSplineSet
Validated: 33
EndChar

StartChar: Dcaron
Encoding: 270 270 225
Width: 722
Flags: MW
HStem: 0 56<194 347 347 359> 638 56<318 471 318 318> 736 21G<385 445 385 385> 850 20G<288 347 347 347 541 600 600 600>
VStem: 651 86<341 341>
LayerCount: 2
Fore
SplineSet
737 341 m 0
 697 152 529 0 359 0 c 2
 96 0 l 1
 244 694 l 1
 506 694 l 2
 678 694 779 535 737 341 c 0
651 341 m 0
 689 517 611 638 471 638 c 2
 318 638 l 1
 194 56 l 1
 347 56 l 2
 487 56 615 171 651 341 c 0
600 870 m 1x30
 445 736 l 1
 385 736 l 1
 288 870 l 1
 347 870 l 1
 423 773 l 1
 541 870 l 1
 600 870 l 1x30
EndSplineSet
Validated: 33
Position2: "'cpsp' Capital Spacing lookup 0 subtable" dx=7 dy=0 dh=14 dv=0
EndChar

StartChar: dcaron
Encoding: 271 271 226
Width: 517
Flags: MW
HStem: -11 61<158.5 273> 78 61 339 61<428 444> 394 61<313.5 328.5 260.5 365.5> 507 21G<579 616 579 579> 619 75<619 625 507 603>
VStem: 83 78<222 222> 356 78<0 0> 507 75<694 694>
LayerCount: 2
Fore
SplineSet
434 0 m 1x2480
 356 0 l 1
 367 52 l 1
 300 -2 239 -11 206 -11 c 0
 111 -11 55 91 83 222 c 0
 111 351 211 455 310 455 c 0xd3
 347 455 400 444 444 400 c 1
 507 694 l 1
 582 694 l 1
 434 0 l 1x2480
386 139 m 2
 428 339 l 1x6c
 413 371 388 394 343 394 c 0
 284 394 189 353 161 221 c 0
 135 97 198 50 260 50 c 0
 286 50 312 58 340 78 c 0
 378 107 383 125 386 139 c 2
677 620 m 1
 616 507 l 1
 579 507 l 1
 625 619 l 1
 603 619 l 1
 619 694 l 1
 693 694 l 1
 677 620 l 1
EndSplineSet
Validated: 33
EndChar

StartChar: Dcroat
Encoding: 272 272 227
Width: 722
Flags: MW
HStem: 0 56<194 347 347 359> 315 64<99 163 85 177 263 350> 638 56<318 471 318 318>
VStem: 163 86<315 315> 177 86<379 379> 651 86<341 341>
CounterMasks: 1 e0
LayerCount: 2
Fore
SplineSet
737 341 m 0xe8
 697 152 529 0 359 0 c 2
 96 0 l 1
 163 315 l 1xf4
 85 315 l 1
 99 379 l 1
 177 379 l 1
 244 694 l 1
 506 694 l 2
 678 694 779 535 737 341 c 0xe8
651 341 m 0
 689 517 611 638 471 638 c 2
 318 638 l 1
 263 379 l 1xec
 364 379 l 1
 350 315 l 1
 249 315 l 1
 194 56 l 1
 347 56 l 2
 487 56 615 171 651 341 c 0
EndSplineSet
Validated: 33
Position2: "'cpsp' Capital Spacing lookup 0 subtable" dx=7 dy=0 dh=14 dv=0
EndChar

StartChar: dcroat
Encoding: 273 273 228
Width: 517
Flags: MW
HStem: -11 61<158.5 273> 78 61 339 61<428 444> 394 61<313.5 328.5 260.5 365.5> 537 64<335 473 321 487 562 626 335 548> 674 20G<507 582 582 582>
VStem: 83 78<222 222> 260 75 356 78<0 0> 473 75<537 537> 487 75<601 601> 507 75<694 694> 548 78<537 537> 562 78<601 601>
LayerCount: 2
Fore
SplineSet
626 537 m 1x0804
 548 537 l 1
 434 0 l 1
 356 0 l 1
 367 52 l 1
 300 -2 239 -11 206 -11 c 0
 111 -11 55 91 83 222 c 0
 111 351 211 455 310 455 c 0x9ac0
 347 455 400 444 444 400 c 1
 473 537 l 1x2840
 321 537 l 1
 335 601 l 1
 487 601 l 1x0920
 507 694 l 1
 582 694 l 1x0410
 562 601 l 1
 640 601 l 1
 626 537 l 1x0804
386 139 m 2xdb08
 428 339 l 1x60
 413 371 388 394 343 394 c 0
 284 394 189 353 161 221 c 0
 135 97 198 50 260 50 c 0
 286 50 312 58 340 78 c 0
 378 107 383 125 386 139 c 2xdb08
EndSplineSet
Validated: 33
EndChar

StartChar: Ddotbelow
Encoding: 7692 7692 229
Width: 722
Flags: MW
HStem: 0 56<194 347 347 359> 638 56<318 471 318 318>
VStem: 171 89<-200 -200> 190 89<-111 -111> 651 86<341 341>
LayerCount: 2
Fore
SplineSet
737 341 m 0xc8
 697 152 529 0 359 0 c 2
 96 0 l 1
 244 694 l 1
 506 694 l 2
 678 694 779 535 737 341 c 0xc8
651 341 m 0
 689 517 611 638 471 638 c 2
 318 638 l 1
 194 56 l 1
 347 56 l 2
 487 56 615 171 651 341 c 0
260 -200 m 1x10
 171 -200 l 1x20
 190 -111 l 1
 279 -111 l 1
 260 -200 l 1x10
EndSplineSet
Validated: 33
Position2: "'cpsp' Capital Spacing lookup 0 subtable" dx=7 dy=0 dh=14 dv=0
EndChar

StartChar: ddotbelow
Encoding: 7693 7693 230
Width: 517
Flags: MW
HStem: -11 61<158.5 273> 78 61 339 61<428 444> 394 61<313.5 328.5 260.5 365.5> 674 20G<507 582 582 582>
VStem: 83 78<222 222> 170 89<-200 -200> 189 89<-111 -111> 356 78<0 0> 507 75<694 694>
LayerCount: 2
Fore
SplineSet
434 0 m 1x2840
 356 0 l 1
 367 52 l 1
 300 -2 239 -11 206 -11 c 0
 111 -11 55 91 83 222 c 0
 111 351 211 455 310 455 c 0xd480
 347 455 400 444 444 400 c 1
 507 694 l 1
 582 694 l 1
 434 0 l 1x2840
386 139 m 2
 428 339 l 1x60
 413 371 388 394 343 394 c 0
 284 394 189 353 161 221 c 0
 135 97 198 50 260 50 c 0
 286 50 312 58 340 78 c 0
 378 107 383 125 386 139 c 2
259 -200 m 1x01
 170 -200 l 1x02
 189 -111 l 1
 278 -111 l 1
 259 -200 l 1x01
EndSplineSet
Validated: 33
EndChar

StartChar: degree
Encoding: 176 176 231
Width: 375
Flags: MW
HStem: 417 40<257.5 312 257.5 315> 654 40<299.5 354>
VStem: 167 40<556 556> 404 40<556 556>
LayerCount: 2
Fore
SplineSet
444 556 m 0
 428 479 353 417 277 417 c 0
 200 417 151 479 167 556 c 0
 183 632 259 694 336 694 c 0
 412 694 460 632 444 556 c 0
404 556 m 0
 416 610 381 654 327 654 c 0
 272 654 219 610 207 556 c 0
 195 501 230 457 285 457 c 0
 339 457 392 501 404 556 c 0
EndSplineSet
Validated: 33
EndChar

StartChar: diameter
Encoding: 8960 8960 232
Width: 778
Flags: MW
HStem: -61 40<351 460 351 462> 521 40<425 533.5>
VStem: 131 40<250 250> 713 40<250 250>
LayerCount: 2
Fore
SplineSet
841 563 m 0
 839 557 836 552 832 549 c 2
 719 456 l 1
 756 401 770 329 753 250 c 0
 717 78 548 -61 376 -61 c 0
 297 -61 231 -32 187 16 c 1
 74 -77 l 2
 70 -81 64 -83 58 -83 c 0
 47 -83 40 -74 43 -63 c 0
 44 -57 47 -52 52 -49 c 2
 165 45 l 1
 128 100 114 171 131 250 c 0
 168 422 336 561 508 561 c 0
 586 561 652 532 697 484 c 1
 810 577 l 2
 813 581 819 583 825 583 c 0
 836 583 843 574 841 563 c 0
713 250 m 0
 728 318 716 380 685 427 c 1
 222 45 l 1
 260 4 317 -21 385 -21 c 0
 535 -21 681 100 713 250 c 0
663 456 m 1
 623 496 567 521 500 521 c 0
 350 521 203 400 171 250 c 0
 157 182 169 121 200 73 c 1
 663 456 l 1
EndSplineSet
Validated: 33
EndChar

StartChar: dieresis
Encoding: 168 168 233
Width: 500
Flags: MW
HStem: 571 80<275 338 258 355 275 404 421 484>
VStem: 258 80<571 571> 275 80<651 651> 404 80<571 571> 421 80<651 651>
LayerCount: 2
Fore
SplineSet
338 571 m 1xa0
 258 571 l 1xc8
 275 651 l 1
 355 651 l 1
 338 571 l 1xa0
484 571 m 1
 404 571 l 1x90
 421 651 l 1
 501 651 l 1
 484 571 l 1
EndSplineSet
Validated: 1
EndChar

StartChar: uni0308
Encoding: 776 776 234
Width: 0
Flags: MW
HStem: 571 80<-215 -152 -232 -135 -215 -86 -69 -6>
VStem: -232 80<571 571> -215 80<651 651> -86 80<571 571> -69 80<651 651>
LayerCount: 2
Fore
SplineSet
-152 571 m 1xa0
 -232 571 l 1xc8
 -215 651 l 1
 -135 651 l 1
 -152 571 l 1xa0
-6 571 m 1
 -86 571 l 1x90
 -69 651 l 1
 11 651 l 1
 -6 571 l 1
EndSplineSet
Validated: 1
EndChar

StartChar: discount
Encoding: 8274 8274 235
Width: 500
Flags: MW
HStem: 1 124<319 425 356 396> 627 124<227 333 264 304>
VStem: 202 124 304 124 475 124
LayerCount: 2
Fore
SplineSet
599 730 m 0xe8
 597 719 580 699 570 686 c 2
 475 552 l 1
 393 435 l 1
 202 163 l 1
 101 20 l 2
 94 11 88 2 77 1 c 2
 76 1 l 2
 63 1 58 11 61 22 c 0
 64 38 88 64 99 81 c 2
 545 714 l 1
 559 733 l 2
 563 740 569 748 578 750 c 0
 581 751 585 751 585 751 c 2
 596 751 602 741 599 730 c 0xe8
336 644 m 2
 330 631 320 627 304 627 c 2xd0
 234 627 l 2
 220 627 209 632 214 652 c 2
 228 721 l 2
 231 734 236 746 250 750 c 0
 255 751 259 751 264 751 c 2
 333 751 l 2
 347 751 358 746 353 726 c 2
 336 644 l 2
428 18 m 2
 422 5 412 1 396 1 c 2
 326 1 l 2xa0
 312 1 301 6 306 26 c 2
 320 95 l 2
 323 108 328 120 342 124 c 0
 347 125 351 125 356 125 c 2
 425 125 l 2
 439 125 450 120 445 100 c 2
 428 18 l 2
EndSplineSet
Validated: 33
EndChar

StartChar: divide
Encoding: 247 247 236
Width: 778
Flags: MW
HStem: 85 83<383 448 365 466> 230 40<131.5 745 146 736> 331 83<435 500 417 518>
VStem: 365 83<85 85> 383 83<168 168> 417 83<331 331> 435 83<414 414>
LayerCount: 2
Fore
SplineSet
774 250 m 0x62
 770 230 751 230 736 230 c 2
 139 230 l 2
 124 230 105 230 109 250 c 0
 113 270 132 270 146 270 c 2
 745 270 l 2
 759 270 778 270 774 250 c 0x62
500 331 m 1
 417 331 l 1x24
 435 414 l 1
 518 414 l 1
 500 331 l 1
448 85 m 1
 365 85 l 1x90
 383 168 l 1
 466 168 l 1x88
 448 85 l 1
EndSplineSet
Validated: 33
EndChar

StartChar: divorced
Encoding: 9902 9902 237
Width: 500
Flags: MW
HStem: -113 21G<187 265 187 187> 28 72<-35 43 500.5 576.5> 403 71<80.5 98.5 618 645.5> 595 20G<342 420 420 420>
VStem: 65 76 141 76 187 78<-113 -113> 342 78<615 615> 388 76 464 76 683 70<250 250>
LayerCount: 2
Fore
SplineSet
217 251 m 0x64a0
 195 147 101 28 -15 28 c 0
 -130 28 -169 151 -148 251 c 0
 -125 358 -39 460 69 473 c 0
 74 473 78 474 83 474 c 0
 198 474 239 353 217 251 c 0x64a0
753 251 m 0
 731 146 637 28 523 28 c 0
 410 28 367 150 388 251 c 0
 410 352 490 459 608 473 c 0
 612 473 616 474 620 474 c 0
 735 474 775 352 753 251 c 0
265 -113 m 1
 187 -113 l 1
 342 615 l 1
 420 615 l 1xfb60
 265 -113 l 1
141 248 m 2
 146 273 l 1
 154 340 132 403 65 403 c 0
 -25 403 -66 307 -79 246 c 2
 -81 235 l 1
 -87 169 -72 100 2 100 c 0
 86 100 128 189 141 248 c 2
683 250 m 0
 698 318 685 403 606 403 c 0
 535 403 487 333 469 273 c 1
 464 248 l 2
 450 182 461 100 540 100 c 0
 613 100 659 170 679 234 c 0
 681 239 682 245 683 250 c 0
EndSplineSet
Validated: 33
EndChar

StartChar: Dlinebelow
Encoding: 7694 7694 238
Width: 722
Flags: MW
HStem: -187 64<53 400 39 414> 0 56<194 347 347 359> 638 56<318 471 318 318>
VStem: 651 86<341 341>
LayerCount: 2
Fore
SplineSet
737 341 m 0
 697 152 529 0 359 0 c 2
 96 0 l 1
 244 694 l 1
 506 694 l 2
 678 694 779 535 737 341 c 0
651 341 m 0
 689 517 611 638 471 638 c 2
 318 638 l 1
 194 56 l 1
 347 56 l 2
 487 56 615 171 651 341 c 0
400 -187 m 1x80
 39 -187 l 1
 53 -123 l 1
 414 -123 l 1
 400 -187 l 1x80
EndSplineSet
Validated: 33
Position2: "'cpsp' Capital Spacing lookup 0 subtable" dx=7 dy=0 dh=14 dv=0
EndChar

StartChar: dlinebelow
Encoding: 7695 7695 239
Width: 517
Flags: MW
HStem: -187 64<52 399 38 413> -11 61<158.5 273> 78 61 339 61<428 444> 394 61<313.5 328.5 260.5 365.5> 674 20G<507 582 582 582>
VStem: 83 78<222 222> 356 78<0 0> 507 75<694 694>
LayerCount: 2
Fore
SplineSet
434 0 m 1x1480
 356 0 l 1
 367 52 l 1
 300 -2 239 -11 206 -11 c 0
 111 -11 55 91 83 222 c 0
 111 351 211 455 310 455 c 0x6b
 347 455 400 444 444 400 c 1
 507 694 l 1
 582 694 l 1
 434 0 l 1x1480
386 139 m 2
 428 339 l 1x30
 413 371 388 394 343 394 c 0
 284 394 189 353 161 221 c 0
 135 97 198 50 260 50 c 0
 286 50 312 58 340 78 c 0
 378 107 383 125 386 139 c 2
399 -187 m 1x80
 38 -187 l 1
 52 -123 l 1
 413 -123 l 1
 399 -187 l 1x80
EndSplineSet
Validated: 33
EndChar

StartChar: dong
Encoding: 8363 8363 240
Width: 517
Flags: MW
HStem: -64 64<34 472 20 486>
LayerCount: 2
Fore
SplineSet
602 545 m 1
 528 545 l 1
 419 35 l 1
 345 35 l 1
 356 84 l 1
 292 33 234 24 203 24 c 0
 112 24 60 121 86 246 c 0
 112 368 207 467 301 467 c 0
 336 467 388 457 429 415 c 1
 457 545 l 1
 313 545 l 1
 326 606 l 1
 470 606 l 1
 489 694 l 1
 560 694 l 1
 541 606 l 1
 615 606 l 1
 602 545 l 1
472 -64 m 1
 20 -64 l 1
 34 0 l 1
 486 0 l 1
 472 -64 l 1
373 167 m 2
 414 357 l 1
 399 387 376 409 333 409 c 0
 277 409 187 370 160 245 c 0
 135 127 195 82 254 82 c 0
 278 82 304 90 330 109 c 0
 366 136 371 153 373 167 c 2
EndSplineSet
Validated: 33
EndChar

StartChar: dotaccent
Encoding: 729 729 241
Width: 278
Flags: MW
HStem: 566 89<233 303 214 322>
VStem: 214 89<566 566> 233 89<655 655>
LayerCount: 2
Fore
SplineSet
303 566 m 1xa0
 214 566 l 1xc0
 233 655 l 1
 322 655 l 1
 303 566 l 1xa0
EndSplineSet
Validated: 1
EndChar

StartChar: uni0307
Encoding: 775 775 242
Width: 0
Flags: MW
HStem: 566 89<-146 -76 -165 -57>
VStem: -165 89<566 566> -146 89<655 655>
LayerCount: 2
Fore
SplineSet
-76 566 m 1xa0
 -165 566 l 1xc0
 -146 655 l 1
 -57 655 l 1
 -76 566 l 1xa0
EndSplineSet
Validated: 1
EndChar

StartChar: uni0323
Encoding: 803 803 243
Width: 0
Flags: MW
VStem: -328 89<-200 -200> -309 89<-111 -111>
LayerCount: 2
Fore
SplineSet
-239 -200 m 1x40
 -328 -200 l 1x80
 -309 -111 l 1
 -220 -111 l 1
 -239 -200 l 1x40
EndSplineSet
Validated: 1
EndChar

StartChar: dotlessi
Encoding: 305 305 244
Width: 239
Flags: MW
HStem: 0 21G<81 156 81 81> 424 20G<175 250 250 250>
VStem: 81 75<0 0> 175 75<444 444>
LayerCount: 2
Fore
SplineSet
156 0 m 1
 81 0 l 1
 175 444 l 1
 250 444 l 1
 156 0 l 1
EndSplineSet
Validated: 1
EndChar

StartChar: uni0237
Encoding: 567 567 245
Width: 267
Flags: MW
HStem: -205 64<2 13 -10 46.5> 424 20G<203 278 278 278>
VStem: 203 75<444 444>
LayerCount: 2
Fore
SplineSet
171 -59 m 2
 151 -153 78 -205 15 -205 c 0
 -11 -205 -55 -199 -97 -171 c 1
 -63 -110 l 1
 -46 -131 -24 -141 4 -141 c 0
 22 -141 80 -136 94 -69 c 2
 203 444 l 1
 278 444 l 1
 171 -59 l 2
EndSplineSet
Validated: 1
EndChar

StartChar: Eacute
Encoding: 201 201 246
Width: 597
Flags: MW
HStem: 0 70<198 407 407 413 198 554> 329 61<266 583 253 596> 626 65<484 490 490 673> 746 21G<362 451 362 362> 848 20G<563 674 674 674>
LayerCount: 2
Fore
SplineSet
554 0 m 1
 94 0 l 1
 241 691 l 1
 687 691 l 1
 673 626 l 1
 490 626 l 2
 478 626 466 627 454 627 c 2
 316 627 l 1
 266 390 l 1
 596 390 l 1
 583 329 l 1
 253 329 l 1
 198 70 l 1
 407 70 l 2
 419 70 431 71 443 71 c 2
 569 71 l 1
 554 0 l 1
674 868 m 1x18
 451 746 l 1
 362 746 l 1
 563 868 l 1
 674 868 l 1x18
EndSplineSet
Validated: 1
Position2: "'cpsp' Capital Spacing lookup 0 subtable" dx=7 dy=0 dh=14 dv=0
EndChar

StartChar: eacute
Encoding: 233 233 247
Width: 444
Flags: MW
HStem: -11 61<223 274.5 223 280.5> 219 55<168 415 168 461 152 415> 400 61<292.5 347> 527 21G<264 325 264 264> 674 20G<433 511 511 511>
LayerCount: 2
Fore
SplineSet
461 219 m 1
 152 219 l 1
 134 121 183 50 263 50 c 0
 286 50 352 54 427 106 c 1
 419 41 l 1
 374 13 312 -11 249 -11 c 0
 129 -11 55 94 83 226 c 0
 110 355 223 461 334 461 c 0
 370 461 429 450 456 388 c 0
 483 328 468 253 461 219 c 1
415 274 m 1
 422 366 373 400 321 400 c 0
 264 400 200 350 168 274 c 1
 415 274 l 1
511 694 m 1x18
 325 527 l 1
 264 527 l 1
 433 694 l 1
 511 694 l 1x18
EndSplineSet
Validated: 33
EndChar

StartChar: Ebreve
Encoding: 276 276 248
Width: 597
Flags: MW
HStem: 0 70<198 407 407 413 198 554> 329 61<266 583 253 596> 626 65<484 490 490 673> 746 67<447.5 497 447.5 501.5> 904 20G<327 388 388 388 603 664 664 664>
LayerCount: 2
Fore
SplineSet
554 0 m 1
 94 0 l 1
 241 691 l 1
 687 691 l 1
 673 626 l 1
 490 626 l 2
 478 626 466 627 454 627 c 2
 316 627 l 1
 266 390 l 1
 596 390 l 1
 583 329 l 1
 253 329 l 1
 198 70 l 1
 407 70 l 2
 419 70 431 71 443 71 c 2
 569 71 l 1
 554 0 l 1
664 924 m 1x18
 640 819 546 746 457 746 c 0
 371 746 307 817 327 924 c 1
 388 924 l 1
 375 852 422 813 473 813 c 0
 521 813 586 850 603 924 c 1
 664 924 l 1x18
EndSplineSet
Validated: 33
Position2: "'cpsp' Capital Spacing lookup 0 subtable" dx=7 dy=0 dh=14 dv=0
EndChar

StartChar: ebreve
Encoding: 277 277 249
Width: 444
Flags: MW
HStem: -11 61<223 274.5 223 280.5> 219 55<168 415 168 461 152 415> 400 61<292.5 347> 522 67<322.5 372 322.5 377.5> 680 20G<203 264 264 264 479 540 540 540>
LayerCount: 2
Fore
SplineSet
461 219 m 1
 152 219 l 1
 134 121 183 50 263 50 c 0
 286 50 352 54 427 106 c 1
 419 41 l 1
 374 13 312 -11 249 -11 c 0
 129 -11 55 94 83 226 c 0
 110 355 223 461 334 461 c 0
 370 461 429 450 456 388 c 0
 483 328 468 253 461 219 c 1
415 274 m 1
 422 366 373 400 321 400 c 0
 264 400 200 350 168 274 c 1
 415 274 l 1
540 700 m 1x18
 515 595 422 522 333 522 c 0
 247 522 182 593 203 700 c 1
 264 700 l 1
 250 628 297 589 348 589 c 0
 396 589 461 626 479 700 c 1
 540 700 l 1x18
EndSplineSet
Validated: 33
EndChar

StartChar: Ecaron
Encoding: 282 282 250
Width: 597
Flags: MW
HStem: 0 70<198 407 407 413 198 554> 329 61<266 583 253 596> 626 65<484 490 490 673> 736 21G<425 485 425 425> 850 20G<328 387 387 387 581 640 640 640>
LayerCount: 2
Fore
SplineSet
554 0 m 1
 94 0 l 1
 241 691 l 1
 687 691 l 1
 673 626 l 1
 490 626 l 2
 478 626 466 627 454 627 c 2
 316 627 l 1
 266 390 l 1
 596 390 l 1
 583 329 l 1
 253 329 l 1
 198 70 l 1
 407 70 l 2
 419 70 431 71 443 71 c 2
 569 71 l 1
 554 0 l 1
640 870 m 1x18
 485 736 l 1
 425 736 l 1
 328 870 l 1
 387 870 l 1
 463 773 l 1
 581 870 l 1
 640 870 l 1x18
EndSplineSet
Validated: 1
Position2: "'cpsp' Capital Spacing lookup 0 subtable" dx=7 dy=0 dh=14 dv=0
EndChar

StartChar: ecaron
Encoding: 283 283 251
Width: 444
Flags: MW
HStem: -11 61<223 274.5 223 280.5> 219 55<168 415 168 461 152 415> 400 61<292.5 347> 525 21G<304 364 304 304> 677 20G<215 274 274 274 466 525 525 525>
LayerCount: 2
Fore
SplineSet
461 219 m 1
 152 219 l 1
 134 121 183 50 263 50 c 0
 286 50 352 54 427 106 c 1
 419 41 l 1
 374 13 312 -11 249 -11 c 0
 129 -11 55 94 83 226 c 0
 110 355 223 461 334 461 c 0
 370 461 429 450 456 388 c 0
 483 328 468 253 461 219 c 1
415 274 m 1
 422 366 373 400 321 400 c 0
 264 400 200 350 168 274 c 1
 415 274 l 1
525 697 m 1x18
 364 525 l 1
 304 525 l 1
 215 697 l 1
 274 697 l 1
 344 574 l 1
 466 697 l 1
 525 697 l 1x18
EndSplineSet
Validated: 33
EndChar

StartChar: Ecircumflex
Encoding: 202 202 252
Width: 597
Flags: MW
HStem: 0 70<198 407 407 413 198 554> 329 61<266 583 253 596> 626 65<484 490 490 673> 736 21G<299 358 299 299 552 611 552 552> 850 20G<454 514 514 514>
LayerCount: 2
Fore
SplineSet
554 0 m 1
 94 0 l 1
 241 691 l 1
 687 691 l 1
 673 626 l 1
 490 626 l 2
 478 626 466 627 454 627 c 2
 316 627 l 1
 266 390 l 1
 596 390 l 1
 583 329 l 1
 253 329 l 1
 198 70 l 1
 407 70 l 2
 419 70 431 71 443 71 c 2
 569 71 l 1
 554 0 l 1
611 736 m 1x18
 552 736 l 1
 476 833 l 1
 358 736 l 1
 299 736 l 1
 454 870 l 1
 514 870 l 1
 611 736 l 1x18
EndSplineSet
Validated: 1
Position2: "'cpsp' Capital Spacing lookup 0 subtable" dx=7 dy=0 dh=14 dv=0
EndChar

StartChar: ecircumflex
Encoding: 234 234 253
Width: 444
Flags: MW
HStem: -11 61<223 274.5 223 280.5> 219 55<168 415 168 461 152 415> 400 61<292.5 347> 525 21G<179 238 179 179 430 489 430 430> 677 20G<340 400 400 400>
LayerCount: 2
Fore
SplineSet
461 219 m 1
 152 219 l 1
 134 121 183 50 263 50 c 0
 286 50 352 54 427 106 c 1
 419 41 l 1
 374 13 312 -11 249 -11 c 0
 129 -11 55 94 83 226 c 0
 110 355 223 461 334 461 c 0
 370 461 429 450 456 388 c 0
 483 328 468 253 461 219 c 1
415 274 m 1
 422 366 373 400 321 400 c 0
 264 400 200 350 168 274 c 1
 415 274 l 1
489 525 m 1x18
 430 525 l 1
 360 648 l 1
 238 525 l 1
 179 525 l 1
 340 697 l 1
 400 697 l 1
 489 525 l 1x18
EndSplineSet
Validated: 33
EndChar

StartChar: Ecircumflexacute
Encoding: 7870 7870 254
Width: 597
Flags: MW
HStem: 0 70<198 407 407 413 198 554> 329 61<266 583 253 596> 626 65<484 490 490 673> 736 21G<299 358 299 299 552 611 552 552> 1007 20G<549 660 660 660>
LayerCount: 2
Fore
SplineSet
554 0 m 1
 94 0 l 1
 241 691 l 1
 687 691 l 1
 673 626 l 1
 490 626 l 2
 478 626 466 627 454 627 c 2
 316 627 l 1
 266 390 l 1
 596 390 l 1
 583 329 l 1
 253 329 l 1
 198 70 l 1
 407 70 l 2
 419 70 431 71 443 71 c 2
 569 71 l 1
 554 0 l 1
611 736 m 1x18
 552 736 l 1
 476 833 l 1
 358 736 l 1
 299 736 l 1
 454 870 l 1
 514 870 l 1
 611 736 l 1x18
660 1027 m 1
 437 905 l 1
 348 905 l 1
 549 1027 l 1
 660 1027 l 1
EndSplineSet
Validated: 1
Position2: "'cpsp' Capital Spacing lookup 0 subtable" dx=7 dy=0 dh=14 dv=0
EndChar

StartChar: ecircumflexacute
Encoding: 7871 7871 255
Width: 444
Flags: MW
HStem: -11 61<223 274.5 223 280.5> 219 55<168 415 168 461 152 415> 400 61<292.5 347> 525 21G<178 237 178 178 431 490 431 431> 796 20G<427 538 538 538>
LayerCount: 2
Fore
SplineSet
461 219 m 1
 152 219 l 1
 134 121 183 50 263 50 c 0
 286 50 352 54 427 106 c 1
 419 41 l 1
 374 13 312 -11 249 -11 c 0
 129 -11 55 94 83 226 c 0
 110 355 223 461 334 461 c 0
 370 461 429 450 456 388 c 0
 483 328 468 253 461 219 c 1
415 274 m 1
 422 366 373 400 321 400 c 0
 264 400 200 350 168 274 c 1
 415 274 l 1
490 525 m 1x18
 431 525 l 1
 354 622 l 1
 237 525 l 1
 178 525 l 1
 332 659 l 1
 392 659 l 1
 490 525 l 1x18
538 816 m 1
 316 694 l 1
 227 694 l 1
 427 816 l 1
 538 816 l 1
EndSplineSet
Validated: 33
EndChar

StartChar: Ecircumflexdotbelow
Encoding: 7878 7878 256
Width: 597
Flags: MW
HStem: 0 70<198 407 407 413 198 554> 329 61<266 583 253 596> 626 65<484 490 490 673> 736 21G<299 358 299 299 552 611 552 552> 850 20G<454 514 514 514>
VStem: 211 89<-200 -200> 230 89<-111 -111>
LayerCount: 2
Fore
SplineSet
554 0 m 1xf8
 94 0 l 1
 241 691 l 1
 687 691 l 1
 673 626 l 1
 490 626 l 2
 478 626 466 627 454 627 c 2
 316 627 l 1
 266 390 l 1
 596 390 l 1
 583 329 l 1
 253 329 l 1
 198 70 l 1
 407 70 l 2
 419 70 431 71 443 71 c 2
 569 71 l 1
 554 0 l 1xf8
611 736 m 1
 552 736 l 1
 476 833 l 1
 358 736 l 1
 299 736 l 1
 454 870 l 1
 514 870 l 1
 611 736 l 1
300 -200 m 1x02
 211 -200 l 1x04
 230 -111 l 1
 319 -111 l 1
 300 -200 l 1x02
EndSplineSet
Validated: 1
Position2: "'cpsp' Capital Spacing lookup 0 subtable" dx=7 dy=0 dh=14 dv=0
EndChar

StartChar: ecircumflexdotbelow
Encoding: 7879 7879 257
Width: 444
Flags: MW
HStem: -11 61<223 274.5 223 280.5> 219 55<168 415 168 461 152 415> 400 61<292.5 347> 525 21G<179 238 179 179 430 489 430 430> 677 20G<340 400 400 400>
VStem: 134 89<-200 -200> 153 89<-111 -111>
LayerCount: 2
Fore
SplineSet
461 219 m 1xf8
 152 219 l 1
 134 121 183 50 263 50 c 0
 286 50 352 54 427 106 c 1
 419 41 l 1
 374 13 312 -11 249 -11 c 0
 129 -11 55 94 83 226 c 0
 110 355 223 461 334 461 c 0
 370 461 429 450 456 388 c 0
 483 328 468 253 461 219 c 1xf8
415 274 m 1
 422 366 373 400 321 400 c 0
 264 400 200 350 168 274 c 1
 415 274 l 1
489 525 m 1
 430 525 l 1
 360 648 l 1
 238 525 l 1
 179 525 l 1
 340 697 l 1
 400 697 l 1
 489 525 l 1
223 -200 m 1x02
 134 -200 l 1x04
 153 -111 l 1
 242 -111 l 1
 223 -200 l 1x02
EndSplineSet
Validated: 33
EndChar

StartChar: Ecircumflexgrave
Encoding: 7872 7872 258
Width: 597
Flags: MW
HStem: 0 70<198 407 407 413 198 554> 329 61<266 583 253 596> 626 65<484 490 490 673> 736 21G<299 358 299 299 552 611 552 552> 850 20G<454 514 514 514>
LayerCount: 2
Fore
SplineSet
554 0 m 1
 94 0 l 1
 241 691 l 1
 687 691 l 1
 673 626 l 1
 490 626 l 2
 478 626 466 627 454 627 c 2
 316 627 l 1
 266 390 l 1
 596 390 l 1
 583 329 l 1
 253 329 l 1
 198 70 l 1
 407 70 l 2
 419 70 431 71 443 71 c 2
 569 71 l 1
 554 0 l 1
611 736 m 1x18
 552 736 l 1
 476 833 l 1
 358 736 l 1
 299 736 l 1
 454 870 l 1
 514 870 l 1
 611 736 l 1x18
634 905 m 1
 485 1027 l 1
 374 1027 l 1
 545 905 l 1
 634 905 l 1
EndSplineSet
Validated: 9
Position2: "'cpsp' Capital Spacing lookup 0 subtable" dx=7 dy=0 dh=14 dv=0
EndChar

StartChar: ecircumflexgrave
Encoding: 7873 7873 259
Width: 444
Flags: MW
HStem: -11 61<223 274.5 223 280.5> 219 55<168 415 168 461 152 415> 400 61<292.5 347> 525 21G<178 237 178 178 431 490 431 431> 639 20G<332 392 392 392>
LayerCount: 2
Fore
SplineSet
461 219 m 1
 152 219 l 1
 134 121 183 50 263 50 c 0
 286 50 352 54 427 106 c 1
 419 41 l 1
 374 13 312 -11 249 -11 c 0
 129 -11 55 94 83 226 c 0
 110 355 223 461 334 461 c 0
 370 461 429 450 456 388 c 0
 483 328 468 253 461 219 c 1
415 274 m 1
 422 366 373 400 321 400 c 0
 264 400 200 350 168 274 c 1
 415 274 l 1
490 525 m 1x18
 431 525 l 1
 354 622 l 1
 237 525 l 1
 178 525 l 1
 332 659 l 1
 392 659 l 1
 490 525 l 1x18
513 694 m 1
 363 816 l 1
 252 816 l 1
 424 694 l 1
 513 694 l 1
EndSplineSet
Validated: 41
EndChar

StartChar: Ecircumflexhookabove
Encoding: 7874 7874 260
Width: 597
Flags: MW
HStem: 0 70<198 407 407 413 198 554> 329 61<266 583 253 596> 626 65<484 490 490 673> 736 21G<299 358 299 299 552 611 552 552> 1080 20G<605.5 638.5>
LayerCount: 2
Fore
SplineSet
554 0 m 1
 94 0 l 1
 241 691 l 1
 687 691 l 1
 673 626 l 1
 490 626 l 2
 478 626 466 627 454 627 c 2
 316 627 l 1
 266 390 l 1
 596 390 l 1
 583 329 l 1
 253 329 l 1
 198 70 l 1
 407 70 l 2
 419 70 431 71 443 71 c 2
 569 71 l 1
 554 0 l 1
611 736 m 1x18
 552 736 l 1
 476 833 l 1
 358 736 l 1
 299 736 l 1
 454 870 l 1
 514 870 l 1
 611 736 l 1x18
710 1022 m 0
 706 1002 692 983 672 972 c 2
 658 963 l 2
 620 943 601 930 595 905 c 2
 591 886 l 1
 590 885 l 1
 564 885 l 1
 563 886 l 1
 567 905 l 2
 576 946 604 983 642 1001 c 0
 651 1006 658 1014 660 1022 c 0
 663 1035 661 1046 654 1052 c 0
 645 1059 633 1061 614 1061 c 0
 583 1061 552 1044 531 1017 c 1
 530 1017 l 1
 529 1017 l 1
 524 1057 l 1
 551 1085 588 1100 623 1100 c 0
 654 1100 679 1095 695 1080 c 0
 711 1067 715 1045 710 1022 c 0
EndSplineSet
Validated: 33
Position2: "'cpsp' Capital Spacing lookup 0 subtable" dx=7 dy=0 dh=14 dv=0
EndChar

StartChar: ecircumflexhookabove
Encoding: 7875 7875 261
Width: 444
Flags: MW
HStem: -11 61<223 274.5 223 280.5> 219 55<168 415 168 461 152 415> 400 61<292.5 347> 525 21G<178 237 178 178 431 490 431 431> 869 20G<483.5 516.5>
LayerCount: 2
Fore
SplineSet
461 219 m 1
 152 219 l 1
 134 121 183 50 263 50 c 0
 286 50 352 54 427 106 c 1
 419 41 l 1
 374 13 312 -11 249 -11 c 0
 129 -11 55 94 83 226 c 0
 110 355 223 461 334 461 c 0
 370 461 429 450 456 388 c 0
 483 328 468 253 461 219 c 1
415 274 m 1
 422 366 373 400 321 400 c 0
 264 400 200 350 168 274 c 1
 415 274 l 1
490 525 m 1x18
 431 525 l 1
 354 622 l 1
 237 525 l 1
 178 525 l 1
 332 659 l 1
 392 659 l 1
 490 525 l 1x18
588 811 m 0
 584 791 570 772 551 761 c 2
 536 752 l 2
 499 732 479 719 474 694 c 2
 469 675 l 1
 468 674 l 1
 442 674 l 1
 441 675 l 1
 446 694 l 2
 454 735 482 772 520 790 c 0
 529 795 537 803 538 811 c 0
 541 824 539 835 533 841 c 0
 523 848 512 850 493 850 c 0
 462 850 430 833 409 806 c 1
 408 806 l 1
 407 806 l 1
 402 846 l 1
 430 874 466 889 501 889 c 0
 532 889 557 884 574 869 c 0
 589 856 593 834 588 811 c 0
EndSplineSet
Validated: 33
EndChar

StartChar: Ecircumflextilde
Encoding: 7876 7876 262
Width: 597
Flags: MW
HStem: 0 70<198 407 407 413 198 554> 329 61<266 583 253 596> 626 65<484 490 490 673> 736 21G<299 358 299 299 552 611 552 552> 925 61<563.5 587.5> 983 61<429.5 453.5>
LayerCount: 2
Fore
SplineSet
554 0 m 1xe0
 94 0 l 1
 241 691 l 1
 687 691 l 1
 673 626 l 1
 490 626 l 2
 478 626 466 627 454 627 c 2
 316 627 l 1
 266 390 l 1
 596 390 l 1
 583 329 l 1
 253 329 l 1
 198 70 l 1
 407 70 l 2
 419 70 431 71 443 71 c 2
 569 71 l 1
 554 0 l 1xe0
611 736 m 1x14
 552 736 l 1
 476 833 l 1
 358 736 l 1
 299 736 l 1
 454 870 l 1
 514 870 l 1
 611 736 l 1x14
688 1044 m 1
 669 966 611 925 564 925 c 0x08
 539 925 522 937 506 950 c 0
 483 969 465 983 442 983 c 0x04
 416 983 399 959 390 925 c 1
 329 925 l 1x08
 348 1003 406 1044 453 1044 c 0x04
 478 1044 495 1032 511 1019 c 0
 534 1000 552 986 575 986 c 0x08
 601 986 619 1010 627 1044 c 1
 688 1044 l 1
EndSplineSet
Validated: 1
Position2: "'cpsp' Capital Spacing lookup 0 subtable" dx=7 dy=0 dh=14 dv=0
EndChar

StartChar: ecircumflextilde
Encoding: 7877 7877 263
Width: 444
Flags: MW
HStem: -11 61<223 274.5 223 280.5> 219 55<168 415 168 461 152 415> 400 61<292.5 347> 525 21G<178 237 178 178 431 490 431 431> 714 61<442.5 466.5> 772 61<307.5 331.5>
LayerCount: 2
Fore
SplineSet
461 219 m 1xe0
 152 219 l 1
 134 121 183 50 263 50 c 0
 286 50 352 54 427 106 c 1
 419 41 l 1
 374 13 312 -11 249 -11 c 0
 129 -11 55 94 83 226 c 0
 110 355 223 461 334 461 c 0
 370 461 429 450 456 388 c 0
 483 328 468 253 461 219 c 1xe0
415 274 m 1
 422 366 373 400 321 400 c 0
 264 400 200 350 168 274 c 1
 415 274 l 1
490 525 m 1x14
 431 525 l 1
 354 622 l 1
 237 525 l 1
 178 525 l 1
 332 659 l 1
 392 659 l 1
 490 525 l 1x14
566 833 m 1
 547 755 490 714 443 714 c 0x08
 418 714 400 726 384 739 c 0
 361 758 343 772 320 772 c 0x04
 294 772 277 748 269 714 c 1
 208 714 l 1x08
 226 792 284 833 331 833 c 0x04
 356 833 374 821 390 808 c 0
 413 789 431 775 454 775 c 0x08
 480 775 497 799 505 833 c 1
 566 833 l 1
EndSplineSet
Validated: 33
EndChar

StartChar: Edblgrave
Encoding: 516 516 264
Width: 597
Flags: MW
HStem: 0 70<198 407 407 413 198 554> 329 61<266 583 253 596> 626 65<484 490 490 673> 746 21G<371 432 371 371 538 599 538 538> 893 20G<327 405 405 405 494 572 572 572>
LayerCount: 2
Fore
SplineSet
554 0 m 1
 94 0 l 1
 241 691 l 1
 687 691 l 1
 673 626 l 1
 490 626 l 2
 478 626 466 627 454 627 c 2
 316 627 l 1
 266 390 l 1
 596 390 l 1
 583 329 l 1
 253 329 l 1
 198 70 l 1
 407 70 l 2
 419 70 431 71 443 71 c 2
 569 71 l 1
 554 0 l 1
599 746 m 1x18
 538 746 l 1
 494 913 l 1
 572 913 l 1
 599 746 l 1x18
432 746 m 1
 371 746 l 1
 327 913 l 1
 405 913 l 1
 432 746 l 1
EndSplineSet
Validated: 1
Position2: "'cpsp' Capital Spacing lookup 0 subtable" dx=7 dy=0 dh=14 dv=0
EndChar

StartChar: edblgrave
Encoding: 517 517 265
Width: 444
Flags: MW
HStem: -11 61<223 274.5 223 280.5> 219 55<168 415 168 461 152 415> 400 61<292.5 347> 527 21G<248 309 248 248 415 476 415 415> 674 20G<204 282 282 282 371 449 449 449>
LayerCount: 2
Fore
SplineSet
461 219 m 1
 152 219 l 1
 134 121 183 50 263 50 c 0
 286 50 352 54 427 106 c 1
 419 41 l 1
 374 13 312 -11 249 -11 c 0
 129 -11 55 94 83 226 c 0
 110 355 223 461 334 461 c 0
 370 461 429 450 456 388 c 0
 483 328 468 253 461 219 c 1
415 274 m 1
 422 366 373 400 321 400 c 0
 264 400 200 350 168 274 c 1
 415 274 l 1
476 527 m 1x18
 415 527 l 1
 371 694 l 1
 449 694 l 1
 476 527 l 1x18
309 527 m 1
 248 527 l 1
 204 694 l 1
 282 694 l 1
 309 527 l 1
EndSplineSet
Validated: 33
EndChar

StartChar: Edieresis
Encoding: 203 203 266
Width: 597
Flags: MW
HStem: 0 70<198 407 407 413 198 554> 329 61<266 583 253 596> 626 65<484 490 490 673> 736 80<345 408 328 425 345 502 519 582>
VStem: 328 80<736 736> 345 80<816 816> 502 80<736 736> 519 80<816 816>
LayerCount: 2
Fore
SplineSet
554 0 m 1xe0
 94 0 l 1
 241 691 l 1
 687 691 l 1
 673 626 l 1
 490 626 l 2
 478 626 466 627 454 627 c 2
 316 627 l 1
 266 390 l 1
 596 390 l 1
 583 329 l 1
 253 329 l 1
 198 70 l 1
 407 70 l 2
 419 70 431 71 443 71 c 2
 569 71 l 1
 554 0 l 1xe0
408 736 m 1x14
 328 736 l 1x19
 345 816 l 1
 425 816 l 1
 408 736 l 1x14
582 736 m 1
 502 736 l 1x12
 519 816 l 1
 599 816 l 1
 582 736 l 1
EndSplineSet
Validated: 1
Position2: "'cpsp' Capital Spacing lookup 0 subtable" dx=7 dy=0 dh=14 dv=0
EndChar

StartChar: edieresis
Encoding: 235 235 267
Width: 444
Flags: MW
HStem: -11 61<223 274.5 223 280.5> 219 55<168 415 168 461 152 415> 400 61<292.5 347> 571 80<247 310 230 327 247 376 393 456>
VStem: 230 80<571 571> 247 80<651 651> 376 80<571 571> 393 80<651 651>
LayerCount: 2
Fore
SplineSet
461 219 m 1xe2
 152 219 l 1
 134 121 183 50 263 50 c 0
 286 50 352 54 427 106 c 1
 419 41 l 1
 374 13 312 -11 249 -11 c 0
 129 -11 55 94 83 226 c 0
 110 355 223 461 334 461 c 0
 370 461 429 450 456 388 c 0
 483 328 468 253 461 219 c 1xe2
415 274 m 1
 422 366 373 400 321 400 c 0
 264 400 200 350 168 274 c 1
 415 274 l 1
310 571 m 1x14
 230 571 l 1x19
 247 651 l 1
 327 651 l 1
 310 571 l 1x14
456 571 m 1
 376 571 l 1x12
 393 651 l 1
 473 651 l 1
 456 571 l 1
EndSplineSet
Validated: 33
EndChar

StartChar: Edotaccent
Encoding: 278 278 268
Width: 597
Flags: MW
HStem: 0 70<198 407 407 413 198 554> 329 61<266 583 253 596> 626 65<484 490 490 673> 736 89<429 499 410 518>
VStem: 410 89<736 736> 429 89<825 825>
LayerCount: 2
Fore
SplineSet
554 0 m 1xe0
 94 0 l 1
 241 691 l 1
 687 691 l 1
 673 626 l 1
 490 626 l 2
 478 626 466 627 454 627 c 2
 316 627 l 1
 266 390 l 1
 596 390 l 1
 583 329 l 1
 253 329 l 1
 198 70 l 1
 407 70 l 2
 419 70 431 71 443 71 c 2
 569 71 l 1
 554 0 l 1xe0
499 736 m 1x14
 410 736 l 1x18
 429 825 l 1
 518 825 l 1
 499 736 l 1x14
EndSplineSet
Validated: 1
Position2: "'cpsp' Capital Spacing lookup 0 subtable" dx=7 dy=0 dh=14 dv=0
EndChar

StartChar: edotaccent
Encoding: 279 279 269
Width: 444
Flags: MW
HStem: -11 61<223 274.5 223 280.5> 219 55<168 415 168 461 152 415> 400 61<292.5 347> 566 89<316 386 297 405>
VStem: 297 89<566 566> 316 89<655 655>
LayerCount: 2
Fore
SplineSet
461 219 m 1xe0
 152 219 l 1
 134 121 183 50 263 50 c 0
 286 50 352 54 427 106 c 1
 419 41 l 1
 374 13 312 -11 249 -11 c 0
 129 -11 55 94 83 226 c 0
 110 355 223 461 334 461 c 0
 370 461 429 450 456 388 c 0
 483 328 468 253 461 219 c 1xe0
415 274 m 1
 422 366 373 400 321 400 c 0
 264 400 200 350 168 274 c 1
 415 274 l 1
386 566 m 1x14
 297 566 l 1x18
 316 655 l 1
 405 655 l 1
 386 566 l 1x14
EndSplineSet
Validated: 33
EndChar

StartChar: Edotbelow
Encoding: 7864 7864 270
Width: 597
Flags: MW
HStem: 0 70<198 407 407 413 198 554> 329 61<266 583 253 596> 626 65<484 490 490 673>
VStem: 211 89<-200 -200> 230 89<-111 -111>
LayerCount: 2
Fore
SplineSet
554 0 m 1xe0
 94 0 l 1
 241 691 l 1
 687 691 l 1
 673 626 l 1
 490 626 l 2
 478 626 466 627 454 627 c 2
 316 627 l 1
 266 390 l 1
 596 390 l 1
 583 329 l 1
 253 329 l 1
 198 70 l 1
 407 70 l 2
 419 70 431 71 443 71 c 2
 569 71 l 1
 554 0 l 1xe0
300 -200 m 1x08
 211 -200 l 1x10
 230 -111 l 1
 319 -111 l 1
 300 -200 l 1x08
EndSplineSet
Validated: 1
Position2: "'cpsp' Capital Spacing lookup 0 subtable" dx=7 dy=0 dh=14 dv=0
EndChar

StartChar: edotbelow
Encoding: 7865 7865 271
Width: 444
Flags: MW
HStem: -11 61<223 274.5 223 280.5> 219 55<168 415 168 461 152 415> 400 61<292.5 347>
VStem: 134 89<-200 -200> 153 89<-111 -111>
LayerCount: 2
Fore
SplineSet
461 219 m 1xe0
 152 219 l 1
 134 121 183 50 263 50 c 0
 286 50 352 54 427 106 c 1
 419 41 l 1
 374 13 312 -11 249 -11 c 0
 129 -11 55 94 83 226 c 0
 110 355 223 461 334 461 c 0
 370 461 429 450 456 388 c 0
 483 328 468 253 461 219 c 1xe0
415 274 m 1
 422 366 373 400 321 400 c 0
 264 400 200 350 168 274 c 1
 415 274 l 1
223 -200 m 1x08
 134 -200 l 1x10
 153 -111 l 1
 242 -111 l 1
 223 -200 l 1x08
EndSplineSet
Validated: 33
EndChar

StartChar: Egrave
Encoding: 200 200 272
Width: 597
Flags: MW
HStem: 0 70<198 407 407 413 198 554> 329 61<266 583 253 596> 626 65<484 490 490 673> 746 21G<463 552 463 463> 848 20G<292 403 403 403>
LayerCount: 2
Fore
SplineSet
554 0 m 1
 94 0 l 1
 241 691 l 1
 687 691 l 1
 673 626 l 1
 490 626 l 2
 478 626 466 627 454 627 c 2
 316 627 l 1
 266 390 l 1
 596 390 l 1
 583 329 l 1
 253 329 l 1
 198 70 l 1
 407 70 l 2
 419 70 431 71 443 71 c 2
 569 71 l 1
 554 0 l 1
552 746 m 1x18
 463 746 l 1
 292 868 l 1
 403 868 l 1
 552 746 l 1x18
EndSplineSet
Validated: 1
Position2: "'cpsp' Capital Spacing lookup 0 subtable" dx=7 dy=0 dh=14 dv=0
EndChar

StartChar: egrave
Encoding: 232 232 273
Width: 444
Flags: MW
HStem: -11 61<223 274.5 223 280.5> 219 55<168 415 168 461 152 415> 400 61<292.5 347> 527 21G<343 404 343 343> 674 20G<229 307 307 307>
LayerCount: 2
Fore
SplineSet
461 219 m 1
 152 219 l 1
 134 121 183 50 263 50 c 0
 286 50 352 54 427 106 c 1
 419 41 l 1
 374 13 312 -11 249 -11 c 0
 129 -11 55 94 83 226 c 0
 110 355 223 461 334 461 c 0
 370 461 429 450 456 388 c 0
 483 328 468 253 461 219 c 1
415 274 m 1
 422 366 373 400 321 400 c 0
 264 400 200 350 168 274 c 1
 415 274 l 1
404 527 m 1x18
 343 527 l 1
 229 694 l 1
 307 694 l 1
 404 527 l 1x18
EndSplineSet
Validated: 33
EndChar

StartChar: Ehookabove
Encoding: 7866 7866 274
Width: 597
Flags: MW
HStem: 0 70<198 407 407 413 198 554> 329 61<266 583 253 596> 626 65<484 490 490 673> 736 21G<435 461 435 435> 931 20G<476.5 509.5>
LayerCount: 2
Fore
SplineSet
554 0 m 1
 94 0 l 1
 241 691 l 1
 687 691 l 1
 673 626 l 1
 490 626 l 2
 478 626 466 627 454 627 c 2
 316 627 l 1
 266 390 l 1
 596 390 l 1
 583 329 l 1
 253 329 l 1
 198 70 l 1
 407 70 l 2
 419 70 431 71 443 71 c 2
 569 71 l 1
 554 0 l 1
581 873 m 0x18
 577 853 563 834 544 823 c 2
 529 814 l 2
 492 794 472 781 467 756 c 2
 463 737 l 1
 461 736 l 1
 435 736 l 1
 435 737 l 1
 439 756 l 2
 447 797 475 834 513 852 c 0
 522 857 530 865 531 873 c 0
 534 886 533 897 526 903 c 0
 516 910 505 912 486 912 c 0
 455 912 423 895 402 868 c 1
 401 868 l 1
 400 868 l 1
 395 908 l 1
 423 936 459 951 494 951 c 0
 525 951 550 946 567 931 c 0
 582 918 586 896 581 873 c 0x18
EndSplineSet
Validated: 33
Position2: "'cpsp' Capital Spacing lookup 0 subtable" dx=7 dy=0 dh=14 dv=0
EndChar

StartChar: ehookabove
Encoding: 7867 7867 275
Width: 444
Flags: MW
HStem: -11 61<223 274.5 223 280.5> 219 55<168 415 168 461 152 415> 400 61<292.5 347> 503 21G<309 335 309 309> 698 20G<350.5 383.5>
LayerCount: 2
Fore
SplineSet
461 219 m 1
 152 219 l 1
 134 121 183 50 263 50 c 0
 286 50 352 54 427 106 c 1
 419 41 l 1
 374 13 312 -11 249 -11 c 0
 129 -11 55 94 83 226 c 0
 110 355 223 461 334 461 c 0
 370 461 429 450 456 388 c 0
 483 328 468 253 461 219 c 1
415 274 m 1
 422 366 373 400 321 400 c 0
 264 400 200 350 168 274 c 1
 415 274 l 1
455 640 m 0x18
 451 620 437 601 417 590 c 2
 402 581 l 2
 365 561 345 548 340 523 c 2
 336 504 l 1
 335 503 l 1
 309 503 l 1
 308 504 l 1
 312 523 l 2
 321 564 349 601 387 619 c 0
 396 624 403 632 405 640 c 0
 408 653 406 664 399 670 c 0
 390 677 378 679 359 679 c 0
 328 679 297 662 276 635 c 1
 275 635 l 1
 274 635 l 1
 268 675 l 1
 296 703 333 718 368 718 c 0
 399 718 424 713 440 698 c 0
 456 685 460 663 455 640 c 0x18
EndSplineSet
Validated: 33
EndChar

StartChar: ellipsis
Encoding: 8230 8230 276
Width: 626
Flags: MW
HStem: 0 83<116 181 98 199 116 272 290 355 464 529>
VStem: 116 83<83 83> 290 83<83 83> 464 83<83 83>
CounterMasks: 1 70
LayerCount: 2
Fore
SplineSet
181 0 m 1
 98 0 l 1
 116 83 l 1
 199 83 l 1
 181 0 l 1
355 0 m 1
 272 0 l 1
 290 83 l 1
 373 83 l 1
 355 0 l 1
529 0 m 1
 446 0 l 1
 464 83 l 1
 547 83 l 1
 529 0 l 1
EndSplineSet
Validated: 1
EndChar

StartChar: Emacron
Encoding: 274 274 277
Width: 597
Flags: MW
HStem: 0 70<198 407 407 413 198 554> 329 61<266 583 253 596> 626 65<484 490 490 673> 756 64<293 641 280 654>
LayerCount: 2
Fore
SplineSet
554 0 m 1
 94 0 l 1
 241 691 l 1
 687 691 l 1
 673 626 l 1
 490 626 l 2
 478 626 466 627 454 627 c 2
 316 627 l 1
 266 390 l 1
 596 390 l 1
 583 329 l 1
 253 329 l 1
 198 70 l 1
 407 70 l 2
 419 70 431 71 443 71 c 2
 569 71 l 1
 554 0 l 1
641 756 m 1x10
 280 756 l 1
 293 820 l 1
 654 820 l 1
 641 756 l 1x10
EndSplineSet
Validated: 1
Position2: "'cpsp' Capital Spacing lookup 0 subtable" dx=7 dy=0 dh=14 dv=0
EndChar

StartChar: emacron
Encoding: 275 275 278
Width: 444
Flags: MW
HStem: -11 61<223 274.5 223 280.5> 219 55<168 415 168 461 152 415> 400 61<292.5 347> 579 64<179 526 165 540>
LayerCount: 2
Fore
SplineSet
461 219 m 1
 152 219 l 1
 134 121 183 50 263 50 c 0
 286 50 352 54 427 106 c 1
 419 41 l 1
 374 13 312 -11 249 -11 c 0
 129 -11 55 94 83 226 c 0
 110 355 223 461 334 461 c 0
 370 461 429 450 456 388 c 0
 483 328 468 253 461 219 c 1
415 274 m 1
 422 366 373 400 321 400 c 0
 264 400 200 350 168 274 c 1
 415 274 l 1
526 579 m 1x10
 165 579 l 1
 179 643 l 1
 540 643 l 1
 526 579 l 1x10
EndSplineSet
Validated: 33
EndChar

StartChar: emdash
Encoding: 8212 8212 279
Width: 1000
Flags: MW
HStem: 244 61<65 1051 52 1064>
VStem: 52 999<244 244> 65 999<305 305>
LayerCount: 2
Fore
SplineSet
1051 244 m 1xa0
 52 244 l 1xc0
 65 305 l 1
 1064 305 l 1
 1051 244 l 1xa0
EndSplineSet
Validated: 1
Substitution2: "'cv03' Character Variants 03 in Cyrillic lookup 23-1" emdash.cyr
Ligature2: "'dlig' Discretionary Ligatures lookup 13 subtable" hyphen hyphen hyphen hyphen
EndChar

StartChar: endash
Encoding: 8211 8211 280
Width: 500
Flags: MW
HStem: 244 61<65 551 52 564>
VStem: 52 499<244 244> 65 499<305 305>
LayerCount: 2
Fore
SplineSet
551 244 m 1xa0
 52 244 l 1xc0
 65 305 l 1
 564 305 l 1
 551 244 l 1xa0
EndSplineSet
Validated: 1
Ligature2: "'dlig' Discretionary Ligatures lookup 13 subtable" hyphen hyphen
EndChar

StartChar: Eng
Encoding: 330 330 281
Width: 708
Flags: MW
HStem: -22 78<402 461 402 464> 638 78<501 585>
VStem: 94 89<0 0> 242 89<694 694> 599 88<347 347>
LayerCount: 2
Fore
SplineSet
687 347 m 0
 648 165 543 -22 385 -22 c 1
 402 56 l 1
 520 56 569 209 599 347 c 0
 628 485 644 638 526 638 c 0
 424 638 325 564 282 467 c 1
 183 0 l 1
 94 0 l 1
 242 694 l 1
 331 694 l 1
 316 627 l 1
 380 682 460 716 542 716 c 0
 700 716 725 529 687 347 c 0
EndSplineSet
Validated: 33
Position2: "'cpsp' Capital Spacing lookup 0 subtable" dx=7 dy=0 dh=14 dv=0
EndChar

StartChar: eng
Encoding: 331 331 282
Width: 517
Flags: MW
HStem: -209 64<253 283 253 288> 394 61<350 392>
VStem: 81 78<0 0> 357 78<0 0>
LayerCount: 2
Fore
SplineSet
435 0 m 2
 412 -106 336 -209 240 -209 c 1
 253 -145 l 1
 313 -145 342 -70 357 0 c 2
 419 291 l 2
 426 323 440 394 344 394 c 0
 268 394 225 311 211 245 c 2
 159 0 l 1
 81 0 l 1
 177 450 l 1
 249 450 l 1
 234 379 l 1
 241 387 305 455 395 455 c 0
 517 455 512 364 498 298 c 2
 435 0 l 2
EndSplineSet
Validated: 33
Substitution2: "'ss05' Style Set 5 lookup 23 IPA alts-1" eng.ipa
EndChar

StartChar: Eogonek
Encoding: 280 280 283
Width: 597
Flags: MW
HStem: -212 70 0 70<198 407 407 413 198 444> 329 61<266 583 253 596> 626 65<484 490 490 673>
VStem: 241 89 253 63
LayerCount: 2
Fore
SplineSet
514 -187 m 1xf4
 470 -206 444 -212 411 -212 c 0
 344 -212 322 -170 330 -127 c 0
 338 -76 395 -29 444 0 c 1
 94 0 l 1
 241 691 l 1xd8
 687 691 l 1
 673 626 l 1
 490 626 l 2
 478 626 466 627 454 627 c 2
 316 627 l 1
 266 390 l 1
 596 390 l 1
 583 329 l 1
 253 329 l 1
 198 70 l 1
 407 70 l 2
 419 70 431 71 443 71 c 2
 569 71 l 1
 554 0 l 1
 509 0 l 1
 457 -26 406 -60 398 -104 c 0
 393 -134 415 -140 443 -142 c 0
 465 -143 489 -137 513 -128 c 1
 514 -187 l 1xf4
EndSplineSet
Validated: 33
Position2: "'cpsp' Capital Spacing lookup 0 subtable" dx=7 dy=0 dh=14 dv=0
EndChar

StartChar: eogonek
Encoding: 281 281 284
Width: 444
Flags: MW
HStem: -212 70 -11 61<223 249> 219 55<168 415 168 461 152 415> 400 61<292.5 347>
VStem: 269 70
LayerCount: 2
Fore
SplineSet
461 219 m 1
 152 219 l 1
 134 121 183 50 263 50 c 0
 286 50 352 54 427 106 c 1
 419 41 l 1
 395 26 367 13 336 3 c 1
 284 -23 232 -60 224 -104 c 0
 219 -134 241 -140 269 -142 c 0
 291 -143 315 -137 339 -128 c 1
 340 -187 l 1
 296 -206 270 -212 237 -212 c 0
 170 -212 148 -170 156 -127 c 0
 162 -83 203 -39 249 -11 c 1
 129 -11 55 94 83 226 c 0
 110 355 223 461 334 461 c 0
 370 461 429 450 456 388 c 0
 483 328 468 253 461 219 c 1
415 274 m 1
 422 366 373 400 321 400 c 0
 264 400 200 350 168 274 c 1
 415 274 l 1
EndSplineSet
Validated: 33
EndChar

StartChar: Ereversed
Encoding: 398 398 285
Width: 597
Flags: MW
HStem: 0 70<271 480 271 554> 329 61<218 535 205 548> 626 65<255 424 241 701>
LayerCount: 2
Fore
SplineSet
554 0 m 1
 94 0 l 1
 109 71 l 1
 235 71 l 2
 247 71 259 70 271 70 c 2
 480 70 l 1
 535 329 l 1
 205 329 l 1
 218 390 l 1
 548 390 l 1
 598 627 l 1
 460 627 l 2
 448 627 436 626 424 626 c 2
 241 626 l 1
 255 691 l 1
 701 691 l 1
 554 0 l 1
EndSplineSet
Validated: 1
Position2: "'cpsp' Capital Spacing lookup 0 subtable" dx=7 dy=0 dh=14 dv=0
EndChar

StartChar: ereversed
Encoding: 600 600 286
Width: 444
Flags: MW
HStem: -11 61<196.5 248 196.5 256> 219 55<150 391> 400 61<293 326.5>
LayerCount: 2
Fore
SplineSet
462 226 m 0
 434 94 316 -11 196 -11 c 0
 133 -11 81 13 48 41 c 1
 68 106 l 1
 119 54 185 50 208 50 c 0
 288 50 367 121 391 219 c 1
 82 219 l 1
 89 253 106 328 157 388 c 0
 212 450 275 461 311 461 c 0
 422 461 489 355 462 226 c 0
397 274 m 1
 397 350 355 400 298 400 c 0
 246 400 183 366 150 274 c 1
 397 274 l 1
EndSplineSet
Validated: 33
EndChar

StartChar: estimated
Encoding: 8494 8494 287
Width: 669
Flags: MW
HStem: -10 61<362 375 375 409 362 409.5> 362 55<208 650 208 717 190 650> 651 61<424.5 537.5 401.5 545.5>
LayerCount: 2
Fore
SplineSet
717 362 m 1
 190 362 l 1
 181 321 177 280 181 241 c 0
 193 143 256 58 362 51 c 1
 375 51 l 2
 443 51 512 62 582 83 c 0
 605 90 628 100 652 107 c 1
 649 88 649 68 645 49 c 0
 643 39 631 37 622 34 c 0
 538 7 452 -10 367 -10 c 0
 171 -10 65 156 100 338 c 1
 101 345 l 1
 139 523 298 712 505 712 c 0
 570 712 631 692 672 650 c 0
 741 579 739 466 717 362 c 1
650 417 m 1
 672 552 605 651 486 651 c 0
 363 651 242 525 208 417 c 1
 650 417 l 1
EndSplineSet
Validated: 33
EndChar

StartChar: Eth
Encoding: 208 208 288
Width: 722
Flags: MW
HStem: 0 56<194 347 347 359> 315 64<99 163 85 177 263 350> 638 56<318 471 318 318>
VStem: 163 86<315 315> 177 86<379 379> 651 86<341 341>
CounterMasks: 1 e0
LayerCount: 2
Fore
SplineSet
737 341 m 0xe8
 697 152 529 0 359 0 c 2
 96 0 l 1
 163 315 l 1xf4
 85 315 l 1
 99 379 l 1
 177 379 l 1
 244 694 l 1
 506 694 l 2
 678 694 779 535 737 341 c 0xe8
651 341 m 0
 689 517 611 638 471 638 c 2
 318 638 l 1
 263 379 l 1xec
 364 379 l 1
 350 315 l 1
 249 315 l 1
 194 56 l 1
 347 56 l 2
 487 56 615 171 651 341 c 0
EndSplineSet
Validated: 33
Position2: "'cpsp' Capital Spacing lookup 0 subtable" dx=7 dy=0 dh=14 dv=0
EndChar

StartChar: eth
Encoding: 240 240 289
Width: 500
Flags: MW
HStem: -11 64<223.5 281.5> 400 61<301.5 366 287 377>
LayerCount: 2
Fore
SplineSet
520 242 m 0
 511 196 496 129 422 62 c 0
 378 22 316 -11 247 -11 c 0
 130 -11 49 89 77 220 c 0
 105 351 226 461 348 461 c 0
 384 461 418 450 442 434 c 1
 429 493 401 544 361 586 c 1
 271 525 l 1
 245 571 l 1
 321 622 l 1
 294 641 266 657 234 670 c 1
 275 722 l 1
 317 709 352 689 384 665 c 1
 472 723 l 1
 497 677 l 1
 425 629 l 1
 470 581 503 522 521 455 c 0
 546 361 529 280 520 242 c 0
439 225 m 0
 459 322 420 400 334 400 c 0
 269 400 183 351 157 230 c 0
 132 114 186 53 261 53 c 0
 343 53 418 126 439 225 c 0
EndSplineSet
Validated: 33
Substitution2: "'ss05' Style Set 5 lookup 23 IPA alts-1" eth.ipa
EndChar

StartChar: Etilde
Encoding: 7868 7868 290
Width: 597
Flags: MW
HStem: 0 70<198 407 407 413 198 554> 329 61<266 583 253 596> 626 65<484 490 490 673> 736 61<523.5 547.5> 794 61<389.5 413.5>
LayerCount: 2
Fore
SplineSet
554 0 m 1xe0
 94 0 l 1
 241 691 l 1
 687 691 l 1
 673 626 l 1
 490 626 l 2
 478 626 466 627 454 627 c 2
 316 627 l 1
 266 390 l 1
 596 390 l 1
 583 329 l 1
 253 329 l 1
 198 70 l 1
 407 70 l 2
 419 70 431 71 443 71 c 2
 569 71 l 1
 554 0 l 1xe0
648 855 m 1x08
 629 777 571 736 524 736 c 0x10
 499 736 482 748 466 761 c 0
 443 780 425 794 402 794 c 0x08
 376 794 359 770 350 736 c 1
 289 736 l 1x10
 308 814 366 855 413 855 c 0x08
 438 855 455 843 471 830 c 0
 494 811 512 797 535 797 c 0x10
 561 797 578 821 587 855 c 1
 648 855 l 1x08
EndSplineSet
Validated: 1
Position2: "'cpsp' Capital Spacing lookup 0 subtable" dx=7 dy=0 dh=14 dv=0
EndChar

StartChar: etilde
Encoding: 7869 7869 291
Width: 444
Flags: MW
HStem: -11 61<223 274.5 223 280.5> 219 55<168 415 168 461 152 415> 400 61<292.5 347> 551 61<407.5 431.5> 609 61<272.5 296.5>
LayerCount: 2
Fore
SplineSet
461 219 m 1xe0
 152 219 l 1
 134 121 183 50 263 50 c 0
 286 50 352 54 427 106 c 1
 419 41 l 1
 374 13 312 -11 249 -11 c 0
 129 -11 55 94 83 226 c 0
 110 355 223 461 334 461 c 0
 370 461 429 450 456 388 c 0
 483 328 468 253 461 219 c 1xe0
415 274 m 1
 422 366 373 400 321 400 c 0
 264 400 200 350 168 274 c 1
 415 274 l 1
531 670 m 1x08
 513 592 455 551 408 551 c 0x10
 383 551 366 563 349 576 c 0
 326 595 308 609 285 609 c 0x08
 259 609 242 585 234 551 c 1
 173 551 l 1x10
 192 629 249 670 296 670 c 0x08
 321 670 339 658 355 645 c 0
 378 626 396 612 419 612 c 0x10
 445 612 462 636 470 670 c 1
 531 670 l 1x08
EndSplineSet
Validated: 33
EndChar

StartChar: eturned
Encoding: 477 477 292
Width: 444
Flags: MW
HStem: -11 61<198 252.5 198 266.5> 176 55<129 376 129 129> 400 61<270.5 322>
LayerCount: 2
Fore
SplineSet
462 224 m 0
 434 95 322 -11 211 -11 c 0
 175 -11 116 0 88 62 c 0
 62 122 77 197 84 231 c 1
 393 231 l 1
 411 329 362 400 282 400 c 0
 259 400 192 396 118 344 c 1
 126 409 l 1
 171 437 233 461 296 461 c 0
 416 461 490 356 462 224 c 0
376 176 m 1
 129 176 l 1
 123 84 172 50 224 50 c 0
 281 50 344 100 376 176 c 1
EndSplineSet
Validated: 33
EndChar

StartChar: Euro
Encoding: 8364 8364 293
Width: 599
Flags: MW
HStem: -22 56 -22 64<378 427> 255 56<127 186 105 190 278 517> 383 56<154 206 133 225 313 567> 652 64<510 562.5>
VStem: 197 88<347 347>
LayerCount: 2
Fore
SplineSet
556 34 m 1x7c
 494 -11 462 -22 392 -22 c 0
 314 -22 255 23 222 86 c 0
 195 136 184 194 186 255 c 1
 105 255 l 1
 127 311 l 1
 190 311 l 1
 192 323 194 335 197 347 c 0
 199 359 202 371 206 383 c 1
 133 383 l 1
 154 439 l 1
 225 439 l 1
 249 500 285 558 333 608 c 0
 393 671 471 716 549 716 c 0
 604 716 640 707 683 682 c 1
 651 599 l 1
 622 637 589 652 536 652 c 0
 479 652 425 612 385 563 c 0
 354 525 330 483 313 439 c 1
 589 439 l 1
 567 383 l 1
 294 383 l 1
 290 371 287 359 285 347 c 0
 282 335 280 323 278 311 c 1
 539 311 l 1
 517 255 l 1
 273 255 l 1
 272 212 278 170 293 131 c 0
 313 83 350 42 406 42 c 0
 475 42 507 54 565 104 c 1
 556 34 l 1x7c
EndSplineSet
Validated: 33
EndChar

StartChar: exclamdown
Encoding: 161 161 294
Width: 319
Flags: MW
HStem: -194 21G<77 160 77 77> 305 20G<195 262 262 262> 417 83<224 290 207 307>
VStem: 77 83<-194 -194> 207 83<417 417> 224 83<500 500>
LayerCount: 2
Fore
SplineSet
290 417 m 1x24
 207 417 l 1xf8
 224 500 l 1
 307 500 l 1
 290 417 l 1x24
160 -194 m 1
 77 -194 l 1
 186 282 l 1
 195 325 l 1
 262 325 l 1
 253 282 l 1
 160 -194 l 1
EndSplineSet
Validated: 1
Ligature2: "'dlig' Discretionary Ligatures lookup 13 subtable" exclam quoteleft
Ligature2: "'dlig' Discretionary Ligatures lookup 13 subtable" exclam grave
EndChar

StartChar: florin
Encoding: 402 402 295
Width: 306
Flags: MW
HStem: 0 21G<101 176 101 101> 386 58<121 183 109 195 267 368> 644 61<390 413>
VStem: 101 75<0 0> 183 75<386 386> 293 75
LayerCount: 2
Fore
SplineSet
480 627 m 1
 449 642 423 644 403 644 c 0
 377 644 308 637 293 563 c 2
 267 444 l 1
 380 444 l 1
 368 386 l 1
 258 386 l 1
 176 0 l 1
 101 0 l 1
 183 386 l 1
 109 386 l 1
 121 444 l 1
 195 444 l 1
 215 534 l 2
 236 634 323 705 417 705 c 0
 454 705 483 697 495 694 c 1
 480 627 l 1
EndSplineSet
Validated: 1
EndChar

StartChar: fraction
Encoding: 8260 8260 296
Width: 558
Flags: W
LayerCount: 2
Fore
SplineSet
645 674 m 1
 106 20 l 1
 60 20 l 1
 599 674 l 1
 645 674 l 1
EndSplineSet
Validated: 1
EndChar

StartChar: fraction.alt
Encoding: 8725 8725 297
Width: 0
Flags: W
LayerCount: 2
Fore
SplineSet
366 674 m 1
 -173 20 l 1
 -219 20 l 1
 320 674 l 1
 366 674 l 1
EndSplineSet
Validated: 1
EndChar

StartChar: Gacute
Encoding: 500 500 298
Width: 667
Flags: MW
HStem: -11 64<366.5 421.5 366.5 422.5> 239 61<452 571 439 662> 642 64<494.5 541> 746 21G<396 485 396 396> 848 20G<597 708 708 708>
LayerCount: 2
Fore
SplineSet
606 38 m 1
 534 6 459 -11 386 -11 c 0
 299 -11 225 29 180 94 c 0
 133 163 120 254 140 347 c 0
 160 440 211 531 288 601 c 0
 361 666 451 706 538 706 c 0
 573 706 607 703 640 695 c 0
 672 686 702 673 729 656 c 1
 697 574 l 1
 676 596 651 615 620 626 c 0
 591 638 558 642 524 642 c 0
 459 642 393 607 341 556 c 0
 283 497 245 422 229 347 c 0
 213 272 219 198 253 139 c 0
 283 88 334 53 399 53 c 0
 444 53 491 60 536 74 c 1
 571 239 l 1
 439 239 l 1
 452 300 l 1
 662 300 l 1
 606 38 l 1
708 868 m 1x18
 485 746 l 1
 396 746 l 1
 597 868 l 1
 708 868 l 1x18
EndSplineSet
Validated: 33
Position2: "'cpsp' Capital Spacing lookup 0 subtable" dx=7 dy=0 dh=14 dv=0
EndChar

StartChar: gacute
Encoding: 501 501 299
Width: 500
Flags: MW
HStem: -206 57<177.5 259 177.5 266.5> -3 72<136 280 192 265> 129 57<242.5 282.5 242.5 293> 398 57<287.5 327.5> 527 21G<257 318 257 257> 674 20G<426 504 504 504>
VStem: 13 70<4.29497e+09 4.29497e+09> 124 70<292 292> 248 70 373 70<292 292> 386 70
LayerCount: 2
Fore
SplineSet
568 392 m 1xf3a0
 568 392 528 395 510 395 c 0
 486 395 457 391 435 391 c 1
 431 392 l 1
 439 377 453 340 443 292 c 0xf340
 424 203 338 129 248 129 c 0
 211 129 181 143 164 158 c 1
 155 149 147 133 145 122 c 0
 134 69 179 69 192 69 c 2
 280 69 l 2
 319 69 486 69 456 -70 c 0
 440 -147 328 -206 205 -206 c 0
 83 -206 -3 -146 13 -71 c 0
 18 -45 40 1 99 32 c 1
 86 53 83 82 89 108 c 0
 90 113 98 152 136 193 c 1
 122 219 116 255 124 292 c 0
 143 383 232 455 318 455 c 0
 358 455 389 440 406 423 c 1
 439 436 501 455 571 455 c 1
 568 392 l 1xf3a0
373 292 m 0
 390 370 349 398 306 398 c 0
 269 398 212 375 194 292 c 0
 176 209 224 186 261 186 c 0
 304 186 356 214 373 292 c 0
386 -72 m 0
 400 -3 287 -3 265 -3 c 2
 175 -3 l 2
 97 -3 84 -68 83 -71 c 0
 73 -118 137 -149 218 -149 c 0
 300 -149 376 -116 386 -72 c 0
504 694 m 1x0c80
 318 527 l 1
 257 527 l 1
 426 694 l 1
 504 694 l 1x0c80
EndSplineSet
Validated: 33
EndChar

StartChar: Gbreve
Encoding: 286 286 300
Width: 667
Flags: MW
HStem: -11 64<366.5 421.5 366.5 422.5> 239 61<452 571 439 662> 642 64<494.5 541> 746 67<481.5 531 481.5 535.5> 904 20G<361 422 422 422 637 698 698 698>
LayerCount: 2
Fore
SplineSet
606 38 m 1
 534 6 459 -11 386 -11 c 0
 299 -11 225 29 180 94 c 0
 133 163 120 254 140 347 c 0
 160 440 211 531 288 601 c 0
 361 666 451 706 538 706 c 0
 573 706 607 703 640 695 c 0
 672 686 702 673 729 656 c 1
 697 574 l 1
 676 596 651 615 620 626 c 0
 591 638 558 642 524 642 c 0
 459 642 393 607 341 556 c 0
 283 497 245 422 229 347 c 0
 213 272 219 198 253 139 c 0
 283 88 334 53 399 53 c 0
 444 53 491 60 536 74 c 1
 571 239 l 1
 439 239 l 1
 452 300 l 1
 662 300 l 1
 606 38 l 1
698 924 m 1x18
 674 819 580 746 491 746 c 0
 405 746 341 817 361 924 c 1
 422 924 l 1
 409 852 456 813 507 813 c 0
 555 813 620 850 637 924 c 1
 698 924 l 1x18
EndSplineSet
Validated: 33
Position2: "'cpsp' Capital Spacing lookup 0 subtable" dx=7 dy=0 dh=14 dv=0
EndChar

